u2194_noise 100 - 40.ufo
<glyph name="exclam" format="1">
  <advance width="269"/>
  <unicode hex="0021"/>
  <outline>
    <contour>
      <point x="107" y="161" type="curve" smooth="yes"/>
      <point x="129" y="160"/>
      <point x="148" y="178"/>
      <point x="149" y="199" type="curve" smooth="yes"/>
      <point x="153" y="295" type="line"/>
      <point x="178" y="388" type="line"/>
      <point x="217" y="486" type="line" smooth="yes"/>
      <point x="219" y="492"/>
      <point x="220" y="502"/>
      <point x="219" y="508" type="curve" smooth="yes"/>
      <point x="203" y="605" type="line"/>
      <point x="193" y="705" type="line" smooth="yes"/>
      <point x="192" y="710"/>
      <point x="190" y="718"/>
      <point x="187" y="722" type="curve" smooth="yes"/>
      <point x="124" y="822" type="line" smooth="yes"/>
      <point x="112" y="841"/>
      <point x="87" y="846"/>
      <point x="69" y="835" type="curve" smooth="yes"/>
      <point x="50" y="823"/>
      <point x="45" y="798"/>
      <point x="56" y="780" type="curve" smooth="yes"/>
      <point x="114" y="688" type="line"/>
      <point x="123" y="597" type="line"/>
      <point x="139" y="505" type="line"/>
      <point x="103" y="416" type="line" smooth="yes"/>
      <point x="102" y="415"/>
      <point x="102" y="413"/>
      <point x="101" y="411" type="curve" smooth="yes"/>
      <point x="74" y="311" type="line" smooth="yes"/>
      <point x="74" y="309"/>
      <point x="73" y="305"/>
      <point x="73" y="303" type="curve" smooth="yes"/>
      <point x="69" y="203" type="line" smooth="yes"/>
      <point x="68" y="181"/>
      <point x="86" y="162"/>
    </contour>
    <contour>
      <point x="213" y="29" type="curve" smooth="yes"/>
      <point x="207" y="50"/>
      <point x="184" y="62"/>
      <point x="163" y="57" type="curve" smooth="yes"/>
      <point x="102" y="40" type="line" smooth="yes"/>
      <point x="81" y="34"/>
      <point x="69" y="11"/>
      <point x="74" y="-10" type="curve" smooth="yes"/>
      <point x="80" y="-31"/>
      <point x="103" y="-43"/>
      <point x="124" y="-38" type="curve" smooth="yes"/>
      <point x="185" y="-21" type="line" smooth="yes"/>
      <point x="206" y="-15"/>
      <point x="218" y="8"/>
    </contour>
  </outline>
</glyph>
<glyph name="numbersign" format="1">
  <advance width="804"/>
  <unicode hex="0023"/>
  <outline>
    <contour>
      <point x="454" y="295" type="curve" smooth="yes"/>
      <point x="460" y="239" type="line"/>
      <point x="344" y="239" type="line"/>
      <point x="327" y="300" type="line"/>
      <point x="346" y="381" type="line"/>
      <point x="419" y="474" type="line" smooth="yes"/>
      <point x="420" y="476"/>
      <point x="422" y="479"/>
      <point x="423" y="481" type="curve" smooth="yes"/>
      <point x="462" y="559" type="line"/>
      <point x="543" y="559" type="line"/>
      <point x="525" y="513" type="line" smooth="yes"/>
      <point x="523" y="507"/>
      <point x="523" y="496"/>
      <point x="524" y="490" type="curve" smooth="yes"/>
      <point x="543" y="411" type="line"/>
      <point x="465" y="326" type="line" smooth="yes"/>
      <point x="458" y="319"/>
      <point x="453" y="305"/>
    </contour>
    <contour>
      <point x="252" y="-11" type="curve" smooth="yes"/>
      <point x="277" y="81" type="line"/>
      <point x="333" y="159" type="line"/>
      <point x="428" y="159" type="line"/>
      <point x="401" y="122" type="line" smooth="yes"/>
      <point x="393" y="111"/>
      <point x="392" y="92"/>
      <point x="399" y="80" type="curve" smooth="yes"/>
      <point x="453" y="-20" type="line" smooth="yes"/>
      <point x="463" y="-39"/>
      <point x="488" y="-46"/>
      <point x="507" y="-36" type="curve" smooth="yes"/>
      <point x="526" y="-26"/>
      <point x="533" y="-1"/>
      <point x="523" y="18" type="curve" smooth="yes"/>
      <point x="481" y="96" type="line"/>
      <point x="526" y="159" type="line"/>
      <point x="612" y="159" type="line" smooth="yes"/>
      <point x="634" y="159"/>
      <point x="652" y="177"/>
      <point x="652" y="199" type="curve" smooth="yes"/>
      <point x="652" y="221"/>
      <point x="634" y="239"/>
      <point x="612" y="239" type="curve" smooth="yes"/>
      <point x="541" y="239" type="line"/>
      <point x="536" y="285" type="line"/>
      <point x="616" y="372" type="line" smooth="yes"/>
      <point x="624" y="380"/>
      <point x="629" y="397"/>
      <point x="626" y="408" type="curve" smooth="yes"/>
      <point x="605" y="497" type="line"/>
      <point x="628" y="559" type="line"/>
      <point x="714" y="559" type="line" smooth="yes"/>
      <point x="736" y="559"/>
      <point x="754" y="577"/>
      <point x="754" y="599" type="curve" smooth="yes"/>
      <point x="754" y="621"/>
      <point x="736" y="639"/>
      <point x="714" y="639" type="curve" smooth="yes"/>
      <point x="644" y="639" type="line"/>
      <point x="650" y="695" type="line" smooth="yes"/>
      <point x="650" y="696"/>
      <point x="650" y="698"/>
      <point x="650" y="699" type="curve" smooth="yes"/>
      <point x="650" y="799" type="line" smooth="yes"/>
      <point x="650" y="821"/>
      <point x="632" y="839"/>
      <point x="610" y="839" type="curve" smooth="yes"/>
      <point x="588" y="839"/>
      <point x="570" y="821"/>
      <point x="570" y="799" type="curve" smooth="yes"/>
      <point x="570" y="701" type="line"/>
      <point x="564" y="639" type="line"/>
      <point x="459" y="639" type="line"/>
      <point x="421" y="698" type="line"/>
      <point x="478" y="775" type="line" smooth="yes"/>
      <point x="491" y="793"/>
      <point x="487" y="819"/>
      <point x="470" y="831" type="curve" smooth="yes"/>
      <point x="452" y="844"/>
      <point x="426" y="840"/>
      <point x="414" y="823" type="curve" smooth="yes"/>
      <point x="341" y="723" type="line" smooth="yes"/>
      <point x="332" y="710"/>
      <point x="331" y="690"/>
      <point x="339" y="677" type="curve" smooth="yes"/>
      <point x="364" y="639" type="line"/>
      <point x="241" y="639" type="line" smooth="yes"/>
      <point x="219" y="639"/>
      <point x="201" y="621"/>
      <point x="201" y="599" type="curve" smooth="yes"/>
      <point x="201" y="577"/>
      <point x="219" y="559"/>
      <point x="241" y="559" type="curve" smooth="yes"/>
      <point x="372" y="559" type="line"/>
      <point x="353" y="520" type="line"/>
      <point x="277" y="424" type="line" smooth="yes"/>
      <point x="274" y="420"/>
      <point x="271" y="413"/>
      <point x="270" y="408" type="curve" smooth="yes"/>
      <point x="247" y="308" type="line" smooth="yes"/>
      <point x="246" y="303"/>
      <point x="246" y="294"/>
      <point x="247" y="289" type="curve" smooth="yes"/>
      <point x="261" y="239" type="line"/>
      <point x="90" y="239" type="line" smooth="yes"/>
      <point x="68" y="239"/>
      <point x="50" y="221"/>
      <point x="50" y="199" type="curve" smooth="yes"/>
      <point x="50" y="177"/>
      <point x="68" y="159"/>
      <point x="90" y="159" type="curve" smooth="yes"/>
      <point x="234" y="159" type="line"/>
      <point x="208" y="123" type="line" smooth="yes"/>
      <point x="205" y="119"/>
      <point x="202" y="113"/>
      <point x="201" y="109" type="curve" smooth="yes"/>
      <point x="174" y="9" type="line" smooth="yes"/>
      <point x="169" y="-11"/>
      <point x="182" y="-34"/>
      <point x="203" y="-40" type="curve" smooth="yes"/>
      <point x="223" y="-45"/>
      <point x="246" y="-32"/>
    </contour>
  </outline>
</glyph>
<glyph name="dollar" format="1">
  <advance width="855"/>
  <unicode hex="0024"/>
  <outline>
    <contour>
      <point x="299" y="443" type="line"/>
      <point x="149" y="487" type="line"/>
      <point x="132" y="591" type="line"/>
      <point x="168" y="664" type="line" smooth="yes"/>
      <point x="170" y="669"/>
      <point x="172" y="677"/>
      <point x="172" y="683" type="curve" smooth="yes"/>
      <point x="171" y="730" type="line"/>
      <point x="309" y="759" type="line"/>
      <point x="406" y="759" type="line"/>
      <point x="415" y="707" type="line"/>
      <point x="361" y="620" type="line" smooth="yes"/>
      <point x="354" y="609"/>
      <point x="354" y="591"/>
      <point x="360" y="579" type="curve" smooth="yes"/>
      <point x="409" y="494" type="line"/>
      <point x="393" y="439" type="line"/>
      <point x="308" y="439" type="line"/>
    </contour>
    <contour>
      <point x="480" y="101" type="line" smooth="yes"/>
      <point x="480" y="105"/>
      <point x="478" y="112"/>
      <point x="476" y="115" type="curve" smooth="yes"/>
      <point x="440" y="196" type="line"/>
      <point x="491" y="278" type="line" smooth="yes"/>
      <point x="496" y="287"/>
      <point x="498" y="302"/>
      <point x="495" y="312" type="curve" smooth="yes"/>
      <point x="479" y="358" type="line"/>
      <point x="548" y="353" type="line"/>
      <point x="641" y="311" type="line"/>
      <point x="718" y="200" type="line"/>
      <point x="680" y="140" type="line"/>
      <point x="631" y="69" type="line"/>
      <point x="555" y="39" type="line"/>
      <point x="483" y="39" type="line"/>
    </contour>
    <contour>
      <point x="355" y="-41" type="curve" smooth="yes"/>
      <point x="563" y="-41" type="line" smooth="yes"/>
      <point x="567" y="-41"/>
      <point x="574" y="-40"/>
      <point x="578" y="-38" type="curve" smooth="yes"/>
      <point x="672" y="-1" type="line" smooth="yes"/>
      <point x="678" y="1"/>
      <point x="686" y="8"/>
      <point x="690" y="13" type="curve" smooth="yes"/>
      <point x="746" y="95" type="line"/>
      <point x="800" y="180" type="line" smooth="yes"/>
      <point x="808" y="192"/>
      <point x="807" y="212"/>
      <point x="799" y="224" type="curve" smooth="yes"/>
      <point x="701" y="365" type="line" smooth="yes"/>
      <point x="697" y="370"/>
      <point x="690" y="376"/>
      <point x="685" y="379" type="curve" smooth="yes"/>
      <point x="575" y="429" type="line" smooth="yes"/>
      <point x="571" y="431"/>
      <point x="565" y="432"/>
      <point x="561" y="433" type="curve" smooth="yes"/>
      <point x="476" y="439" type="line"/>
      <point x="490" y="488" type="line" smooth="yes"/>
      <point x="493" y="497"/>
      <point x="491" y="511"/>
      <point x="487" y="519" type="curve" smooth="yes"/>
      <point x="442" y="598" type="line"/>
      <point x="491" y="678" type="line" smooth="yes"/>
      <point x="495" y="685"/>
      <point x="498" y="697"/>
      <point x="496" y="706" type="curve" smooth="yes"/>
      <point x="487" y="759" type="line"/>
      <point x="560" y="759" type="line"/>
      <point x="672" y="730" type="line"/>
      <point x="690" y="678" type="line"/>
      <point x="683" y="603" type="line" smooth="yes"/>
      <point x="681" y="581"/>
      <point x="698" y="561"/>
      <point x="719" y="559" type="curve" smooth="yes"/>
      <point x="741" y="557"/>
      <point x="761" y="574"/>
      <point x="763" y="595" type="curve" smooth="yes"/>
      <point x="770" y="679" type="line" smooth="yes"/>
      <point x="771" y="683"/>
      <point x="770" y="691"/>
      <point x="768" y="695" type="curve" smooth="yes"/>
      <point x="741" y="776" type="line" smooth="yes"/>
      <point x="737" y="787"/>
      <point x="725" y="799"/>
      <point x="713" y="802" type="curve" smooth="yes"/>
      <point x="575" y="838" type="line" smooth="yes"/>
      <point x="572" y="838"/>
      <point x="568" y="839"/>
      <point x="565" y="839" type="curve" smooth="yes"/>
      <point x="305" y="839" type="line" smooth="yes"/>
      <point x="303" y="839"/>
      <point x="299" y="839"/>
      <point x="297" y="838" type="curve" smooth="yes"/>
      <point x="122" y="802" type="line" smooth="yes"/>
      <point x="104" y="798"/>
      <point x="90" y="780"/>
      <point x="90" y="762" type="curve" smooth="yes"/>
      <point x="92" y="691" type="line"/>
      <point x="54" y="615" type="line" smooth="yes"/>
      <point x="51" y="608"/>
      <point x="49" y="598"/>
      <point x="51" y="591" type="curve" smooth="yes"/>
      <point x="74" y="449" type="line" smooth="yes"/>
      <point x="76" y="435"/>
      <point x="88" y="421"/>
      <point x="102" y="417" type="curve" smooth="yes"/>
      <point x="270" y="368" type="line"/>
      <point x="287" y="362" type="line" smooth="yes"/>
      <point x="291" y="360"/>
      <point x="297" y="359"/>
      <point x="301" y="359" type="curve" smooth="yes"/>
      <point x="394" y="359" type="line"/>
      <point x="413" y="304" type="line"/>
      <point x="361" y="220" type="line" smooth="yes"/>
      <point x="355" y="210"/>
      <point x="354" y="193"/>
      <point x="359" y="183" type="curve" smooth="yes"/>
      <point x="400" y="89" type="line"/>
      <point x="403" y="39" type="line"/>
      <point x="357" y="39" type="line"/>
      <point x="277" y="45" type="line"/>
      <point x="215" y="84" type="line"/>
      <point x="166" y="213" type="line" smooth="yes"/>
      <point x="159" y="233"/>
      <point x="135" y="244"/>
      <point x="115" y="236" type="curve" smooth="yes"/>
      <point x="95" y="229"/>
      <point x="84" y="205"/>
      <point x="92" y="185" type="curve" smooth="yes"/>
      <point x="145" y="43" type="line" smooth="yes"/>
      <point x="147" y="36"/>
      <point x="154" y="28"/>
      <point x="161" y="24" type="curve" smooth="yes"/>
      <point x="242" y="-28" type="line" smooth="yes"/>
      <point x="247" y="-31"/>
      <point x="255" y="-34"/>
      <point x="261" y="-34" type="curve" smooth="yes"/>
      <point x="352" y="-41" type="line" smooth="yes"/>
      <point x="353" y="-41"/>
      <point x="354" y="-41"/>
    </contour>
  </outline>
</glyph>
<glyph name="percent" format="1">
  <advance width="821"/>
  <unicode hex="0025"/>
  <outline>
    <contour>
      <point x="181" y="559" type="curve" smooth="yes"/>
      <point x="345" y="559" type="line" smooth="yes"/>
      <point x="379" y="559"/>
      <point x="397" y="591"/>
      <point x="379" y="620" type="curve" smooth="yes"/>
      <point x="318" y="720" type="line" smooth="yes"/>
      <point x="307" y="738"/>
      <point x="282" y="744"/>
      <point x="263" y="733" type="curve" smooth="yes"/>
      <point x="245" y="722"/>
      <point x="239" y="697"/>
      <point x="250" y="678" type="curve" smooth="yes"/>
      <point x="274" y="639" type="line"/>
      <point x="211" y="639" type="line"/>
      <point x="195" y="693" type="line" smooth="yes"/>
      <point x="194" y="695"/>
      <point x="193" y="698"/>
      <point x="192" y="700" type="curve" smooth="yes"/>
      <point x="174" y="736" type="line"/>
      <point x="268" y="760" type="line" smooth="yes"/>
      <point x="289" y="766"/>
      <point x="302" y="788"/>
      <point x="297" y="809" type="curve" smooth="yes"/>
      <point x="291" y="830"/>
      <point x="269" y="843"/>
      <point x="248" y="838" type="curve" smooth="yes"/>
      <point x="106" y="801" type="line" smooth="yes"/>
      <point x="80" y="795"/>
      <point x="68" y="769"/>
      <point x="80" y="745" type="curve" smooth="yes"/>
      <point x="119" y="667" type="line"/>
      <point x="143" y="588" type="line" smooth="yes"/>
      <point x="147" y="572"/>
      <point x="164" y="559"/>
    </contour>
    <contour>
      <point x="118" y="-30" type="curve" smooth="yes"/>
      <point x="201" y="50" type="line" smooth="yes"/>
      <point x="207" y="56"/>
      <point x="212" y="67"/>
      <point x="213" y="76" type="curve" smooth="yes"/>
      <point x="218" y="136" type="line"/>
      <point x="330" y="205" type="line" smooth="yes"/>
      <point x="336" y="208"/>
      <point x="343" y="216"/>
      <point x="345" y="222" type="curve" smooth="yes"/>
      <point x="379" y="296" type="line"/>
      <point x="452" y="371" type="line" smooth="yes"/>
      <point x="459" y="379"/>
      <point x="464" y="395"/>
      <point x="462" y="405" type="curve" smooth="yes"/>
      <point x="454" y="458" type="line"/>
      <point x="570" y="524" type="line" smooth="yes"/>
      <point x="583" y="532"/>
      <point x="592" y="550"/>
      <point x="590" y="565" type="curve" smooth="yes"/>
      <point x="581" y="619" type="line"/>
      <point x="684" y="685" type="line" smooth="yes"/>
      <point x="686" y="687"/>
      <point x="690" y="690"/>
      <point x="692" y="693" type="curve" smooth="yes"/>
      <point x="762" y="773" type="line" smooth="yes"/>
      <point x="776" y="789"/>
      <point x="775" y="815"/>
      <point x="758" y="829" type="curve" smooth="yes"/>
      <point x="742" y="843"/>
      <point x="716" y="842"/>
      <point x="702" y="825" type="curve" smooth="yes"/>
      <point x="636" y="750" type="line"/>
      <point x="516" y="673" type="line" smooth="yes"/>
      <point x="504" y="665"/>
      <point x="496" y="647"/>
      <point x="498" y="633" type="curve" smooth="yes"/>
      <point x="506" y="580" type="line"/>
      <point x="390" y="514" type="line" smooth="yes"/>
      <point x="377" y="506"/>
      <point x="368" y="488"/>
      <point x="371" y="473" type="curve" smooth="yes"/>
      <point x="380" y="412" type="line"/>
      <point x="317" y="347" type="line" smooth="yes"/>
      <point x="315" y="344"/>
      <point x="311" y="339"/>
      <point x="310" y="336" type="curve" smooth="yes"/>
      <point x="278" y="267" type="line"/>
      <point x="159" y="193" type="line" smooth="yes"/>
      <point x="150" y="187"/>
      <point x="141" y="174"/>
      <point x="140" y="162" type="curve" smooth="yes"/>
      <point x="134" y="97" type="line"/>
      <point x="62" y="28" type="line" smooth="yes"/>
      <point x="47" y="13"/>
      <point x="46" y="-13"/>
      <point x="61" y="-29" type="curve" smooth="yes"/>
      <point x="76" y="-44"/>
      <point x="102" y="-45"/>
    </contour>
    <contour>
      <point x="549" y="-39" type="curve" smooth="yes"/>
      <point x="652" y="-2" type="line" smooth="yes"/>
      <point x="659" y="0"/>
      <point x="669" y="8"/>
      <point x="673" y="14" type="curve" smooth="yes"/>
      <point x="723" y="95" type="line" smooth="yes"/>
      <point x="725" y="97"/>
      <point x="726" y="101"/>
      <point x="727" y="103" type="curve" smooth="yes"/>
      <point x="756" y="186" type="line" smooth="yes"/>
      <point x="765" y="214"/>
      <point x="747" y="239"/>
      <point x="718" y="239" type="curve" smooth="yes"/>
      <point x="474" y="239" type="line" smooth="yes"/>
      <point x="448" y="239"/>
      <point x="430" y="218"/>
      <point x="435" y="192" type="curve" smooth="yes"/>
      <point x="452" y="92" type="line" smooth="yes"/>
      <point x="455" y="71"/>
      <point x="476" y="56"/>
      <point x="498" y="60" type="curve" smooth="yes"/>
      <point x="519" y="63"/>
      <point x="534" y="84"/>
      <point x="530" y="106" type="curve" smooth="yes"/>
      <point x="521" y="159" type="line"/>
      <point x="662" y="159" type="line"/>
      <point x="653" y="133" type="line"/>
      <point x="612" y="68" type="line"/>
      <point x="523" y="37" type="line" smooth="yes"/>
      <point x="502" y="30"/>
      <point x="491" y="6"/>
      <point x="498" y="-14" type="curve" smooth="yes"/>
      <point x="505" y="-35"/>
      <point x="529" y="-46"/>
    </contour>
  </outline>
</glyph>
<glyph name="ampersand" format="1">
  <advance width="812"/>
  <unicode hex="0026"/>
  <outline>
    <contour>
      <point x="726" y="-38" type="curve" smooth="yes"/>
      <point x="747" y="-32"/>
      <point x="760" y="-10"/>
      <point x="755" y="11" type="curve" smooth="yes"/>
      <point x="734" y="91" type="line" smooth="yes"/>
      <point x="733" y="95"/>
      <point x="730" y="102"/>
      <point x="727" y="105" type="curve" smooth="yes"/>
      <point x="667" y="185" type="line" smooth="yes"/>
      <point x="666" y="186"/>
      <point x="665" y="188"/>
      <point x="664" y="189" type="curve" smooth="yes"/>
      <point x="602" y="253" type="line"/>
      <point x="704" y="297" type="line" smooth="yes"/>
      <point x="711" y="300"/>
      <point x="720" y="308"/>
      <point x="723" y="315" type="curve" smooth="yes"/>
      <point x="758" y="382" type="line" smooth="yes"/>
      <point x="767" y="401"/>
      <point x="759" y="426"/>
      <point x="740" y="436" type="curve" smooth="yes"/>
      <point x="721" y="445"/>
      <point x="696" y="437"/>
      <point x="686" y="418" type="curve" smooth="yes"/>
      <point x="659" y="364" type="line"/>
      <point x="537" y="311" type="line"/>
      <point x="495" y="347" type="line"/>
      <point x="484" y="368" type="line"/>
      <point x="492" y="369" type="line" smooth="yes"/>
      <point x="503" y="369"/>
      <point x="517" y="377"/>
      <point x="523" y="386" type="curve" smooth="yes"/>
      <point x="557" y="439" type="line" smooth="yes"/>
      <point x="558" y="441"/>
      <point x="560" y="444"/>
      <point x="561" y="446" type="curve" smooth="yes"/>
      <point x="620" y="588" type="line" smooth="yes"/>
      <point x="621" y="591"/>
      <point x="622" y="595"/>
      <point x="623" y="599" type="curve" smooth="yes"/>
      <point x="634" y="698" type="line"/>
      <point x="643" y="797" type="line" smooth="yes"/>
      <point x="645" y="821"/>
      <point x="627" y="841"/>
      <point x="603" y="841" type="curve" smooth="yes"/>
      <point x="514" y="841" type="line" smooth="yes"/>
      <point x="512" y="841"/>
      <point x="509" y="841"/>
      <point x="507" y="840" type="curve" smooth="yes"/>
      <point x="464" y="833" type="line" smooth="yes"/>
      <point x="461" y="832"/>
      <point x="456" y="831"/>
      <point x="453" y="830" type="curve" smooth="yes"/>
      <point x="344" y="777" type="line" smooth="yes"/>
      <point x="335" y="773"/>
      <point x="326" y="762"/>
      <point x="323" y="753" type="curve" smooth="yes"/>
      <point x="281" y="610" type="line" smooth="yes"/>
      <point x="279" y="606"/>
      <point x="279" y="600"/>
      <point x="279" y="596" type="curve" smooth="yes"/>
      <point x="287" y="501" type="line"/>
      <point x="277" y="437" type="line"/>
      <point x="239" y="433" type="line" smooth="yes"/>
      <point x="236" y="433"/>
      <point x="232" y="432"/>
      <point x="229" y="431" type="curve" smooth="yes"/>
      <point x="82" y="379" type="line" smooth="yes"/>
      <point x="68" y="374"/>
      <point x="56" y="358"/>
      <point x="55" y="343" type="curve" smooth="yes"/>
      <point x="50" y="200" type="line" smooth="yes"/>
      <point x="50" y="193"/>
      <point x="53" y="181"/>
      <point x="58" y="175" type="curve" smooth="yes"/>
      <point x="116" y="99" type="line"/>
      <point x="130" y="29" type="line" smooth="yes"/>
      <point x="132" y="14"/>
      <point x="146" y="0"/>
      <point x="161" y="-3" type="curve" smooth="yes"/>
      <point x="331" y="-38" type="line" smooth="yes"/>
      <point x="341" y="-40"/>
      <point x="355" y="-37"/>
      <point x="363" y="-31" type="curve" smooth="yes"/>
      <point x="450" y="36" type="line" smooth="yes"/>
      <point x="453" y="37"/>
      <point x="456" y="40"/>
      <point x="457" y="42" type="curve" smooth="yes"/>
      <point x="511" y="109" type="line" smooth="yes"/>
      <point x="513" y="110"/>
      <point x="515" y="113"/>
      <point x="516" y="115" type="curve" smooth="yes"/>
      <point x="551" y="182" type="line" smooth="yes"/>
      <point x="552" y="183"/>
      <point x="553" y="186"/>
      <point x="553" y="188" type="curve"/>
      <point x="604" y="135" type="line"/>
      <point x="658" y="63" type="line"/>
      <point x="677" y="-9" type="line" smooth="yes"/>
      <point x="683" y="-30"/>
      <point x="705" y="-43"/>
    </contour>
    <contour>
      <point x="382" y="441" type="line"/>
      <point x="359" y="441" type="line"/>
      <point x="367" y="494" type="line" smooth="yes"/>
      <point x="367" y="497"/>
      <point x="367" y="501"/>
      <point x="367" y="503" type="curve" smooth="yes"/>
      <point x="359" y="595" type="line"/>
      <point x="394" y="713" type="line"/>
      <point x="483" y="755" type="line"/>
      <point x="517" y="761" type="line"/>
      <point x="559" y="761" type="line"/>
      <point x="554" y="706" type="line"/>
      <point x="544" y="613" type="line"/>
      <point x="488" y="480" type="line"/>
      <point x="467" y="447" type="line"/>
    </contour>
    <contour>
      <point x="193" y="123" type="line" smooth="yes"/>
      <point x="192" y="128"/>
      <point x="188" y="136"/>
      <point x="185" y="140" type="curve" smooth="yes"/>
      <point x="130" y="212" type="line"/>
      <point x="134" y="313" type="line"/>
      <point x="251" y="354" type="line"/>
      <point x="329" y="361" type="line"/>
      <point x="388" y="361" type="line"/>
      <point x="396" y="362" type="line"/>
      <point x="428" y="302" type="line" smooth="yes"/>
      <point x="430" y="299"/>
      <point x="434" y="293"/>
      <point x="437" y="290" type="curve" smooth="yes"/>
      <point x="488" y="248" type="line"/>
      <point x="478" y="216" type="line"/>
      <point x="447" y="156" type="line"/>
      <point x="398" y="96" type="line"/>
      <point x="329" y="44" type="line"/>
      <point x="203" y="70" type="line"/>
    </contour>
  </outline>
</glyph>
<glyph name="asterisk" format="1">
  <advance width="538"/>
  <unicode hex="002A"/>
  <outline>
    <contour>
      <point x="113" y="268" type="curve" smooth="yes"/>
      <point x="268" y="368" type="line" smooth="yes"/>
      <point x="271" y="371"/>
      <point x="276" y="375"/>
      <point x="278" y="378" type="curve" smooth="yes"/>
      <point x="298" y="404" type="line"/>
      <point x="336" y="347" type="line" smooth="yes"/>
      <point x="336" y="345"/>
      <point x="338" y="343"/>
      <point x="339" y="342" type="curve" smooth="yes"/>
      <point x="398" y="275" type="line" smooth="yes"/>
      <point x="412" y="259"/>
      <point x="438" y="258"/>
      <point x="455" y="272" type="curve" smooth="yes"/>
      <point x="471" y="286"/>
      <point x="472" y="312"/>
      <point x="458" y="329" type="curve" smooth="yes"/>
      <point x="401" y="393" type="line"/>
      <point x="358" y="457" type="line" smooth="yes"/>
      <point x="357" y="459"/>
      <point x="356" y="460"/>
      <point x="355" y="462" type="curve"/>
      <point x="448" y="462" type="line" smooth="yes"/>
      <point x="470" y="462"/>
      <point x="488" y="480"/>
      <point x="488" y="502" type="curve" smooth="yes"/>
      <point x="488" y="524"/>
      <point x="470" y="542"/>
      <point x="448" y="542" type="curve" smooth="yes"/>
      <point x="320" y="542" type="line" smooth="yes"/>
      <point x="317" y="542"/>
      <point x="314" y="542"/>
      <point x="311" y="541" type="curve"/>
      <point x="327" y="590" type="line" smooth="yes"/>
      <point x="329" y="595"/>
      <point x="329" y="603"/>
      <point x="328" y="608" type="curve" smooth="yes"/>
      <point x="312" y="708" type="line" smooth="yes"/>
      <point x="309" y="730"/>
      <point x="288" y="745"/>
      <point x="267" y="741" type="curve" smooth="yes"/>
      <point x="245" y="738"/>
      <point x="230" y="717"/>
      <point x="234" y="696" type="curve" smooth="yes"/>
      <point x="248" y="605" type="line"/>
      <point x="228" y="542" type="line"/>
      <point x="90" y="542" type="line" smooth="yes"/>
      <point x="68" y="542"/>
      <point x="50" y="524"/>
      <point x="50" y="502" type="curve" smooth="yes"/>
      <point x="50" y="480"/>
      <point x="68" y="462"/>
      <point x="90" y="462" type="curve" smooth="yes"/>
      <point x="239" y="462" type="line"/>
      <point x="240" y="461" type="line"/>
      <point x="218" y="432" type="line"/>
      <point x="69" y="336" type="line" smooth="yes"/>
      <point x="51" y="324"/>
      <point x="46" y="298"/>
      <point x="57" y="280" type="curve" smooth="yes"/>
      <point x="69" y="262"/>
      <point x="95" y="257"/>
    </contour>
  </outline>
</glyph>
<glyph name="plus" format="1">
  <advance width="661"/>
  <unicode hex="002B"/>
  <outline>
    <contour>
      <point x="373" y="83" type="curve" smooth="yes"/>
      <point x="395" y="87"/>
      <point x="409" y="108"/>
      <point x="405" y="129" type="curve" smooth="yes"/>
      <point x="386" y="229" type="line" smooth="yes"/>
      <point x="386" y="233"/>
      <point x="384" y="238"/>
      <point x="382" y="240" type="curve" smooth="yes"/>
      <point x="361" y="282" type="line"/>
      <point x="571" y="282" type="line" smooth="yes"/>
      <point x="593" y="282"/>
      <point x="611" y="300"/>
      <point x="611" y="322" type="curve" smooth="yes"/>
      <point x="611" y="344"/>
      <point x="593" y="362"/>
      <point x="571" y="362" type="curve" smooth="yes"/>
      <point x="338" y="362" type="line"/>
      <point x="341" y="409" type="line"/>
      <point x="401" y="500" type="line" smooth="yes"/>
      <point x="412" y="518"/>
      <point x="407" y="544"/>
      <point x="389" y="556" type="curve" smooth="yes"/>
      <point x="371" y="567"/>
      <point x="345" y="562"/>
      <point x="333" y="544" type="curve" smooth="yes"/>
      <point x="268" y="444" type="line" smooth="yes"/>
      <point x="265" y="439"/>
      <point x="262" y="430"/>
      <point x="262" y="425" type="curve" smooth="yes"/>
      <point x="258" y="362" type="line"/>
      <point x="90" y="362" type="line" smooth="yes"/>
      <point x="68" y="362"/>
      <point x="50" y="344"/>
      <point x="50" y="322" type="curve" smooth="yes"/>
      <point x="50" y="300"/>
      <point x="68" y="282"/>
      <point x="90" y="282" type="curve" smooth="yes"/>
      <point x="271" y="282" type="line"/>
      <point x="309" y="209" type="line"/>
      <point x="327" y="115" type="line" smooth="yes"/>
      <point x="331" y="93"/>
      <point x="352" y="79"/>
    </contour>
  </outline>
</glyph>
<glyph name="comma" format="1">
  <advance width="287"/>
  <unicode hex="002C"/>
  <outline>
    <contour>
      <point x="90" y="-98" type="curve" smooth="yes"/>
      <point x="197" y="-98" type="line" smooth="yes"/>
      <point x="222" y="-98"/>
      <point x="240" y="-77"/>
      <point x="237" y="-52" type="curve" smooth="yes"/>
      <point x="223" y="43" type="line"/>
      <point x="232" y="138" type="line" smooth="yes"/>
      <point x="234" y="160"/>
      <point x="217" y="180"/>
      <point x="196" y="182" type="curve" smooth="yes"/>
      <point x="174" y="184"/>
      <point x="154" y="167"/>
      <point x="152" y="146" type="curve" smooth="yes"/>
      <point x="143" y="46" type="line" smooth="yes"/>
      <point x="143" y="43"/>
      <point x="143" y="39"/>
      <point x="143" y="36" type="curve" smooth="yes"/>
      <point x="151" y="-18" type="line"/>
      <point x="90" y="-18" type="line" smooth="yes"/>
      <point x="68" y="-18"/>
      <point x="50" y="-36"/>
      <point x="50" y="-58" type="curve" smooth="yes"/>
      <point x="50" y="-80"/>
      <point x="68" y="-98"/>
    </contour>
  </outline>
</glyph>
<glyph name="period" format="1">
  <advance width="204"/>
  <unicode hex="002E"/>
  <outline>
    <contour>
      <point x="53" y="25" type="curve" smooth="yes"/>
      <point x="45" y="5"/>
      <point x="55" y="-19"/>
      <point x="75" y="-27" type="curve" smooth="yes"/>
      <point x="99" y="-37" type="line" smooth="yes"/>
      <point x="119" y="-45"/>
      <point x="143" y="-35"/>
      <point x="151" y="-15" type="curve" smooth="yes"/>
      <point x="159" y="5"/>
      <point x="149" y="29"/>
      <point x="129" y="37" type="curve" smooth="yes"/>
      <point x="105" y="47" type="line" smooth="yes"/>
      <point x="85" y="55"/>
      <point x="61" y="45"/>
    </contour>
  </outline>
</glyph>
<glyph name="slash" format="1">
  <advance width="805"/>
  <unicode hex="002F"/>
  <outline>
    <contour>
      <point x="127" y="-12" type="curve" smooth="yes"/>
      <point x="154" y="56" type="line"/>
      <point x="258" y="129" type="line" smooth="yes"/>
      <point x="259" y="130"/>
      <point x="262" y="132"/>
      <point x="263" y="134" type="curve" smooth="yes"/>
      <point x="346" y="215" type="line"/>
      <point x="417" y="295" type="line" smooth="yes"/>
      <point x="422" y="301"/>
      <point x="427" y="312"/>
      <point x="427" y="320" type="curve" smooth="yes"/>
      <point x="430" y="381" type="line"/>
      <point x="527" y="449" type="line" smooth="yes"/>
      <point x="532" y="453"/>
      <point x="538" y="461"/>
      <point x="541" y="466" type="curve" smooth="yes"/>
      <point x="575" y="546" type="line" smooth="yes"/>
      <point x="576" y="550"/>
      <point x="578" y="555"/>
      <point x="578" y="559" type="curve" smooth="yes"/>
      <point x="582" y="620" type="line"/>
      <point x="686" y="689" type="line" smooth="yes"/>
      <point x="690" y="691"/>
      <point x="695" y="697"/>
      <point x="698" y="700" type="curve" smooth="yes"/>
      <point x="749" y="780" type="line" smooth="yes"/>
      <point x="760" y="799"/>
      <point x="755" y="824"/>
      <point x="737" y="836" type="curve" smooth="yes"/>
      <point x="718" y="847"/>
      <point x="693" y="842"/>
      <point x="681" y="824" type="curve" smooth="yes"/>
      <point x="635" y="751" type="line"/>
      <point x="522" y="675" type="line" smooth="yes"/>
      <point x="513" y="669"/>
      <point x="505" y="656"/>
      <point x="504" y="645" type="curve" smooth="yes"/>
      <point x="499" y="572" type="line"/>
      <point x="472" y="508" type="line"/>
      <point x="368" y="435" type="line" smooth="yes"/>
      <point x="359" y="428"/>
      <point x="352" y="415"/>
      <point x="351" y="404" type="curve" smooth="yes"/>
      <point x="348" y="338" type="line"/>
      <point x="286" y="269" type="line"/>
      <point x="209" y="193" type="line"/>
      <point x="98" y="115" type="line" smooth="yes"/>
      <point x="93" y="111"/>
      <point x="86" y="103"/>
      <point x="84" y="96" type="curve" smooth="yes"/>
      <point x="53" y="16" type="line" smooth="yes"/>
      <point x="45" y="-4"/>
      <point x="55" y="-27"/>
      <point x="76" y="-35" type="curve" smooth="yes"/>
      <point x="96" y="-43"/>
      <point x="119" y="-33"/>
    </contour>
  </outline>
</glyph>
<glyph name="zero" format="1">
  <advance width="837"/>
  <unicode hex="0030"/>
  <outline>
    <contour>
      <point x="277" y="-38" type="curve" smooth="yes"/>
      <point x="539" y="-38" type="line" smooth="yes"/>
      <point x="544" y="-38"/>
      <point x="551" y="-36"/>
      <point x="556" y="-34" type="curve" smooth="yes"/>
      <point x="634" y="2" type="line" smooth="yes"/>
      <point x="640" y="4"/>
      <point x="648" y="11"/>
      <point x="651" y="17" type="curve" smooth="yes"/>
      <point x="702" y="97" type="line"/>
      <point x="754" y="181" type="line" smooth="yes"/>
      <point x="757" y="186"/>
      <point x="760" y="194"/>
      <point x="760" y="200" type="curve" smooth="yes"/>
      <point x="765" y="300" type="line" smooth="yes"/>
      <point x="765" y="302"/>
      <point x="765" y="306"/>
      <point x="764" y="308" type="curve" smooth="yes"/>
      <point x="750" y="398" type="line"/>
      <point x="784" y="488" type="line" smooth="yes"/>
      <point x="786" y="492"/>
      <point x="787" y="499"/>
      <point x="787" y="503" type="curve" smooth="yes"/>
      <point x="785" y="603" type="line" smooth="yes"/>
      <point x="785" y="607"/>
      <point x="783" y="614"/>
      <point x="782" y="618" type="curve" smooth="yes"/>
      <point x="759" y="670" type="line" smooth="yes"/>
      <point x="757" y="675"/>
      <point x="751" y="682"/>
      <point x="747" y="686" type="curve" smooth="yes"/>
      <point x="723" y="704" type="line"/>
      <point x="736" y="715"/>
      <point x="741" y="736"/>
      <point x="733" y="752" type="curve" smooth="yes"/>
      <point x="723" y="771"/>
      <point x="698" y="779"/>
      <point x="679" y="770" type="curve" smooth="yes"/>
      <point x="653" y="757" type="line"/>
      <point x="619" y="782" type="line" smooth="yes"/>
      <point x="617" y="784"/>
      <point x="612" y="787"/>
      <point x="609" y="788" type="curve" smooth="yes"/>
      <point x="467" y="840" type="line" smooth="yes"/>
      <point x="463" y="841"/>
      <point x="457" y="842"/>
      <point x="453" y="842" type="curve" smooth="yes"/>
      <point x="322" y="842" type="line" smooth="yes"/>
      <point x="319" y="842"/>
      <point x="313" y="841"/>
      <point x="310" y="840" type="curve" smooth="yes"/>
      <point x="192" y="804" type="line" smooth="yes"/>
      <point x="188" y="803"/>
      <point x="182" y="800"/>
      <point x="179" y="797" type="curve" smooth="yes"/>
      <point x="77" y="716" type="line" smooth="yes"/>
      <point x="66" y="707"/>
      <point x="60" y="689"/>
      <point x="64" y="675" type="curve" smooth="yes"/>
      <point x="83" y="602" type="line"/>
      <point x="58" y="512" type="line" smooth="yes"/>
      <point x="57" y="506"/>
      <point x="57" y="495"/>
      <point x="59" y="489" type="curve" smooth="yes"/>
      <point x="88" y="403" type="line"/>
      <point x="53" y="317" type="line" smooth="yes"/>
      <point x="50" y="310"/>
      <point x="49" y="299"/>
      <point x="51" y="292" type="curve" smooth="yes"/>
      <point x="76" y="198" type="line"/>
      <point x="71" y="121" type="line" smooth="yes"/>
      <point x="70" y="114"/>
      <point x="73" y="103"/>
      <point x="77" y="97" type="curve" smooth="yes"/>
      <point x="128" y="17" type="line" smooth="yes"/>
      <point x="133" y="9"/>
      <point x="144" y="1"/>
      <point x="153" y="-1" type="curve" smooth="yes"/>
      <point x="244" y="-21" type="line"/>
      <point x="252" y="-31"/>
      <point x="264" y="-38"/>
    </contour>
    <contour>
      <point x="156" y="199" type="line" smooth="yes"/>
      <point x="156" y="203"/>
      <point x="156" y="209"/>
      <point x="155" y="212" type="curve" smooth="yes"/>
      <point x="132" y="299" type="line"/>
      <point x="168" y="387" type="line" smooth="yes"/>
      <point x="171" y="394"/>
      <point x="172" y="407"/>
      <point x="169" y="415" type="curve" smooth="yes"/>
      <point x="139" y="503" type="line"/>
      <point x="163" y="592" type="line" smooth="yes"/>
      <point x="164" y="597"/>
      <point x="164" y="606"/>
      <point x="163" y="612" type="curve" smooth="yes"/>
      <point x="148" y="670" type="line"/>
      <point x="222" y="730" type="line"/>
      <point x="328" y="762" type="line"/>
      <point x="446" y="762" type="line"/>
      <point x="572" y="716" type="line"/>
      <point x="530" y="694" type="line" smooth="yes"/>
      <point x="521" y="690"/>
      <point x="512" y="678"/>
      <point x="509" y="669" type="curve" smooth="yes"/>
      <point x="492" y="602" type="line"/>
      <point x="439" y="535" type="line"/>
      <point x="366" y="461" type="line" smooth="yes"/>
      <point x="360" y="454"/>
      <point x="355" y="442"/>
      <point x="355" y="433" type="curve" smooth="yes"/>
      <point x="354" y="373" type="line"/>
      <point x="296" y="309" type="line" smooth="yes"/>
      <point x="295" y="308"/>
      <point x="294" y="307"/>
      <point x="293" y="306" type="curve" smooth="yes"/>
      <point x="236" y="231" type="line" smooth="yes"/>
      <point x="235" y="229"/>
      <point x="233" y="225"/>
      <point x="232" y="223" type="curve" smooth="yes"/>
      <point x="201" y="155" type="line"/>
      <point x="159" y="116" type="line"/>
      <point x="151" y="129" type="line"/>
    </contour>
    <contour>
      <point x="261" y="102" type="line" smooth="yes"/>
      <point x="265" y="105"/>
      <point x="269" y="111"/>
      <point x="271" y="115" type="curve" smooth="yes"/>
      <point x="303" y="186" type="line"/>
      <point x="356" y="256" type="line"/>
      <point x="424" y="330" type="line" smooth="yes"/>
      <point x="430" y="337"/>
      <point x="434" y="349"/>
      <point x="434" y="357" type="curve" smooth="yes"/>
      <point x="435" y="416" type="line"/>
      <point x="497" y="480" type="line" smooth="yes"/>
      <point x="498" y="481"/>
      <point x="499" y="482"/>
      <point x="500" y="483" type="curve" smooth="yes"/>
      <point x="560" y="558" type="line" smooth="yes"/>
      <point x="563" y="562"/>
      <point x="566" y="569"/>
      <point x="568" y="573" type="curve" smooth="yes"/>
      <point x="582" y="631" type="line"/>
      <point x="645" y="663" type="line"/>
      <point x="690" y="628" type="line"/>
      <point x="705" y="593" type="line"/>
      <point x="707" y="509" type="line"/>
      <point x="672" y="416" type="line" smooth="yes"/>
      <point x="670" y="411"/>
      <point x="669" y="402"/>
      <point x="670" y="396" type="curve" smooth="yes"/>
      <point x="685" y="300" type="line"/>
      <point x="681" y="214" type="line"/>
      <point x="634" y="140" type="line"/>
      <point x="590" y="69" type="line"/>
      <point x="530" y="42" type="line"/>
      <point x="332" y="42" type="line"/>
      <point x="222" y="66" type="line"/>
    </contour>
  </outline>
</glyph>
<glyph name="one" format="1">
  <advance width="784"/>
  <unicode hex="0031"/>
  <outline>
    <contour>
      <point x="128" y="-39" type="curve" smooth="yes"/>
      <point x="694" y="-39" type="line" smooth="yes"/>
      <point x="716" y="-39"/>
      <point x="734" y="-21"/>
      <point x="734" y="1" type="curve" smooth="yes"/>
      <point x="734" y="23"/>
      <point x="716" y="41"/>
      <point x="694" y="41" type="curve" smooth="yes"/>
      <point x="449" y="41" type="line"/>
      <point x="451" y="46"/>
      <point x="453" y="50"/>
      <point x="454" y="55" type="curve" smooth="yes"/>
      <point x="469" y="197" type="line" smooth="yes"/>
      <point x="469" y="201"/>
      <point x="469" y="208"/>
      <point x="467" y="212" type="curve" smooth="yes"/>
      <point x="444" y="294" type="line"/>
      <point x="501" y="379" type="line" smooth="yes"/>
      <point x="504" y="383"/>
      <point x="507" y="392"/>
      <point x="508" y="398" type="curve" smooth="yes"/>
      <point x="516" y="498" type="line" smooth="yes"/>
      <point x="517" y="506"/>
      <point x="513" y="517"/>
      <point x="509" y="524" type="curve" smooth="yes"/>
      <point x="453" y="603" type="line"/>
      <point x="497" y="681" type="line" smooth="yes"/>
      <point x="518" y="720"/>
      <point x="479" y="758"/>
      <point x="442" y="735" type="curve" smooth="yes"/>
      <point x="371" y="694" type="line" smooth="yes"/>
      <point x="368" y="692"/>
      <point x="363" y="687"/>
      <point x="361" y="684" type="curve" smooth="yes"/>
      <point x="331" y="647" type="line"/>
      <point x="222" y="641" type="line"/>
      <point x="90" y="641" type="line" smooth="yes"/>
      <point x="68" y="641"/>
      <point x="50" y="623"/>
      <point x="50" y="601" type="curve" smooth="yes"/>
      <point x="50" y="579"/>
      <point x="68" y="561"/>
      <point x="90" y="561" type="curve" smooth="yes"/>
      <point x="226" y="561" type="line"/>
      <point x="354" y="568" type="line" smooth="yes"/>
      <point x="360" y="568"/>
      <point x="368" y="572"/>
      <point x="375" y="576" type="curve"/>
      <point x="435" y="490" type="line"/>
      <point x="429" y="415" type="line"/>
      <point x="367" y="323" type="line" smooth="yes"/>
      <point x="361" y="315"/>
      <point x="359" y="300"/>
      <point x="362" y="290" type="curve" smooth="yes"/>
      <point x="388" y="197" type="line"/>
      <point x="377" y="87" type="line"/>
      <point x="287" y="47" type="line"/>
      <point x="193" y="41" type="line"/>
      <point x="128" y="41" type="line" smooth="yes"/>
      <point x="106" y="41"/>
      <point x="88" y="23"/>
      <point x="88" y="1" type="curve" smooth="yes"/>
      <point x="88" y="-21"/>
      <point x="106" y="-39"/>
    </contour>
  </outline>
</glyph>
<glyph name="two" format="1">
  <advance width="879"/>
  <unicode hex="0032"/>
  <outline>
    <contour>
      <point x="789" y="-40" type="line" smooth="yes"/>
      <point x="811" y="-40"/>
      <point x="829" y="-22"/>
      <point x="829" y="0" type="curve" smooth="yes"/>
      <point x="829" y="22"/>
      <point x="811" y="40"/>
      <point x="789" y="40" type="curve" smooth="yes"/>
      <point x="159" y="40" type="line"/>
      <point x="181" y="81" type="line" smooth="yes"/>
      <point x="184" y="85"/>
      <point x="186" y="93"/>
      <point x="186" y="99" type="curve" smooth="yes"/>
      <point x="189" y="190" type="line"/>
      <point x="256" y="319" type="line"/>
      <point x="289" y="354" type="line"/>
      <point x="365" y="360" type="line"/>
      <point x="464" y="360" type="line"/>
      <point x="530" y="360" type="line"/>
      <point x="665" y="367" type="line" smooth="yes"/>
      <point x="673" y="367"/>
      <point x="683" y="371"/>
      <point x="689" y="376" type="curve" smooth="yes"/>
      <point x="752" y="427" type="line" smooth="yes"/>
      <point x="763" y="436"/>
      <point x="769" y="453"/>
      <point x="766" y="466" type="curve" smooth="yes"/>
      <point x="742" y="582" type="line"/>
      <point x="794" y="619" type="line" smooth="yes"/>
      <point x="808" y="629"/>
      <point x="815" y="651"/>
      <point x="808" y="667" type="curve" smooth="yes"/>
      <point x="769" y="763" type="line" smooth="yes"/>
      <point x="765" y="773"/>
      <point x="753" y="784"/>
      <point x="742" y="787" type="curve" smooth="yes"/>
      <point x="558" y="839" type="line" smooth="yes"/>
      <point x="555" y="839"/>
      <point x="550" y="840"/>
      <point x="547" y="840" type="curve" smooth="yes"/>
      <point x="358" y="840" type="line"/>
      <point x="235" y="833" type="line" smooth="yes"/>
      <point x="221" y="832"/>
      <point x="205" y="820"/>
      <point x="200" y="807" type="curve" smooth="yes"/>
      <point x="181" y="755" type="line" smooth="yes"/>
      <point x="181" y="754"/>
      <point x="180" y="751"/>
      <point x="180" y="750" type="curve" smooth="yes"/>
      <point x="150" y="608" type="line" smooth="yes"/>
      <point x="145" y="587"/>
      <point x="160" y="565"/>
      <point x="181" y="561" type="curve" smooth="yes"/>
      <point x="202" y="556"/>
      <point x="224" y="571"/>
      <point x="228" y="592" type="curve" smooth="yes"/>
      <point x="258" y="731" type="line"/>
      <point x="266" y="755" type="line"/>
      <point x="358" y="760" type="line"/>
      <point x="541" y="760" type="line"/>
      <point x="702" y="715" type="line"/>
      <point x="722" y="666" type="line"/>
      <point x="675" y="633" type="line" smooth="yes"/>
      <point x="663" y="624"/>
      <point x="656" y="606"/>
      <point x="659" y="592" type="curve" smooth="yes"/>
      <point x="683" y="474" type="line"/>
      <point x="648" y="446" type="line"/>
      <point x="530" y="440" type="line"/>
      <point x="464" y="440" type="line"/>
      <point x="359" y="440" type="line"/>
      <point x="267" y="433" type="line" smooth="yes"/>
      <point x="258" y="432"/>
      <point x="246" y="426"/>
      <point x="240" y="420" type="curve" smooth="yes"/>
      <point x="193" y="368" type="line" smooth="yes"/>
      <point x="192" y="366"/>
      <point x="189" y="363"/>
      <point x="188" y="360" type="curve" smooth="yes"/>
      <point x="114" y="219" type="line" smooth="yes"/>
      <point x="111" y="214"/>
      <point x="109" y="206"/>
      <point x="109" y="201" type="curve" smooth="yes"/>
      <point x="106" y="111" type="line"/>
      <point x="56" y="19" type="line" smooth="yes"/>
      <point x="40" y="-10"/>
      <point x="58" y="-40"/>
      <point x="91" y="-40" type="curve" smooth="yes"/>
    </contour>
  </outline>
</glyph>
<glyph name="three" format="1">
  <advance width="839"/>
  <unicode hex="0033"/>
  <outline>
    <contour>
      <point x="282" y="-39" type="curve" smooth="yes"/>
      <point x="494" y="-39" type="line"/>
      <point x="625" y="-32" type="line" smooth="yes"/>
      <point x="634" y="-31"/>
      <point x="647" y="-25"/>
      <point x="653" y="-18" type="curve" smooth="yes"/>
      <point x="696" y="34" type="line" smooth="yes"/>
      <point x="699" y="38"/>
      <point x="703" y="47"/>
      <point x="704" y="52" type="curve" smooth="yes"/>
      <point x="728" y="185" type="line"/>
      <point x="782" y="261" type="line" smooth="yes"/>
      <point x="795" y="279"/>
      <point x="790" y="304"/>
      <point x="772" y="317" type="curve" smooth="yes"/>
      <point x="657" y="398" type="line" smooth="yes"/>
      <point x="654" y="400"/>
      <point x="648" y="402"/>
      <point x="645" y="403" type="curve" smooth="yes"/>
      <point x="635" y="406" type="line"/>
      <point x="638" y="408"/>
      <point x="641" y="411"/>
      <point x="643" y="413" type="curve" smooth="yes"/>
      <point x="702" y="494" type="line" smooth="yes"/>
      <point x="704" y="496"/>
      <point x="705" y="499"/>
      <point x="706" y="501" type="curve" smooth="yes"/>
      <point x="745" y="584" type="line" smooth="yes"/>
      <point x="748" y="590"/>
      <point x="749" y="599"/>
      <point x="749" y="605" type="curve" smooth="yes"/>
      <point x="734" y="747" type="line" smooth="yes"/>
      <point x="733" y="757"/>
      <point x="725" y="769"/>
      <point x="717" y="775" type="curve" smooth="yes"/>
      <point x="647" y="826" type="line" smooth="yes"/>
      <point x="642" y="830"/>
      <point x="632" y="834"/>
      <point x="626" y="834" type="curve" smooth="yes"/>
      <point x="524" y="841" type="line" smooth="yes"/>
      <point x="523" y="841"/>
      <point x="522" y="841"/>
      <point x="521" y="841" type="curve" smooth="yes"/>
      <point x="303" y="841" type="line" smooth="yes"/>
      <point x="299" y="841"/>
      <point x="292" y="840"/>
      <point x="288" y="838" type="curve" smooth="yes"/>
      <point x="197" y="802" type="line" smooth="yes"/>
      <point x="193" y="801"/>
      <point x="187" y="797"/>
      <point x="183" y="794" type="curve" smooth="yes"/>
      <point x="101" y="713" type="line" smooth="yes"/>
      <point x="96" y="708"/>
      <point x="90" y="697"/>
      <point x="89" y="690" type="curve" smooth="yes"/>
      <point x="78" y="606" type="line" smooth="yes"/>
      <point x="76" y="585"/>
      <point x="91" y="564"/>
      <point x="113" y="561" type="curve" smooth="yes"/>
      <point x="134" y="559"/>
      <point x="155" y="574"/>
      <point x="158" y="596" type="curve" smooth="yes"/>
      <point x="167" y="665" type="line"/>
      <point x="234" y="731" type="line"/>
      <point x="311" y="761" type="line"/>
      <point x="520" y="761" type="line"/>
      <point x="609" y="755" type="line"/>
      <point x="656" y="721" type="line"/>
      <point x="668" y="608" type="line"/>
      <point x="635" y="538" type="line"/>
      <point x="587" y="472" type="line"/>
      <point x="478" y="441" type="line"/>
      <point x="453" y="441" type="line"/>
      <point x="453" y="361" type="line"/>
      <point x="506" y="361" type="line"/>
      <point x="616" y="328" type="line"/>
      <point x="693" y="275" type="line"/>
      <point x="657" y="224" type="line" smooth="yes"/>
      <point x="654" y="220"/>
      <point x="651" y="213"/>
      <point x="651" y="208" type="curve" smooth="yes"/>
      <point x="627" y="77" type="line"/>
      <point x="603" y="47" type="line"/>
      <point x="490" y="41" type="line"/>
      <point x="289" y="41" type="line"/>
      <point x="199" y="71" type="line"/>
      <point x="149" y="136" type="line"/>
      <point x="129" y="212" type="line" smooth="yes"/>
      <point x="123" y="232"/>
      <point x="100" y="245"/>
      <point x="79" y="240" type="curve" smooth="yes"/>
      <point x="59" y="234"/>
      <point x="46" y="211"/>
      <point x="51" y="190" type="curve" smooth="yes"/>
      <point x="74" y="107" type="line" smooth="yes"/>
      <point x="76" y="103"/>
      <point x="79" y="97"/>
      <point x="81" y="93" type="curve" smooth="yes"/>
      <point x="143" y="13" type="line" smooth="yes"/>
      <point x="147" y="7"/>
      <point x="155" y="1"/>
      <point x="162" y="-1" type="curve" smooth="yes"/>
      <point x="269" y="-37" type="line" smooth="yes"/>
      <point x="273" y="-38"/>
      <point x="278" y="-39"/>
    </contour>
  </outline>
</glyph>
<glyph name="four" format="1">
  <advance width="872"/>
  <unicode hex="0034"/>
  <outline>
    <contour>
      <point x="768" y="-7" type="curve" smooth="yes"/>
      <point x="789" y="93" type="line" smooth="yes"/>
      <point x="790" y="95"/>
      <point x="790" y="99"/>
      <point x="790" y="101" type="curve" smooth="yes"/>
      <point x="790" y="198" type="line"/>
      <point x="801" y="296" type="line" smooth="yes"/>
      <point x="801" y="302"/>
      <point x="800" y="312"/>
      <point x="797" y="317" type="curve" smooth="yes"/>
      <point x="761" y="397" type="line"/>
      <point x="815" y="478" type="line" smooth="yes"/>
      <point x="823" y="489"/>
      <point x="824" y="508"/>
      <point x="817" y="520" type="curve" smooth="yes"/>
      <point x="761" y="620" type="line" smooth="yes"/>
      <point x="750" y="638"/>
      <point x="725" y="645"/>
      <point x="706" y="635" type="curve" smooth="yes"/>
      <point x="688" y="624"/>
      <point x="681" y="599"/>
      <point x="691" y="580" type="curve" smooth="yes"/>
      <point x="735" y="502" type="line"/>
      <point x="682" y="423" type="line" smooth="yes"/>
      <point x="675" y="412"/>
      <point x="673" y="395"/>
      <point x="679" y="384" type="curve" smooth="yes"/>
      <point x="718" y="299" type="line"/>
      <point x="715" y="301"/>
      <point x="712" y="302"/>
      <point x="709" y="303" type="curve" smooth="yes"/>
      <point x="567" y="339" type="line" smooth="yes"/>
      <point x="564" y="339"/>
      <point x="560" y="340"/>
      <point x="557" y="340" type="curve" smooth="yes"/>
      <point x="220" y="340" type="line"/>
      <point x="235" y="350" type="line" smooth="yes"/>
      <point x="241" y="354"/>
      <point x="247" y="363"/>
      <point x="249" y="369" type="curve" smooth="yes"/>
      <point x="277" y="444" type="line"/>
      <point x="356" y="521" type="line" smooth="yes"/>
      <point x="361" y="526"/>
      <point x="366" y="535"/>
      <point x="367" y="542" type="curve" smooth="yes"/>
      <point x="381" y="612" type="line"/>
      <point x="467" y="686" type="line" smooth="yes"/>
      <point x="479" y="697"/>
      <point x="484" y="717"/>
      <point x="478" y="732" type="curve" smooth="yes"/>
      <point x="444" y="815" type="line" smooth="yes"/>
      <point x="436" y="835"/>
      <point x="412" y="845"/>
      <point x="392" y="837" type="curve" smooth="yes"/>
      <point x="372" y="829"/>
      <point x="362" y="805"/>
      <point x="370" y="785" type="curve" smooth="yes"/>
      <point x="393" y="728" type="line"/>
      <point x="319" y="664" type="line" smooth="yes"/>
      <point x="313" y="659"/>
      <point x="307" y="649"/>
      <point x="306" y="641" type="curve" smooth="yes"/>
      <point x="291" y="570" type="line"/>
      <point x="215" y="495" type="line" smooth="yes"/>
      <point x="211" y="492"/>
      <point x="207" y="485"/>
      <point x="206" y="481" type="curve" smooth="yes"/>
      <point x="179" y="409" type="line"/>
      <point x="69" y="333" type="line" smooth="yes"/>
      <point x="34" y="309"/>
      <point x="50" y="260"/>
      <point x="92" y="260" type="curve" smooth="yes"/>
      <point x="552" y="260" type="line"/>
      <point x="656" y="234" type="line"/>
      <point x="652" y="187" type="line" smooth="yes"/>
      <point x="652" y="184"/>
      <point x="652" y="179"/>
      <point x="653" y="176" type="curve" smooth="yes"/>
      <point x="669" y="92" type="line" smooth="yes"/>
      <point x="672" y="76"/>
      <point x="685" y="64"/>
      <point x="701" y="61" type="curve"/>
      <point x="690" y="9" type="line" smooth="yes"/>
      <point x="685" y="-12"/>
      <point x="700" y="-34"/>
      <point x="721" y="-38" type="curve" smooth="yes"/>
      <point x="742" y="-43"/>
      <point x="764" y="-28"/>
    </contour>
  </outline>
</glyph>
<glyph name="five" format="1">
  <advance width="812"/>
  <unicode hex="0035"/>
  <outline>
    <contour>
      <point x="343" y="-39" type="curve" smooth="yes"/>
      <point x="525" y="-39" type="line" smooth="yes"/>
      <point x="527" y="-39"/>
      <point x="530" y="-39"/>
      <point x="532" y="-38" type="curve" smooth="yes"/>
      <point x="570" y="-31" type="line" smooth="yes"/>
      <point x="571" y="-31"/>
      <point x="573" y="-31"/>
      <point x="575" y="-30" type="curve" smooth="yes"/>
      <point x="734" y="21" type="line" smooth="yes"/>
      <point x="751" y="27"/>
      <point x="763" y="45"/>
      <point x="762" y="63" type="curve" smooth="yes"/>
      <point x="750" y="201" type="line"/>
      <point x="759" y="280" type="line" smooth="yes"/>
      <point x="760" y="292"/>
      <point x="753" y="308"/>
      <point x="744" y="316" type="curve" smooth="yes"/>
      <point x="641" y="396" type="line" smooth="yes"/>
      <point x="640" y="398"/>
      <point x="637" y="399"/>
      <point x="635" y="400" type="curve" smooth="yes"/>
      <point x="565" y="437" type="line" smooth="yes"/>
      <point x="561" y="439"/>
      <point x="552" y="441"/>
      <point x="547" y="441" type="curve" smooth="yes"/>
      <point x="184" y="441" type="line"/>
      <point x="142" y="513" type="line"/>
      <point x="138" y="595" type="line"/>
      <point x="160" y="661" type="line"/>
      <point x="250" y="734" type="line"/>
      <point x="282" y="761" type="line"/>
      <point x="720" y="761" type="line" smooth="yes"/>
      <point x="742" y="761"/>
      <point x="760" y="779"/>
      <point x="760" y="801" type="curve" smooth="yes"/>
      <point x="760" y="823"/>
      <point x="742" y="841"/>
      <point x="720" y="841" type="curve" smooth="yes"/>
      <point x="268" y="841" type="line" smooth="yes"/>
      <point x="260" y="841"/>
      <point x="249" y="837"/>
      <point x="243" y="832" type="curve" smooth="yes"/>
      <point x="199" y="796" type="line"/>
      <point x="101" y="715" type="line" smooth="yes"/>
      <point x="96" y="711"/>
      <point x="90" y="703"/>
      <point x="88" y="697" type="curve" smooth="yes"/>
      <point x="60" y="614" type="line" smooth="yes"/>
      <point x="59" y="610"/>
      <point x="58" y="603"/>
      <point x="58" y="599" type="curve" smooth="yes"/>
      <point x="63" y="499" type="line" smooth="yes"/>
      <point x="63" y="494"/>
      <point x="66" y="486"/>
      <point x="68" y="481" type="curve" smooth="yes"/>
      <point x="126" y="381" type="line" smooth="yes"/>
      <point x="133" y="370"/>
      <point x="148" y="361"/>
      <point x="161" y="361" type="curve" smooth="yes"/>
      <point x="537" y="361" type="line"/>
      <point x="595" y="331" type="line"/>
      <point x="677" y="267" type="line"/>
      <point x="670" y="205" type="line" smooth="yes"/>
      <point x="670" y="203"/>
      <point x="670" y="200"/>
      <point x="670" y="198" type="curve" smooth="yes"/>
      <point x="679" y="88" type="line"/>
      <point x="553" y="47" type="line"/>
      <point x="521" y="41" type="line"/>
      <point x="347" y="41" type="line"/>
      <point x="180" y="74" type="line"/>
      <point x="130" y="132" type="line"/>
      <point x="130" y="201" type="line" smooth="yes"/>
      <point x="130" y="223"/>
      <point x="112" y="241"/>
      <point x="90" y="241" type="curve" smooth="yes"/>
      <point x="68" y="241"/>
      <point x="50" y="223"/>
      <point x="50" y="201" type="curve" smooth="yes"/>
      <point x="50" y="118" type="line" smooth="yes"/>
      <point x="50" y="109"/>
      <point x="54" y="98"/>
      <point x="59" y="92" type="curve" smooth="yes"/>
      <point x="128" y="11" type="line" smooth="yes"/>
      <point x="133" y="5"/>
      <point x="143" y="-1"/>
      <point x="151" y="-2" type="curve" smooth="yes"/>
      <point x="335" y="-38" type="line" smooth="yes"/>
      <point x="337" y="-39"/>
      <point x="341" y="-39"/>
    </contour>
  </outline>
</glyph>
<glyph name="six" format="1">
  <advance width="825"/>
  <unicode hex="0036"/>
  <outline>
    <contour>
      <point x="337" y="-39" type="curve" smooth="yes"/>
      <point x="542" y="-39" type="line" smooth="yes"/>
      <point x="543" y="-39"/>
      <point x="545" y="-39"/>
      <point x="546" y="-39" type="curve" smooth="yes"/>
      <point x="612" y="-32" type="line" smooth="yes"/>
      <point x="615" y="-31"/>
      <point x="620" y="-30"/>
      <point x="622" y="-29" type="curve" smooth="yes"/>
      <point x="750" y="22" type="line" smooth="yes"/>
      <point x="768" y="30"/>
      <point x="779" y="51"/>
      <point x="773" y="70" type="curve" smooth="yes"/>
      <point x="736" y="200" type="line"/>
      <point x="759" y="272" type="line" smooth="yes"/>
      <point x="762" y="282"/>
      <point x="760" y="297"/>
      <point x="755" y="306" type="curve" smooth="yes"/>
      <point x="703" y="386" type="line" smooth="yes"/>
      <point x="700" y="392"/>
      <point x="691" y="399"/>
      <point x="685" y="402" type="curve" smooth="yes"/>
      <point x="597" y="438" type="line" smooth="yes"/>
      <point x="593" y="440"/>
      <point x="586" y="441"/>
      <point x="582" y="441" type="curve" smooth="yes"/>
      <point x="331" y="441" type="line"/>
      <point x="260" y="471" type="line"/>
      <point x="200" y="536" type="line"/>
      <point x="194" y="571" type="line"/>
      <point x="199" y="576" type="line" smooth="yes"/>
      <point x="205" y="585"/>
      <point x="209" y="601"/>
      <point x="206" y="612" type="curve" smooth="yes"/>
      <point x="185" y="685" type="line"/>
      <point x="196" y="731" type="line"/>
      <point x="351" y="761" type="line"/>
      <point x="566" y="761" type="line"/>
      <point x="635" y="755" type="line"/>
      <point x="679" y="722" type="line"/>
      <point x="684" y="599" type="line" smooth="yes"/>
      <point x="685" y="578"/>
      <point x="704" y="560"/>
      <point x="726" y="561" type="curve" smooth="yes"/>
      <point x="747" y="562"/>
      <point x="765" y="581"/>
      <point x="764" y="603" type="curve" smooth="yes"/>
      <point x="758" y="744" type="line" smooth="yes"/>
      <point x="757" y="755"/>
      <point x="750" y="768"/>
      <point x="742" y="775" type="curve" smooth="yes"/>
      <point x="673" y="826" type="line" smooth="yes"/>
      <point x="668" y="830"/>
      <point x="659" y="833"/>
      <point x="653" y="834" type="curve" smooth="yes"/>
      <point x="571" y="841" type="line" smooth="yes"/>
      <point x="570" y="841"/>
      <point x="569" y="841"/>
      <point x="568" y="841" type="curve" smooth="yes"/>
      <point x="347" y="841" type="line" smooth="yes"/>
      <point x="345" y="841"/>
      <point x="341" y="841"/>
      <point x="339" y="840" type="curve" smooth="yes"/>
      <point x="155" y="804" type="line" smooth="yes"/>
      <point x="141" y="801"/>
      <point x="127" y="788"/>
      <point x="123" y="774" type="curve" smooth="yes"/>
      <point x="105" y="693" type="line" smooth="yes"/>
      <point x="104" y="688"/>
      <point x="104" y="679"/>
      <point x="105" y="674" type="curve" smooth="yes"/>
      <point x="118" y="626" type="line"/>
      <point x="111" y="618"/>
      <point x="108" y="606"/>
      <point x="109" y="595" type="curve" smooth="yes"/>
      <point x="110" y="593" type="line"/>
      <point x="57" y="526" type="line" smooth="yes"/>
      <point x="49" y="515"/>
      <point x="47" y="497"/>
      <point x="53" y="484" type="curve" smooth="yes"/>
      <point x="92" y="399" type="line"/>
      <point x="60" y="315" type="line" smooth="yes"/>
      <point x="57" y="305"/>
      <point x="58" y="291"/>
      <point x="63" y="282" type="curve" smooth="yes"/>
      <point x="112" y="192" type="line"/>
      <point x="107" y="120" type="line" smooth="yes"/>
      <point x="106" y="110"/>
      <point x="111" y="97"/>
      <point x="118" y="90" type="curve" smooth="yes"/>
      <point x="198" y="9" type="line" smooth="yes"/>
      <point x="202" y="5"/>
      <point x="209" y="1"/>
      <point x="214" y="-1" type="curve" smooth="yes"/>
      <point x="325" y="-37" type="line" smooth="yes"/>
      <point x="328" y="-38"/>
      <point x="333" y="-39"/>
    </contour>
    <contour>
      <point x="193" y="198" type="line" smooth="yes"/>
      <point x="193" y="205"/>
      <point x="191" y="215"/>
      <point x="188" y="220" type="curve" smooth="yes"/>
      <point x="142" y="304" type="line"/>
      <point x="173" y="387" type="line" smooth="yes"/>
      <point x="176" y="396"/>
      <point x="175" y="409"/>
      <point x="171" y="418" type="curve" smooth="yes"/>
      <point x="143" y="479" type="line"/>
      <point x="207" y="410" type="line" smooth="yes"/>
      <point x="210" y="406"/>
      <point x="217" y="402"/>
      <point x="221" y="400" type="curve" smooth="yes"/>
      <point x="308" y="364" type="line" smooth="yes"/>
      <point x="312" y="362"/>
      <point x="319" y="361"/>
      <point x="323" y="361" type="curve" smooth="yes"/>
      <point x="574" y="361" type="line"/>
      <point x="643" y="333" type="line"/>
      <point x="677" y="279" type="line"/>
      <point x="656" y="213" type="line" smooth="yes"/>
      <point x="654" y="207"/>
      <point x="654" y="196"/>
      <point x="656" y="190" type="curve" smooth="yes"/>
      <point x="686" y="83" type="line"/>
      <point x="598" y="47" type="line"/>
      <point x="540" y="41" type="line"/>
      <point x="343" y="41" type="line"/>
      <point x="248" y="72" type="line"/>
      <point x="188" y="133" type="line"/>
    </contour>
  </outline>
</glyph>
<glyph name="seven" format="1">
  <advance width="757"/>
  <unicode hex="0037"/>
  <outline>
    <contour>
      <point x="308" y="-26" type="curve" smooth="yes"/>
      <point x="370" y="59" type="line" smooth="yes"/>
      <point x="374" y="65"/>
      <point x="378" y="75"/>
      <point x="378" y="81" type="curve" smooth="yes"/>
      <point x="380" y="147" type="line"/>
      <point x="486" y="221" type="line" smooth="yes"/>
      <point x="491" y="225"/>
      <point x="498" y="233"/>
      <point x="500" y="239" type="curve" smooth="yes"/>
      <point x="533" y="320" type="line"/>
      <point x="597" y="401" type="line" smooth="yes"/>
      <point x="603" y="410"/>
      <point x="607" y="426"/>
      <point x="604" y="436" type="curve" smooth="yes"/>
      <point x="587" y="494" type="line"/>
      <point x="689" y="564" type="line" smooth="yes"/>
      <point x="705" y="575"/>
      <point x="711" y="597"/>
      <point x="703" y="614" type="curve" smooth="yes"/>
      <point x="665" y="693" type="line"/>
      <point x="649" y="769" type="line" smooth="yes"/>
      <point x="646" y="783"/>
      <point x="632" y="797"/>
      <point x="618" y="800" type="curve" smooth="yes"/>
      <point x="448" y="836" type="line" smooth="yes"/>
      <point x="446" y="837"/>
      <point x="442" y="837"/>
      <point x="440" y="837" type="curve" smooth="yes"/>
      <point x="90" y="837" type="line" smooth="yes"/>
      <point x="68" y="837"/>
      <point x="50" y="819"/>
      <point x="50" y="797" type="curve" smooth="yes"/>
      <point x="50" y="775"/>
      <point x="68" y="757"/>
      <point x="90" y="757" type="curve" smooth="yes"/>
      <point x="436" y="757" type="line"/>
      <point x="576" y="727" type="line"/>
      <point x="588" y="672" type="line" smooth="yes"/>
      <point x="589" y="670"/>
      <point x="590" y="666"/>
      <point x="591" y="663" type="curve" smooth="yes"/>
      <point x="616" y="611" type="line"/>
      <point x="519" y="544" type="line" smooth="yes"/>
      <point x="505" y="535"/>
      <point x="498" y="516"/>
      <point x="502" y="501" type="curve" smooth="yes"/>
      <point x="521" y="434" type="line"/>
      <point x="466" y="364" type="line" smooth="yes"/>
      <point x="465" y="362"/>
      <point x="462" y="358"/>
      <point x="461" y="355" type="curve" smooth="yes"/>
      <point x="430" y="280" type="line"/>
      <point x="318" y="201" type="line" smooth="yes"/>
      <point x="309" y="195"/>
      <point x="301" y="181"/>
      <point x="301" y="170" type="curve" smooth="yes"/>
      <point x="298" y="96" type="line"/>
      <point x="244" y="20" type="line" smooth="yes"/>
      <point x="231" y="3"/>
      <point x="235" y="-23"/>
      <point x="253" y="-35" type="curve" smooth="yes"/>
      <point x="270" y="-48"/>
      <point x="296" y="-44"/>
    </contour>
  </outline>
</glyph>
<glyph name="eight" format="1">
  <advance width="849"/>
  <unicode hex="0038"/>
  <outline>
    <contour>
      <point x="295" y="-40" type="curve" smooth="yes"/>
      <point x="465" y="-40" type="line"/>
      <point x="504" y="-40" type="line"/>
      <point x="587" y="-33" type="line" smooth="yes"/>
      <point x="591" y="-33"/>
      <point x="597" y="-31"/>
      <point x="601" y="-29" type="curve" smooth="yes"/>
      <point x="705" y="23" type="line" smooth="yes"/>
      <point x="714" y="27"/>
      <point x="723" y="38"/>
      <point x="726" y="48" type="curve" smooth="yes"/>
      <point x="764" y="190" type="line" smooth="yes"/>
      <point x="766" y="198"/>
      <point x="765" y="210"/>
      <point x="761" y="217" type="curve" smooth="yes"/>
      <point x="724" y="294" type="line"/>
      <point x="717" y="368" type="line" smooth="yes"/>
      <point x="716" y="383"/>
      <point x="702" y="399"/>
      <point x="687" y="403" type="curve" smooth="yes"/>
      <point x="677" y="405" type="line"/>
      <point x="705" y="427" type="line" smooth="yes"/>
      <point x="708" y="430"/>
      <point x="713" y="435"/>
      <point x="715" y="439" type="curve" smooth="yes"/>
      <point x="795" y="580" type="line" smooth="yes"/>
      <point x="801" y="591"/>
      <point x="801" y="609"/>
      <point x="795" y="620" type="curve" smooth="yes"/>
      <point x="751" y="695" type="line"/>
      <point x="748" y="766" type="line" smooth="yes"/>
      <point x="747" y="783"/>
      <point x="733" y="799"/>
      <point x="716" y="803" type="curve" smooth="yes"/>
      <point x="557" y="839" type="line" smooth="yes"/>
      <point x="554" y="840"/>
      <point x="550" y="840"/>
      <point x="548" y="840" type="curve" smooth="yes"/>
      <point x="293" y="840" type="line" smooth="yes"/>
      <point x="286" y="840"/>
      <point x="275" y="836"/>
      <point x="269" y="832" type="curve" smooth="yes"/>
      <point x="263" y="827" type="line"/>
      <point x="161" y="778" type="line" smooth="yes"/>
      <point x="148" y="771"/>
      <point x="138" y="755"/>
      <point x="138" y="741" type="curve" smooth="yes"/>
      <point x="141" y="612" type="line"/>
      <point x="93" y="539" type="line" smooth="yes"/>
      <point x="84" y="525"/>
      <point x="85" y="504"/>
      <point x="95" y="491" type="curve" smooth="yes"/>
      <point x="163" y="410" type="line" smooth="yes"/>
      <point x="164" y="409"/>
      <point x="165" y="408"/>
      <point x="166" y="407" type="curve"/>
      <point x="108" y="377" type="line" smooth="yes"/>
      <point x="99" y="373"/>
      <point x="90" y="361"/>
      <point x="87" y="352" type="curve" smooth="yes"/>
      <point x="51" y="210" type="line" smooth="yes"/>
      <point x="49" y="200"/>
      <point x="52" y="185"/>
      <point x="58" y="177" type="curve" smooth="yes"/>
      <point x="117" y="93" type="line" smooth="yes"/>
      <point x="119" y="92"/>
      <point x="120" y="90"/>
      <point x="122" y="88" type="curve" smooth="yes"/>
      <point x="202" y="8" type="line" smooth="yes"/>
      <point x="204" y="6"/>
      <point x="208" y="3"/>
      <point x="211" y="1" type="curve" smooth="yes"/>
      <point x="276" y="-35" type="line" smooth="yes"/>
      <point x="281" y="-38"/>
      <point x="289" y="-40"/>
    </contour>
    <contour>
      <point x="524" y="440" type="curve" smooth="yes"/>
      <point x="308" y="440" type="line"/>
      <point x="217" y="470" type="line"/>
      <point x="176" y="519" type="line"/>
      <point x="214" y="578" type="line" smooth="yes"/>
      <point x="218" y="584"/>
      <point x="221" y="594"/>
      <point x="221" y="601" type="curve" smooth="yes"/>
      <point x="219" y="717" type="line"/>
      <point x="301" y="757" type="line" smooth="yes"/>
      <point x="303" y="758"/>
      <point x="305" y="759"/>
      <point x="306" y="760" type="curve"/>
      <point x="544" y="760" type="line"/>
      <point x="669" y="732" type="line"/>
      <point x="672" y="681" type="line" smooth="yes"/>
      <point x="672" y="676"/>
      <point x="675" y="668"/>
      <point x="677" y="663" type="curve" smooth="yes"/>
      <point x="714" y="600" type="line"/>
      <point x="649" y="485" type="line"/>
      <point x="599" y="446" type="line"/>
      <point x="537" y="440" type="line" smooth="yes"/>
      <point x="536" y="440"/>
      <point x="534" y="439"/>
      <point x="533" y="439" type="curve"/>
      <point x="530" y="440"/>
      <point x="526" y="440"/>
    </contour>
    <contour>
      <point x="498" y="40" type="line"/>
      <point x="465" y="40" type="line"/>
      <point x="305" y="40" type="line"/>
      <point x="255" y="68" type="line"/>
      <point x="181" y="143" type="line"/>
      <point x="133" y="208" type="line"/>
      <point x="160" y="314" type="line"/>
      <point x="239" y="354" type="line"/>
      <point x="290" y="360" type="line"/>
      <point x="519" y="360" type="line"/>
      <point x="640" y="332" type="line"/>
      <point x="645" y="280" type="line" smooth="yes"/>
      <point x="646" y="276"/>
      <point x="647" y="270"/>
      <point x="649" y="266" type="curve" smooth="yes"/>
      <point x="683" y="196" type="line"/>
      <point x="653" y="86" type="line"/>
      <point x="572" y="46" type="line"/>
    </contour>
  </outline>
</glyph>
<glyph name="nine" format="1">
  <advance width="859"/>
  <unicode hex="0039"/>
  <outline>
    <contour>
      <point x="560" y="439" type="line" smooth="yes"/>
      <point x="557" y="440"/>
      <point x="553" y="440"/>
      <point x="551" y="440" type="curve" smooth="yes"/>
      <point x="365" y="440" type="line"/>
      <point x="243" y="472" type="line"/>
      <point x="181" y="542" type="line"/>
      <point x="136" y="604" type="line"/>
      <point x="197" y="721" type="line"/>
      <point x="220" y="754" type="line"/>
      <point x="315" y="760" type="line"/>
      <point x="510" y="760" type="line"/>
      <point x="641" y="729" type="line"/>
      <point x="678" y="674" type="line"/>
      <point x="669" y="605" type="line" smooth="yes"/>
      <point x="668" y="599"/>
      <point x="670" y="588"/>
      <point x="673" y="582" type="curve" smooth="yes"/>
      <point x="716" y="496" type="line"/>
      <point x="691" y="411" type="line" smooth="yes"/>
      <point x="691" y="411"/>
      <point x="690" y="410"/>
      <point x="690" y="409" type="curve"/>
    </contour>
    <contour>
      <point x="357" y="-40" type="curve" smooth="yes"/>
      <point x="490" y="-40" type="line" smooth="yes"/>
      <point x="492" y="-40"/>
      <point x="496" y="-40"/>
      <point x="498" y="-39" type="curve" smooth="yes"/>
      <point x="671" y="-3" type="line" smooth="yes"/>
      <point x="676" y="-2"/>
      <point x="683" y="1"/>
      <point x="687" y="4" type="curve" smooth="yes"/>
      <point x="793" y="85" type="line" smooth="yes"/>
      <point x="805" y="94"/>
      <point x="811" y="112"/>
      <point x="808" y="126" type="curve" smooth="yes"/>
      <point x="786" y="212" type="line"/>
      <point x="780" y="231" type="line"/>
      <point x="798" y="265" type="line" smooth="yes"/>
      <point x="803" y="277"/>
      <point x="802" y="295"/>
      <point x="796" y="305" type="curve" smooth="yes"/>
      <point x="764" y="354" type="line"/>
      <point x="768" y="392" type="line"/>
      <point x="797" y="489" type="line" smooth="yes"/>
      <point x="800" y="497"/>
      <point x="799" y="510"/>
      <point x="795" y="518" type="curve" smooth="yes"/>
      <point x="750" y="607" type="line"/>
      <point x="760" y="678" type="line" smooth="yes"/>
      <point x="761" y="686"/>
      <point x="758" y="699"/>
      <point x="753" y="706" type="curve" smooth="yes"/>
      <point x="699" y="786" type="line" smooth="yes"/>
      <point x="694" y="793"/>
      <point x="683" y="801"/>
      <point x="675" y="803" type="curve" smooth="yes"/>
      <point x="524" y="839" type="line" smooth="yes"/>
      <point x="522" y="840"/>
      <point x="518" y="840"/>
      <point x="515" y="840" type="curve" smooth="yes"/>
      <point x="311" y="840" type="line"/>
      <point x="196" y="833" type="line" smooth="yes"/>
      <point x="185" y="832"/>
      <point x="172" y="825"/>
      <point x="166" y="816" type="curve" smooth="yes"/>
      <point x="130" y="764" type="line" smooth="yes"/>
      <point x="129" y="763"/>
      <point x="128" y="761"/>
      <point x="128" y="760" type="curve" smooth="yes"/>
      <point x="54" y="619" type="line" smooth="yes"/>
      <point x="47" y="606"/>
      <point x="49" y="587"/>
      <point x="57" y="576" type="curve" smooth="yes"/>
      <point x="118" y="493" type="line" smooth="yes"/>
      <point x="118" y="492"/>
      <point x="119" y="491"/>
      <point x="120" y="490" type="curve" smooth="yes"/>
      <point x="191" y="410" type="line" smooth="yes"/>
      <point x="196" y="405"/>
      <point x="205" y="399"/>
      <point x="211" y="397" type="curve" smooth="yes"/>
      <point x="350" y="361" type="line" smooth="yes"/>
      <point x="353" y="361"/>
      <point x="357" y="360"/>
      <point x="360" y="360" type="curve" smooth="yes"/>
      <point x="547" y="360" type="line"/>
      <point x="680" y="330" type="line"/>
      <point x="677" y="305" type="line" smooth="yes"/>
      <point x="677" y="300"/>
      <point x="677" y="293"/>
      <point x="679" y="288" type="curve" smooth="yes"/>
      <point x="694" y="238" type="line"/>
      <point x="684" y="218" type="line" smooth="yes"/>
      <point x="675" y="199"/>
      <point x="683" y="174"/>
      <point x="702" y="164" type="curve" smooth="yes"/>
      <point x="707" y="162"/>
      <point x="712" y="161"/>
      <point x="717" y="160" type="curve"/>
      <point x="724" y="133" type="line"/>
      <point x="646" y="73" type="line"/>
      <point x="486" y="40" type="line"/>
      <point x="358" y="40" type="line"/>
      <point x="268" y="46" type="line"/>
      <point x="177" y="86" type="line"/>
      <point x="165" y="204" type="line" smooth="yes"/>
      <point x="162" y="226"/>
      <point x="142" y="242"/>
      <point x="121" y="240" type="curve" smooth="yes"/>
      <point x="99" y="237"/>
      <point x="83" y="217"/>
      <point x="85" y="196" type="curve" smooth="yes"/>
      <point x="100" y="54" type="line" smooth="yes"/>
      <point x="102" y="41"/>
      <point x="112" y="27"/>
      <point x="124" y="22" type="curve" smooth="yes"/>
      <point x="243" y="-30" type="line" smooth="yes"/>
      <point x="246" y="-31"/>
      <point x="252" y="-33"/>
      <point x="256" y="-33" type="curve" smooth="yes"/>
      <point x="354" y="-40" type="line" smooth="yes"/>
      <point x="355" y="-40"/>
      <point x="356" y="-40"/>
    </contour>
  </outline>
</glyph>
<glyph name="colon" format="1">
  <advance width="190"/>
  <unicode hex="003A"/>
  <outline>
    <contour>
      <point x="90" y="543" type="curve" smooth="yes"/>
      <point x="111" y="541"/>
      <point x="131" y="557"/>
      <point x="134" y="579" type="curve" smooth="yes"/>
      <point x="135" y="588" type="line" smooth="yes"/>
      <point x="137" y="609"/>
      <point x="121" y="629"/>
      <point x="99" y="632" type="curve" smooth="yes"/>
      <point x="78" y="634"/>
      <point x="58" y="618"/>
      <point x="55" y="596" type="curve" smooth="yes"/>
      <point x="54" y="587" type="line" smooth="yes"/>
      <point x="52" y="566"/>
      <point x="68" y="546"/>
    </contour>
    <contour>
      <point x="137" y="-14" type="curve" smooth="yes"/>
      <point x="145" y="6"/>
      <point x="135" y="30"/>
      <point x="115" y="38" type="curve" smooth="yes"/>
      <point x="105" y="42" type="line" smooth="yes"/>
      <point x="85" y="50"/>
      <point x="61" y="40"/>
      <point x="53" y="20" type="curve" smooth="yes"/>
      <point x="45" y="0"/>
      <point x="55" y="-24"/>
      <point x="75" y="-32" type="curve" smooth="yes"/>
      <point x="85" y="-36" type="line" smooth="yes"/>
      <point x="105" y="-44"/>
      <point x="129" y="-34"/>
    </contour>
  </outline>
</glyph>
<glyph name="semicolon" format="1">
  <advance width="243"/>
  <unicode hex="003B"/>
  <outline>
    <contour>
      <point x="192" y="572" type="curve" smooth="yes"/>
      <point x="197" y="593"/>
      <point x="184" y="616"/>
      <point x="164" y="622" type="curve" smooth="yes"/>
      <point x="131" y="631" type="line" smooth="yes"/>
      <point x="110" y="636"/>
      <point x="87" y="623"/>
      <point x="81" y="603" type="curve" smooth="yes"/>
      <point x="76" y="582"/>
      <point x="89" y="559"/>
      <point x="109" y="553" type="curve" smooth="yes"/>
      <point x="142" y="544" type="line" smooth="yes"/>
      <point x="163" y="539"/>
      <point x="186" y="552"/>
    </contour>
    <contour>
      <point x="90" y="-48" type="curve" smooth="yes"/>
      <point x="115" y="-48" type="line" smooth="yes"/>
      <point x="131" y="-48"/>
      <point x="148" y="-36"/>
      <point x="153" y="-21" type="curve" smooth="yes"/>
      <point x="187" y="79" type="line" smooth="yes"/>
      <point x="189" y="86"/>
      <point x="189" y="97"/>
      <point x="187" y="104" type="curve" smooth="yes"/>
      <point x="155" y="204" type="line" smooth="yes"/>
      <point x="149" y="225"/>
      <point x="125" y="237"/>
      <point x="105" y="230" type="curve" smooth="yes"/>
      <point x="84" y="224"/>
      <point x="72" y="200"/>
      <point x="79" y="180" type="curve" smooth="yes"/>
      <point x="107" y="92" type="line"/>
      <point x="86" y="32" type="line"/>
      <point x="68" y="32"/>
      <point x="50" y="14"/>
      <point x="50" y="-8" type="curve" smooth="yes"/>
      <point x="50" y="-30"/>
      <point x="68" y="-48"/>
    </contour>
  </outline>
</glyph>
<glyph name="less" format="1">
  <advance width="554"/>
  <unicode hex="003C"/>
  <outline>
    <contour>
      <point x="502" y="91" type="curve" smooth="yes"/>
      <point x="509" y="111"/>
      <point x="497" y="134"/>
      <point x="476" y="141" type="curve" smooth="yes"/>
      <point x="335" y="187" type="line"/>
      <point x="309" y="225" type="line" smooth="yes"/>
      <point x="305" y="232"/>
      <point x="296" y="239"/>
      <point x="288" y="241" type="curve" smooth="yes"/>
      <point x="147" y="286" type="line"/>
      <point x="136" y="305" type="line"/>
      <point x="144" y="322" type="line"/>
      <point x="248" y="365" type="line"/>
      <point x="386" y="415" type="line" smooth="yes"/>
      <point x="390" y="417"/>
      <point x="397" y="421"/>
      <point x="400" y="425" type="curve" smooth="yes"/>
      <point x="450" y="475" type="line" smooth="yes"/>
      <point x="466" y="490"/>
      <point x="466" y="516"/>
      <point x="450" y="531" type="curve" smooth="yes"/>
      <point x="435" y="547"/>
      <point x="409" y="547"/>
      <point x="394" y="531" type="curve" smooth="yes"/>
      <point x="350" y="488" type="line"/>
      <point x="220" y="441" type="line"/>
      <point x="100" y="390" type="line" smooth="yes"/>
      <point x="92" y="387"/>
      <point x="83" y="378"/>
      <point x="79" y="371" type="curve" smooth="yes"/>
      <point x="54" y="321" type="line" smooth="yes"/>
      <point x="49" y="310"/>
      <point x="49" y="293"/>
      <point x="56" y="282" type="curve" smooth="yes"/>
      <point x="86" y="232" type="line" smooth="yes"/>
      <point x="90" y="225"/>
      <point x="100" y="217"/>
      <point x="108" y="215" type="curve" smooth="yes"/>
      <point x="250" y="169" type="line"/>
      <point x="276" y="131" type="line" smooth="yes"/>
      <point x="280" y="124"/>
      <point x="289" y="117"/>
      <point x="297" y="115" type="curve" smooth="yes"/>
      <point x="452" y="65" type="line" smooth="yes"/>
      <point x="472" y="58"/>
      <point x="495" y="70"/>
    </contour>
  </outline>
</glyph>
<glyph name="equal" format="1">
  <advance width="806"/>
  <unicode hex="003D"/>
  <outline>
    <contour>
      <point x="157" y="398" type="curve" smooth="yes"/>
      <point x="699" y="398" type="line" smooth="yes"/>
      <point x="721" y="398"/>
      <point x="739" y="416"/>
      <point x="739" y="438" type="curve" smooth="yes"/>
      <point x="739" y="460"/>
      <point x="721" y="478"/>
      <point x="699" y="478" type="curve" smooth="yes"/>
      <point x="157" y="478" type="line" smooth="yes"/>
      <point x="135" y="478"/>
      <point x="117" y="460"/>
      <point x="117" y="438" type="curve" smooth="yes"/>
      <point x="117" y="416"/>
      <point x="135" y="398"/>
    </contour>
    <contour>
      <point x="90" y="98" type="curve" smooth="yes"/>
      <point x="716" y="98" type="line" smooth="yes"/>
      <point x="738" y="98"/>
      <point x="756" y="116"/>
      <point x="756" y="138" type="curve" smooth="yes"/>
      <point x="756" y="160"/>
      <point x="738" y="178"/>
      <point x="716" y="178" type="curve" smooth="yes"/>
      <point x="90" y="178" type="line" smooth="yes"/>
      <point x="68" y="178"/>
      <point x="50" y="160"/>
      <point x="50" y="138" type="curve" smooth="yes"/>
      <point x="50" y="116"/>
      <point x="68" y="98"/>
    </contour>
  </outline>
</glyph>
<glyph name="greater" format="1">
  <advance width="572"/>
  <unicode hex="003E"/>
  <outline>
    <contour>
      <point x="103" y="82" type="curve" smooth="yes"/>
      <point x="257" y="133" type="line"/>
      <point x="375" y="183" type="line" smooth="yes"/>
      <point x="382" y="186"/>
      <point x="391" y="194"/>
      <point x="394" y="201" type="curve" smooth="yes"/>
      <point x="415" y="240" type="line"/>
      <point x="500" y="285" type="line" smooth="yes"/>
      <point x="521" y="295"/>
      <point x="528" y="320"/>
      <point x="517" y="340" type="curve" smooth="yes"/>
      <point x="489" y="390" type="line" smooth="yes"/>
      <point x="485" y="397"/>
      <point x="474" y="406"/>
      <point x="466" y="408" type="curve" smooth="yes"/>
      <point x="304" y="457" type="line"/>
      <point x="208" y="504" type="line"/>
      <point x="155" y="550" type="line" smooth="yes"/>
      <point x="139" y="564"/>
      <point x="113" y="563"/>
      <point x="99" y="546" type="curve" smooth="yes"/>
      <point x="85" y="530"/>
      <point x="86" y="504"/>
      <point x="103" y="490" type="curve" smooth="yes"/>
      <point x="160" y="440" type="line" smooth="yes"/>
      <point x="162" y="438"/>
      <point x="166" y="435"/>
      <point x="169" y="434" type="curve" smooth="yes"/>
      <point x="272" y="384" type="line" smooth="yes"/>
      <point x="273" y="383"/>
      <point x="276" y="382"/>
      <point x="277" y="382" type="curve" smooth="yes"/>
      <point x="427" y="336" type="line"/>
      <point x="368" y="305" type="line" smooth="yes"/>
      <point x="362" y="302"/>
      <point x="354" y="295"/>
      <point x="351" y="289" type="curve" smooth="yes"/>
      <point x="330" y="251" type="line"/>
      <point x="225" y="207" type="line"/>
      <point x="77" y="158" type="line" smooth="yes"/>
      <point x="57" y="151"/>
      <point x="45" y="128"/>
      <point x="52" y="107" type="curve" smooth="yes"/>
      <point x="59" y="87"/>
      <point x="82" y="75"/>
    </contour>
  </outline>
</glyph>
<glyph name="question" format="1">
  <advance width="628"/>
  <unicode hex="003F"/>
  <outline>
    <contour>
      <point x="240" y="160" type="curve" smooth="yes"/>
      <point x="262" y="160"/>
      <point x="281" y="178"/>
      <point x="281" y="199" type="curve" smooth="yes"/>
      <point x="283" y="299" type="line"/>
      <point x="288" y="359" type="line"/>
      <point x="332" y="359" type="line"/>
      <point x="484" y="366" type="line" smooth="yes"/>
      <point x="492" y="367"/>
      <point x="504" y="371"/>
      <point x="510" y="377" type="curve" smooth="yes"/>
      <point x="565" y="429" type="line" smooth="yes"/>
      <point x="573" y="437"/>
      <point x="579" y="452"/>
      <point x="578" y="463" type="curve" smooth="yes"/>
      <point x="561" y="602" type="line"/>
      <point x="564" y="682" type="line" smooth="yes"/>
      <point x="565" y="684"/>
      <point x="564" y="688"/>
      <point x="564" y="691" type="curve" smooth="yes"/>
      <point x="548" y="771" type="line" smooth="yes"/>
      <point x="546" y="784"/>
      <point x="534" y="798"/>
      <point x="521" y="802" type="curve" smooth="yes"/>
      <point x="405" y="838" type="line" smooth="yes"/>
      <point x="402" y="839"/>
      <point x="396" y="840"/>
      <point x="393" y="840" type="curve" smooth="yes"/>
      <point x="295" y="840" type="line"/>
      <point x="158" y="833" type="line" smooth="yes"/>
      <point x="150" y="833"/>
      <point x="140" y="828"/>
      <point x="134" y="824" type="curve" smooth="yes"/>
      <point x="72" y="772" type="line" smooth="yes"/>
      <point x="64" y="766"/>
      <point x="58" y="753"/>
      <point x="57" y="743" type="curve" smooth="yes"/>
      <point x="50" y="601" type="line" smooth="yes"/>
      <point x="49" y="579"/>
      <point x="66" y="560"/>
      <point x="88" y="559" type="curve" smooth="yes"/>
      <point x="110" y="558"/>
      <point x="129" y="575"/>
      <point x="130" y="597" type="curve" smooth="yes"/>
      <point x="136" y="722" type="line"/>
      <point x="175" y="754" type="line"/>
      <point x="295" y="760" type="line"/>
      <point x="387" y="760" type="line"/>
      <point x="474" y="733" type="line"/>
      <point x="484" y="680" type="line"/>
      <point x="481" y="602" type="line" smooth="yes"/>
      <point x="481" y="600"/>
      <point x="481" y="597"/>
      <point x="481" y="595" type="curve" smooth="yes"/>
      <point x="496" y="473" type="line"/>
      <point x="466" y="445" type="line"/>
      <point x="332" y="439" type="line"/>
      <point x="251" y="439" type="line" smooth="yes"/>
      <point x="231" y="439"/>
      <point x="213" y="423"/>
      <point x="211" y="402" type="curve" smooth="yes"/>
      <point x="203" y="300" type="line"/>
      <point x="201" y="201" type="line" smooth="yes"/>
      <point x="201" y="179"/>
      <point x="219" y="160"/>
    </contour>
    <contour>
      <point x="178" y="-15" type="curve" smooth="yes"/>
      <point x="186" y="-35"/>
      <point x="210" y="-45"/>
      <point x="230" y="-37" type="curve" smooth="yes"/>
      <point x="257" y="-26" type="line" smooth="yes"/>
      <point x="277" y="-18"/>
      <point x="287" y="6"/>
      <point x="279" y="26" type="curve" smooth="yes"/>
      <point x="271" y="46"/>
      <point x="247" y="56"/>
      <point x="227" y="48" type="curve" smooth="yes"/>
      <point x="200" y="37" type="line" smooth="yes"/>
      <point x="180" y="29"/>
      <point x="170" y="5"/>
    </contour>
  </outline>
</glyph>
<glyph name="at" format="1">
  <advance width="804"/>
  <unicode hex="0040"/>
  <outline>
    <contour>
      <point x="290" y="-82" type="curve" smooth="yes"/>
      <point x="522" y="-82" type="line" smooth="yes"/>
      <point x="544" y="-82"/>
      <point x="562" y="-64"/>
      <point x="562" y="-42" type="curve" smooth="yes"/>
      <point x="562" y="-20"/>
      <point x="544" y="-2"/>
      <point x="522" y="-2" type="curve" smooth="yes"/>
      <point x="295" y="-2" type="line"/>
      <point x="177" y="26" type="line"/>
      <point x="174" y="77" type="line" smooth="yes"/>
      <point x="174" y="81"/>
      <point x="173" y="86"/>
      <point x="171" y="90" type="curve" smooth="yes"/>
      <point x="139" y="168" type="line"/>
      <point x="131" y="250" type="line"/>
      <point x="184" y="340" type="line" smooth="yes"/>
      <point x="186" y="344"/>
      <point x="188" y="352"/>
      <point x="189" y="357" type="curve" smooth="yes"/>
      <point x="197" y="458" type="line" smooth="yes"/>
      <point x="197" y="465"/>
      <point x="195" y="476"/>
      <point x="191" y="482" type="curve" smooth="yes"/>
      <point x="145" y="558" type="line"/>
      <point x="194" y="618" type="line" smooth="yes"/>
      <point x="197" y="623"/>
      <point x="201" y="631"/>
      <point x="202" y="637" type="curve" smooth="yes"/>
      <point x="211" y="689" type="line"/>
      <point x="342" y="718" type="line"/>
      <point x="542" y="718" type="line"/>
      <point x="623" y="691" type="line"/>
      <point x="633" y="640" type="line"/>
      <point x="625" y="562" type="line" smooth="yes"/>
      <point x="625" y="556"/>
      <point x="626" y="546"/>
      <point x="629" y="540" type="curve" smooth="yes"/>
      <point x="669" y="459" type="line"/>
      <point x="627" y="377" type="line" smooth="yes"/>
      <point x="626" y="374"/>
      <point x="624" y="369"/>
      <point x="624" y="365" type="curve" smooth="yes"/>
      <point x="602" y="233" type="line"/>
      <point x="580" y="204" type="line"/>
      <point x="532" y="201" type="line"/>
      <point x="536" y="247" type="line"/>
      <point x="579" y="341" type="line" smooth="yes"/>
      <point x="585" y="353"/>
      <point x="583" y="371"/>
      <point x="576" y="381" type="curve" smooth="yes"/>
      <point x="520" y="460" type="line"/>
      <point x="566" y="538" type="line" smooth="yes"/>
      <point x="576" y="557"/>
      <point x="570" y="582"/>
      <point x="551" y="593" type="curve" smooth="yes"/>
      <point x="543" y="597"/>
      <point x="533" y="599"/>
      <point x="524" y="597" type="curve"/>
      <point x="520" y="598"/>
      <point x="516" y="598"/>
      <point x="512" y="598" type="curve" smooth="yes"/>
      <point x="456" y="591" type="line" smooth="yes"/>
      <point x="452" y="590"/>
      <point x="448" y="589"/>
      <point x="445" y="588" type="curve" smooth="yes"/>
      <point x="327" y="536" type="line" smooth="yes"/>
      <point x="319" y="533"/>
      <point x="309" y="523"/>
      <point x="306" y="514" type="curve" smooth="yes"/>
      <point x="250" y="373" type="line" smooth="yes"/>
      <point x="245" y="362"/>
      <point x="247" y="345"/>
      <point x="254" y="335" type="curve" smooth="yes"/>
      <point x="282" y="295" type="line"/>
      <point x="277" y="212" type="line" smooth="yes"/>
      <point x="276" y="195"/>
      <point x="289" y="177"/>
      <point x="304" y="172" type="curve" smooth="yes"/>
      <point x="455" y="120" type="line" smooth="yes"/>
      <point x="459" y="119"/>
      <point x="466" y="118"/>
      <point x="470" y="118" type="curve" smooth="yes"/>
      <point x="481" y="119" type="line"/>
      <point x="483" y="118" type="line" smooth="yes"/>
      <point x="488" y="118"/>
      <point x="493" y="118"/>
      <point x="497" y="120" type="curve"/>
      <point x="604" y="125" type="line" smooth="yes"/>
      <point x="614" y="126"/>
      <point x="627" y="133"/>
      <point x="634" y="141" type="curve" smooth="yes"/>
      <point x="672" y="193" type="line" smooth="yes"/>
      <point x="675" y="198"/>
      <point x="679" y="205"/>
      <point x="679" y="211" type="curve" smooth="yes"/>
      <point x="701" y="346" type="line"/>
      <point x="750" y="440" type="line" smooth="yes"/>
      <point x="755" y="450"/>
      <point x="755" y="466"/>
      <point x="750" y="476" type="curve" smooth="yes"/>
      <point x="706" y="565" type="line"/>
      <point x="713" y="637" type="line" smooth="yes"/>
      <point x="714" y="641"/>
      <point x="713" y="646"/>
      <point x="713" y="649" type="curve" smooth="yes"/>
      <point x="697" y="729" type="line" smooth="yes"/>
      <point x="695" y="742"/>
      <point x="683" y="756"/>
      <point x="671" y="760" type="curve" smooth="yes"/>
      <point x="560" y="796" type="line" smooth="yes"/>
      <point x="557" y="797"/>
      <point x="552" y="798"/>
      <point x="548" y="798" type="curve" smooth="yes"/>
      <point x="338" y="798" type="line" smooth="yes"/>
      <point x="336" y="798"/>
      <point x="332" y="798"/>
      <point x="329" y="797" type="curve" smooth="yes"/>
      <point x="168" y="762" type="line" smooth="yes"/>
      <point x="153" y="758"/>
      <point x="139" y="744"/>
      <point x="137" y="729" type="curve" smooth="yes"/>
      <point x="125" y="661" type="line"/>
      <point x="65" y="587" type="line" smooth="yes"/>
      <point x="55" y="575"/>
      <point x="54" y="555"/>
      <point x="62" y="541" type="curve" smooth="yes"/>
      <point x="116" y="451" type="line"/>
      <point x="110" y="372" type="line"/>
      <point x="55" y="279" type="line" smooth="yes"/>
      <point x="52" y="273"/>
      <point x="49" y="262"/>
      <point x="50" y="255" type="curve" smooth="yes"/>
      <point x="60" y="154" type="line" smooth="yes"/>
      <point x="61" y="151"/>
      <point x="62" y="146"/>
      <point x="63" y="143" type="curve" smooth="yes"/>
      <point x="95" y="66" type="line"/>
      <point x="99" y="-8" type="line" smooth="yes"/>
      <point x="100" y="-25"/>
      <point x="114" y="-41"/>
      <point x="130" y="-45" type="curve" smooth="yes"/>
      <point x="281" y="-81" type="line" smooth="yes"/>
      <point x="283" y="-82"/>
      <point x="287" y="-82"/>
    </contour>
    <contour>
      <point x="363" y="304" type="line" smooth="yes"/>
      <point x="363" y="311"/>
      <point x="360" y="323"/>
      <point x="356" y="329" type="curve" smooth="yes"/>
      <point x="332" y="363" type="line"/>
      <point x="374" y="470" type="line"/>
      <point x="454" y="504" type="line"/>
      <point x="438" y="478" type="line" smooth="yes"/>
      <point x="431" y="466"/>
      <point x="432" y="447"/>
      <point x="440" y="435" type="curve" smooth="yes"/>
      <point x="497" y="354" type="line"/>
      <point x="461" y="275" type="line" smooth="yes"/>
      <point x="459" y="271"/>
      <point x="458" y="266"/>
      <point x="457" y="262" type="curve" smooth="yes"/>
      <point x="452" y="206" type="line"/>
      <point x="359" y="238" type="line"/>
    </contour>
  </outline>
</glyph>
<glyph name="A" format="1">
  <advance width="824"/>
  <unicode hex="0041"/>
  <outline>
    <contour>
      <point x="721" y="-32" type="curve" smooth="yes"/>
      <point x="736" y="-16"/>
      <point x="735" y="10"/>
      <point x="720" y="25" type="curve" smooth="yes"/>
      <point x="706" y="38" type="line"/>
      <point x="738" y="100" type="line" smooth="yes"/>
      <point x="743" y="108"/>
      <point x="744" y="123"/>
      <point x="741" y="132" type="curve" smooth="yes"/>
      <point x="704" y="236" type="line"/>
      <point x="769" y="354" type="line" smooth="yes"/>
      <point x="773" y="361"/>
      <point x="775" y="373"/>
      <point x="773" y="381" type="curve" smooth="yes"/>
      <point x="749" y="507" type="line" smooth="yes"/>
      <point x="749" y="511"/>
      <point x="747" y="516"/>
      <point x="745" y="519" type="curve" smooth="yes"/>
      <point x="693" y="611" type="line"/>
      <point x="675" y="688" type="line" smooth="yes"/>
      <point x="674" y="691"/>
      <point x="672" y="696"/>
      <point x="671" y="698" type="curve" smooth="yes"/>
      <point x="626" y="779" type="line" smooth="yes"/>
      <point x="621" y="787"/>
      <point x="611" y="795"/>
      <point x="602" y="798" type="curve" smooth="yes"/>
      <point x="484" y="834" type="line" smooth="yes"/>
      <point x="481" y="835"/>
      <point x="475" y="836"/>
      <point x="472" y="836" type="curve" smooth="yes"/>
      <point x="285" y="836" type="line" smooth="yes"/>
      <point x="283" y="836"/>
      <point x="280" y="836"/>
      <point x="278" y="835" type="curve" smooth="yes"/>
      <point x="91" y="800" type="line" smooth="yes"/>
      <point x="65" y="795"/>
      <point x="51" y="770"/>
      <point x="61" y="746" type="curve" smooth="yes"/>
      <point x="90" y="672" type="line"/>
      <point x="96" y="603" type="line"/>
      <point x="75" y="508" type="line" smooth="yes"/>
      <point x="74" y="505"/>
      <point x="74" y="500"/>
      <point x="74" y="497" type="curve" smooth="yes"/>
      <point x="81" y="398" type="line"/>
      <point x="78" y="303" type="line"/>
      <point x="56" y="206" type="line" smooth="yes"/>
      <point x="55" y="202"/>
      <point x="55" y="196"/>
      <point x="55" y="191" type="curve" smooth="yes"/>
      <point x="56" y="185" type="line"/>
      <point x="51" y="158" type="line" smooth="yes"/>
      <point x="50" y="156"/>
      <point x="50" y="152"/>
      <point x="50" y="149" type="curve" smooth="yes"/>
      <point x="52" y="72" type="line" smooth="yes"/>
      <point x="52" y="31"/>
      <point x="98" y="16"/>
      <point x="123" y="48" type="curve" smooth="yes"/>
      <point x="142" y="72" type="line" smooth="yes"/>
      <point x="147" y="80"/>
      <point x="151" y="93"/>
      <point x="150" y="103" type="curve" smooth="yes"/>
      <point x="138" y="183" type="line"/>
      <point x="145" y="222" type="line"/>
      <point x="162" y="276" type="line"/>
      <point x="325" y="306" type="line"/>
      <point x="651" y="306" type="line"/>
      <point x="625" y="259" type="line" smooth="yes"/>
      <point x="620" y="250"/>
      <point x="619" y="236"/>
      <point x="622" y="226" type="curve" smooth="yes"/>
      <point x="659" y="121" type="line"/>
      <point x="622" y="49" type="line" smooth="yes"/>
      <point x="614" y="34"/>
      <point x="617" y="13"/>
      <point x="629" y="1" type="curve" smooth="yes"/>
      <point x="664" y="-33" type="line" smooth="yes"/>
      <point x="680" y="-48"/>
      <point x="706" y="-47"/>
    </contour>
    <contour>
      <point x="314" y="385" type="curve" smooth="yes"/>
      <point x="160" y="357" type="line"/>
      <point x="161" y="397" type="line" smooth="yes"/>
      <point x="161" y="399"/>
      <point x="161" y="400"/>
      <point x="161" y="401" type="curve" smooth="yes"/>
      <point x="154" y="496" type="line"/>
      <point x="175" y="591" type="line" smooth="yes"/>
      <point x="176" y="595"/>
      <point x="176" y="600"/>
      <point x="176" y="603" type="curve" smooth="yes"/>
      <point x="170" y="685" type="line" smooth="yes"/>
      <point x="169" y="688"/>
      <point x="168" y="693"/>
      <point x="167" y="696" type="curve" smooth="yes"/>
      <point x="153" y="730" type="line"/>
      <point x="289" y="756" type="line"/>
      <point x="466" y="756" type="line"/>
      <point x="564" y="726" type="line"/>
      <point x="598" y="664" type="line"/>
      <point x="616" y="587" type="line" smooth="yes"/>
      <point x="617" y="584"/>
      <point x="619" y="579"/>
      <point x="620" y="576" type="curve" smooth="yes"/>
      <point x="672" y="485" type="line"/>
      <point x="691" y="386" type="line"/>
      <point x="689" y="386" type="line" smooth="yes"/>
      <point x="321" y="386" type="line" smooth="yes"/>
      <point x="319" y="386"/>
      <point x="316" y="386"/>
    </contour>
  </outline>
</glyph>
<glyph name="B" format="1">
  <advance width="858"/>
  <unicode hex="0042"/>
  <outline>
    <contour>
      <point x="282" y="-36" type="curve" smooth="yes"/>
      <point x="527" y="-36" type="line"/>
      <point x="634" y="-29" type="line" smooth="yes"/>
      <point x="639" y="-29"/>
      <point x="647" y="-26"/>
      <point x="652" y="-23" type="curve" smooth="yes"/>
      <point x="738" y="28" type="line" smooth="yes"/>
      <point x="746" y="33"/>
      <point x="754" y="44"/>
      <point x="756" y="54" type="curve" smooth="yes"/>
      <point x="788" y="195" type="line" smooth="yes"/>
      <point x="788" y="196"/>
      <point x="789" y="198"/>
      <point x="789" y="199" type="curve" smooth="yes"/>
      <point x="800" y="282" type="line" smooth="yes"/>
      <point x="801" y="292"/>
      <point x="797" y="307"/>
      <point x="790" y="314" type="curve" smooth="yes"/>
      <point x="716" y="395" type="line" smooth="yes"/>
      <point x="711" y="400"/>
      <point x="702" y="405"/>
      <point x="695" y="407" type="curve" smooth="yes"/>
      <point x="682" y="410" type="line"/>
      <point x="725" y="427" type="line" smooth="yes"/>
      <point x="733" y="430"/>
      <point x="743" y="440"/>
      <point x="747" y="449" type="curve" smooth="yes"/>
      <point x="805" y="591" type="line" smooth="yes"/>
      <point x="809" y="600"/>
      <point x="808" y="615"/>
      <point x="804" y="624" type="curve" smooth="yes"/>
      <point x="762" y="707" type="line" smooth="yes"/>
      <point x="762" y="708"/>
      <point x="761" y="710"/>
      <point x="760" y="711" type="curve" smooth="yes"/>
      <point x="706" y="791" type="line" smooth="yes"/>
      <point x="702" y="798"/>
      <point x="691" y="805"/>
      <point x="683" y="807" type="curve" smooth="yes"/>
      <point x="549" y="843" type="line" smooth="yes"/>
      <point x="546" y="843"/>
      <point x="542" y="844"/>
      <point x="539" y="844" type="curve" smooth="yes"/>
      <point x="299" y="844" type="line" smooth="yes"/>
      <point x="296" y="844"/>
      <point x="292" y="843"/>
      <point x="289" y="843" type="curve" smooth="yes"/>
      <point x="152" y="807" type="line" smooth="yes"/>
      <point x="145" y="806"/>
      <point x="136" y="800"/>
      <point x="132" y="796" type="curve" smooth="yes"/>
      <point x="61" y="717" type="line" smooth="yes"/>
      <point x="54" y="710"/>
      <point x="50" y="697"/>
      <point x="50" y="688" type="curve" smooth="yes"/>
      <point x="54" y="606" type="line" smooth="yes"/>
      <point x="54" y="602"/>
      <point x="56" y="595"/>
      <point x="58" y="591" type="curve" smooth="yes"/>
      <point x="99" y="506" type="line"/>
      <point x="61" y="421" type="line" smooth="yes"/>
      <point x="57" y="410"/>
      <point x="58" y="393"/>
      <point x="64" y="383" type="curve" smooth="yes"/>
      <point x="120" y="297" type="line"/>
      <point x="98" y="212" type="line" smooth="yes"/>
      <point x="97" y="206"/>
      <point x="97" y="196"/>
      <point x="99" y="190" type="curve" smooth="yes"/>
      <point x="145" y="48" type="line" smooth="yes"/>
      <point x="147" y="44"/>
      <point x="150" y="38"/>
      <point x="153" y="34" type="curve" smooth="yes"/>
      <point x="197" y="-16" type="line" smooth="yes"/>
      <point x="203" y="-23"/>
      <point x="214" y="-29"/>
      <point x="223" y="-30" type="curve" smooth="yes"/>
      <point x="277" y="-36" type="line" smooth="yes"/>
      <point x="279" y="-36"/>
      <point x="281" y="-36"/>
    </contour>
    <contour>
      <point x="180" y="490" type="line" smooth="yes"/>
      <point x="184" y="500"/>
      <point x="183" y="515"/>
      <point x="179" y="524" type="curve" smooth="yes"/>
      <point x="134" y="618" type="line"/>
      <point x="131" y="675" type="line"/>
      <point x="183" y="733" type="line"/>
      <point x="304" y="764" type="line"/>
      <point x="534" y="764" type="line"/>
      <point x="648" y="734" type="line"/>
      <point x="692" y="669" type="line"/>
      <point x="724" y="604" type="line"/>
      <point x="679" y="495" type="line"/>
      <point x="566" y="450" type="line"/>
      <point x="521" y="444" type="line"/>
      <point x="159" y="444" type="line"/>
    </contour>
    <contour>
      <point x="527" y="44" type="line"/>
      <point x="284" y="44" type="line"/>
      <point x="247" y="48" type="line"/>
      <point x="219" y="81" type="line"/>
      <point x="179" y="203" type="line"/>
      <point x="202" y="294" type="line" smooth="yes"/>
      <point x="204" y="303"/>
      <point x="202" y="317"/>
      <point x="197" y="325" type="curve" smooth="yes"/>
      <point x="172" y="364" type="line"/>
      <point x="520" y="364" type="line"/>
      <point x="666" y="332" type="line"/>
      <point x="718" y="274" type="line"/>
      <point x="710" y="211" type="line"/>
      <point x="682" y="88" type="line"/>
      <point x="619" y="50" type="line"/>
    </contour>
  </outline>
</glyph>
<glyph name="C" format="1">
  <advance width="835"/>
  <unicode hex="0043"/>
  <outline>
    <contour>
      <point x="355" y="-42" type="curve" smooth="yes"/>
      <point x="549" y="-42" type="line" smooth="yes"/>
      <point x="557" y="-42"/>
      <point x="568" y="-38"/>
      <point x="574" y="-33" type="curve" smooth="yes"/>
      <point x="647" y="25" type="line" smooth="yes"/>
      <point x="653" y="30"/>
      <point x="659" y="39"/>
      <point x="661" y="46" type="curve" smooth="yes"/>
      <point x="697" y="188" type="line" smooth="yes"/>
      <point x="702" y="209"/>
      <point x="689" y="231"/>
      <point x="668" y="237" type="curve" smooth="yes"/>
      <point x="647" y="242"/>
      <point x="625" y="229"/>
      <point x="619" y="208" type="curve" smooth="yes"/>
      <point x="586" y="79" type="line"/>
      <point x="535" y="38" type="line"/>
      <point x="356" y="38" type="line"/>
      <point x="199" y="44" type="line"/>
      <point x="175" y="70" type="line"/>
      <point x="177" y="195" type="line" smooth="yes"/>
      <point x="177" y="200"/>
      <point x="175" y="208"/>
      <point x="173" y="213" type="curve" smooth="yes"/>
      <point x="132" y="302" type="line"/>
      <point x="153" y="390" type="line" smooth="yes"/>
      <point x="154" y="392"/>
      <point x="154" y="396"/>
      <point x="154" y="399" type="curve" smooth="yes"/>
      <point x="154" y="497" type="line"/>
      <point x="170" y="595" type="line" smooth="yes"/>
      <point x="171" y="597"/>
      <point x="171" y="598"/>
      <point x="171" y="599" type="curve" smooth="yes"/>
      <point x="175" y="667" type="line"/>
      <point x="234" y="731" type="line"/>
      <point x="280" y="758" type="line"/>
      <point x="465" y="758" type="line"/>
      <point x="642" y="725" type="line"/>
      <point x="696" y="673" type="line"/>
      <point x="667" y="617" type="line" smooth="yes"/>
      <point x="657" y="597"/>
      <point x="664" y="573"/>
      <point x="683" y="563" type="curve" smooth="yes"/>
      <point x="703" y="553"/>
      <point x="727" y="560"/>
      <point x="737" y="579" type="curve" smooth="yes"/>
      <point x="781" y="663" type="line" smooth="yes"/>
      <point x="789" y="678"/>
      <point x="785" y="699"/>
      <point x="773" y="710" type="curve" smooth="yes"/>
      <point x="689" y="791" type="line" smooth="yes"/>
      <point x="684" y="795"/>
      <point x="675" y="800"/>
      <point x="669" y="801" type="curve" smooth="yes"/>
      <point x="476" y="837" type="line" smooth="yes"/>
      <point x="474" y="838"/>
      <point x="471" y="838"/>
      <point x="469" y="838" type="curve" smooth="yes"/>
      <point x="269" y="838" type="line" smooth="yes"/>
      <point x="263" y="838"/>
      <point x="254" y="836"/>
      <point x="249" y="833" type="curve" smooth="yes"/>
      <point x="188" y="797" type="line" smooth="yes"/>
      <point x="185" y="796"/>
      <point x="181" y="792"/>
      <point x="179" y="790" type="curve" smooth="yes"/>
      <point x="107" y="711" type="line" smooth="yes"/>
      <point x="101" y="705"/>
      <point x="97" y="694"/>
      <point x="96" y="686" type="curve" smooth="yes"/>
      <point x="91" y="607" type="line"/>
      <point x="75" y="507" type="line" smooth="yes"/>
      <point x="74" y="505"/>
      <point x="74" y="502"/>
      <point x="74" y="501" type="curve" smooth="yes"/>
      <point x="74" y="404" type="line"/>
      <point x="51" y="307" type="line" smooth="yes"/>
      <point x="49" y="299"/>
      <point x="50" y="288"/>
      <point x="54" y="281" type="curve" smooth="yes"/>
      <point x="97" y="188" type="line"/>
      <point x="94" y="55" type="line" smooth="yes"/>
      <point x="94" y="46"/>
      <point x="99" y="34"/>
      <point x="105" y="27" type="curve" smooth="yes"/>
      <point x="152" y="-23" type="line" smooth="yes"/>
      <point x="158" y="-30"/>
      <point x="170" y="-35"/>
      <point x="180" y="-36" type="curve" smooth="yes"/>
      <point x="354" y="-42" type="line" smooth="yes"/>
      <point x="354" y="-42"/>
      <point x="355" y="-42"/>
    </contour>
  </outline>
</glyph>
<glyph name="D" format="1">
  <advance width="855"/>
  <unicode hex="0044"/>
  <outline>
    <contour>
      <point x="132" y="-41" type="curve" smooth="yes"/>
      <point x="501" y="-41" type="line"/>
      <point x="589" y="-34" type="line" smooth="yes"/>
      <point x="595" y="-33"/>
      <point x="604" y="-30"/>
      <point x="609" y="-26" type="curve" smooth="yes"/>
      <point x="678" y="25" type="line" smooth="yes"/>
      <point x="680" y="27"/>
      <point x="684" y="30"/>
      <point x="685" y="33" type="curve" smooth="yes"/>
      <point x="797" y="174" type="line" smooth="yes"/>
      <point x="804" y="183"/>
      <point x="808" y="199"/>
      <point x="804" y="210" type="curve" smooth="yes"/>
      <point x="775" y="310" type="line"/>
      <point x="755" y="404" type="line"/>
      <point x="751" y="501" type="line" smooth="yes"/>
      <point x="750" y="522"/>
      <point x="731" y="540"/>
      <point x="709" y="539" type="curve" smooth="yes"/>
      <point x="688" y="538"/>
      <point x="670" y="519"/>
      <point x="671" y="497" type="curve" smooth="yes"/>
      <point x="675" y="397" type="line" smooth="yes"/>
      <point x="675" y="395"/>
      <point x="676" y="392"/>
      <point x="676" y="390" type="curve" smooth="yes"/>
      <point x="699" y="288" type="line"/>
      <point x="722" y="208" type="line"/>
      <point x="626" y="86" type="line"/>
      <point x="571" y="45" type="line"/>
      <point x="501" y="39" type="line"/>
      <point x="169" y="39" type="line"/>
      <point x="163" y="99" type="line"/>
      <point x="172" y="195" type="line" smooth="yes"/>
      <point x="172" y="199"/>
      <point x="172" y="205"/>
      <point x="171" y="208" type="curve" smooth="yes"/>
      <point x="147" y="306" type="line"/>
      <point x="131" y="398" type="line"/>
      <point x="148" y="483" type="line"/>
      <point x="215" y="576" type="line" smooth="yes"/>
      <point x="221" y="585"/>
      <point x="224" y="602"/>
      <point x="220" y="613" type="curve" smooth="yes"/>
      <point x="187" y="702" type="line"/>
      <point x="198" y="759" type="line"/>
      <point x="528" y="759" type="line"/>
      <point x="673" y="731" type="line"/>
      <point x="667" y="690" type="line"/>
      <point x="647" y="609" type="line" smooth="yes"/>
      <point x="642" y="588"/>
      <point x="655" y="565"/>
      <point x="676" y="560" type="curve" smooth="yes"/>
      <point x="697" y="555"/>
      <point x="720" y="568"/>
      <point x="725" y="589" type="curve" smooth="yes"/>
      <point x="745" y="673" type="line" smooth="yes"/>
      <point x="746" y="674"/>
      <point x="746" y="676"/>
      <point x="746" y="677" type="curve" smooth="yes"/>
      <point x="758" y="757" type="line" smooth="yes"/>
      <point x="761" y="778"/>
      <point x="746" y="798"/>
      <point x="726" y="802" type="curve" smooth="yes"/>
      <point x="540" y="838" type="line" smooth="yes"/>
      <point x="538" y="839"/>
      <point x="534" y="839"/>
      <point x="532" y="839" type="curve" smooth="yes"/>
      <point x="166" y="839" type="line" smooth="yes"/>
      <point x="148" y="839"/>
      <point x="131" y="825"/>
      <point x="127" y="807" type="curve" smooth="yes"/>
      <point x="106" y="707" type="line" smooth="yes"/>
      <point x="105" y="701"/>
      <point x="105" y="691"/>
      <point x="107" y="685" type="curve" smooth="yes"/>
      <point x="137" y="605" type="line"/>
      <point x="78" y="522" type="line" smooth="yes"/>
      <point x="76" y="518"/>
      <point x="73" y="512"/>
      <point x="72" y="507" type="curve" smooth="yes"/>
      <point x="51" y="407" type="line" smooth="yes"/>
      <point x="50" y="403"/>
      <point x="50" y="396"/>
      <point x="51" y="392" type="curve" smooth="yes"/>
      <point x="69" y="292" type="line"/>
      <point x="92" y="196" type="line"/>
      <point x="83" y="103" type="line" smooth="yes"/>
      <point x="83" y="101"/>
      <point x="83" y="97"/>
      <point x="83" y="95" type="curve" smooth="yes"/>
      <point x="92" y="-5" type="line" smooth="yes"/>
      <point x="94" y="-25"/>
      <point x="112" y="-41"/>
    </contour>
  </outline>
</glyph>
<glyph name="E" format="1">
  <advance width="841"/>
  <unicode hex="0045"/>
  <outline>
    <contour>
      <point x="483" y="-40" type="line" smooth="yes"/>
      <point x="496" y="-40"/>
      <point x="509" y="-33"/>
      <point x="516" y="-22" type="curve"/>
      <point x="526" y="-36"/>
      <point x="544" y="-43"/>
      <point x="560" y="-38" type="curve" smooth="yes"/>
      <point x="678" y="-3" type="line" smooth="yes"/>
      <point x="692" y="1"/>
      <point x="705" y="16"/>
      <point x="706" y="31" type="curve" smooth="yes"/>
      <point x="713" y="99" type="line"/>
      <point x="768" y="172" type="line" smooth="yes"/>
      <point x="781" y="189"/>
      <point x="777" y="215"/>
      <point x="760" y="228" type="curve" smooth="yes"/>
      <point x="743" y="241"/>
      <point x="717" y="237"/>
      <point x="704" y="220" type="curve" smooth="yes"/>
      <point x="643" y="138" type="line" smooth="yes"/>
      <point x="639" y="133"/>
      <point x="636" y="124"/>
      <point x="635" y="118" type="curve" smooth="yes"/>
      <point x="630" y="66" type="line"/>
      <point x="538" y="38" type="line" smooth="yes"/>
      <point x="528" y="36"/>
      <point x="521" y="30"/>
      <point x="516" y="22" type="curve"/>
      <point x="509" y="33"/>
      <point x="496" y="40"/>
      <point x="483" y="40" type="curve" smooth="yes"/>
      <point x="280" y="40" type="line"/>
      <point x="243" y="45" type="line"/>
      <point x="186" y="81" type="line"/>
      <point x="164" y="203" type="line"/>
      <point x="158" y="300" type="line"/>
      <point x="249" y="344" type="line"/>
      <point x="299" y="357" type="line"/>
      <point x="382" y="361" type="line" smooth="yes"/>
      <point x="434" y="363"/>
      <point x="432" y="440"/>
      <point x="380" y="441" type="curve" smooth="yes"/>
      <point x="282" y="442" type="line"/>
      <point x="193" y="455" type="line"/>
      <point x="140" y="488" type="line"/>
      <point x="181" y="582" type="line" smooth="yes"/>
      <point x="182" y="586"/>
      <point x="184" y="592"/>
      <point x="184" y="596" type="curve" smooth="yes"/>
      <point x="188" y="677" type="line"/>
      <point x="194" y="733" type="line"/>
      <point x="284" y="760" type="line"/>
      <point x="481" y="760" type="line"/>
      <point x="609" y="754" type="line"/>
      <point x="669" y="717" type="line"/>
      <point x="713" y="589" type="line" smooth="yes"/>
      <point x="720" y="569"/>
      <point x="744" y="557"/>
      <point x="764" y="564" type="curve" smooth="yes"/>
      <point x="784" y="571"/>
      <point x="796" y="595"/>
      <point x="789" y="615" type="curve" smooth="yes"/>
      <point x="740" y="757" type="line" smooth="yes"/>
      <point x="737" y="764"/>
      <point x="730" y="773"/>
      <point x="723" y="778" type="curve" smooth="yes"/>
      <point x="643" y="828" type="line" smooth="yes"/>
      <point x="638" y="831"/>
      <point x="629" y="833"/>
      <point x="623" y="834" type="curve" smooth="yes"/>
      <point x="485" y="840" type="line"/>
      <point x="364" y="840" type="line"/>
      <point x="278" y="840" type="line" smooth="yes"/>
      <point x="275" y="840"/>
      <point x="270" y="839"/>
      <point x="266" y="838" type="curve" smooth="yes"/>
      <point x="145" y="801" type="line" smooth="yes"/>
      <point x="131" y="797"/>
      <point x="118" y="782"/>
      <point x="117" y="767" type="curve" smooth="yes"/>
      <point x="108" y="685" type="line"/>
      <point x="104" y="607" type="line"/>
      <point x="53" y="488" type="line" smooth="yes"/>
      <point x="45" y="470"/>
      <point x="52" y="448"/>
      <point x="68" y="438" type="curve" smooth="yes"/>
      <point x="152" y="386" type="line"/>
      <point x="99" y="361" type="line" smooth="yes"/>
      <point x="86" y="354"/>
      <point x="75" y="337"/>
      <point x="76" y="322" type="curve" smooth="yes"/>
      <point x="84" y="196" type="line" smooth="yes"/>
      <point x="84" y="194"/>
      <point x="84" y="192"/>
      <point x="85" y="191" type="curve" smooth="yes"/>
      <point x="111" y="49" type="line" smooth="yes"/>
      <point x="112" y="40"/>
      <point x="120" y="28"/>
      <point x="129" y="23" type="curve" smooth="yes"/>
      <point x="207" y="-28" type="line" smooth="yes"/>
      <point x="212" y="-30"/>
      <point x="219" y="-33"/>
      <point x="224" y="-33" type="curve" smooth="yes"/>
      <point x="272" y="-40" type="line" smooth="yes"/>
      <point x="273" y="-40"/>
      <point x="276" y="-40"/>
      <point x="277" y="-40" type="curve" smooth="yes"/>
    </contour>
  </outline>
</glyph>
<glyph name="F" format="1">
  <advance width="806"/>
  <unicode hex="0046"/>
  <outline>
    <contour>
      <point x="146" y="-39" type="curve" smooth="yes"/>
      <point x="168" y="-35"/>
      <point x="182" y="-13"/>
      <point x="177" y="8" type="curve" smooth="yes"/>
      <point x="158" y="96" type="line"/>
      <point x="190" y="184" type="line" smooth="yes"/>
      <point x="190" y="186"/>
      <point x="191" y="189"/>
      <point x="191" y="191" type="curve" smooth="yes"/>
      <point x="211" y="300" type="line"/>
      <point x="281" y="348" type="line" smooth="yes"/>
      <point x="283" y="350"/>
      <point x="285" y="352"/>
      <point x="287" y="354" type="curve" smooth="yes"/>
      <point x="291" y="358" type="line"/>
      <point x="367" y="361" type="line" smooth="yes"/>
      <point x="419" y="363"/>
      <point x="418" y="440"/>
      <point x="366" y="441" type="curve" smooth="yes"/>
      <point x="262" y="443" type="line"/>
      <point x="256" y="448" type="line"/>
      <point x="201" y="492" type="line"/>
      <point x="198" y="599" type="line" smooth="yes"/>
      <point x="198" y="607"/>
      <point x="194" y="617"/>
      <point x="189" y="623" type="curve" smooth="yes"/>
      <point x="150" y="672" type="line"/>
      <point x="239" y="728" type="line"/>
      <point x="295" y="760" type="line"/>
      <point x="474" y="760" type="line"/>
      <point x="627" y="754" type="line"/>
      <point x="676" y="722" type="line"/>
      <point x="675" y="602" type="line" smooth="yes"/>
      <point x="675" y="581"/>
      <point x="693" y="562"/>
      <point x="715" y="562" type="curve" smooth="yes"/>
      <point x="736" y="562"/>
      <point x="755" y="580"/>
      <point x="755" y="602" type="curve" smooth="yes"/>
      <point x="756" y="743" type="line" smooth="yes"/>
      <point x="756" y="755"/>
      <point x="748" y="770"/>
      <point x="738" y="777" type="curve" smooth="yes"/>
      <point x="661" y="827" type="line" smooth="yes"/>
      <point x="656" y="831"/>
      <point x="647" y="834"/>
      <point x="641" y="834" type="curve" smooth="yes"/>
      <point x="478" y="840" type="line"/>
      <point x="415" y="840" type="line"/>
      <point x="284" y="840" type="line" smooth="yes"/>
      <point x="278" y="840"/>
      <point x="269" y="838"/>
      <point x="264" y="835" type="curve" smooth="yes"/>
      <point x="200" y="798" type="line"/>
      <point x="69" y="715" type="line" smooth="yes"/>
      <point x="48" y="702"/>
      <point x="44" y="675"/>
      <point x="59" y="656" type="curve" smooth="yes"/>
      <point x="118" y="583" type="line"/>
      <point x="122" y="471" type="line" smooth="yes"/>
      <point x="122" y="461"/>
      <point x="129" y="448"/>
      <point x="137" y="441" type="curve" smooth="yes"/>
      <point x="200" y="390" type="line"/>
      <point x="152" y="357" type="line" smooth="yes"/>
      <point x="144" y="352"/>
      <point x="137" y="340"/>
      <point x="135" y="331" type="curve" smooth="yes"/>
      <point x="113" y="208" type="line"/>
      <point x="79" y="113" type="line" smooth="yes"/>
      <point x="77" y="107"/>
      <point x="76" y="97"/>
      <point x="77" y="91" type="curve" smooth="yes"/>
      <point x="99" y="-8" type="line" smooth="yes"/>
      <point x="103" y="-30"/>
      <point x="125" y="-44"/>
    </contour>
  </outline>
</glyph>
<glyph name="G" format="1">
  <advance width="867"/>
  <unicode hex="0047"/>
  <outline>
    <contour>
      <point x="360" y="-36" type="curve" smooth="yes"/>
      <point x="522" y="-36" type="line" smooth="yes"/>
      <point x="525" y="-36"/>
      <point x="529" y="-36"/>
      <point x="531" y="-35" type="curve" smooth="yes"/>
      <point x="683" y="1" type="line" smooth="yes"/>
      <point x="688" y="2"/>
      <point x="696" y="7"/>
      <point x="700" y="10" type="curve" smooth="yes"/>
      <point x="790" y="91" type="line" smooth="yes"/>
      <point x="800" y="101"/>
      <point x="805" y="120"/>
      <point x="801" y="133" type="curve" smooth="yes"/>
      <point x="773" y="217" type="line"/>
      <point x="743" y="315" type="line"/>
      <point x="721" y="413" type="line" smooth="yes"/>
      <point x="717" y="430"/>
      <point x="700" y="444"/>
      <point x="682" y="444" type="curve" smooth="yes"/>
      <point x="506" y="444" type="line"/>
      <point x="459" y="470" type="line"/>
      <point x="416" y="537" type="line"/>
      <point x="395" y="615" type="line" smooth="yes"/>
      <point x="389" y="635"/>
      <point x="366" y="648"/>
      <point x="345" y="643" type="curve" smooth="yes"/>
      <point x="325" y="637"/>
      <point x="312" y="614"/>
      <point x="317" y="593" type="curve" smooth="yes"/>
      <point x="340" y="510" type="line" smooth="yes"/>
      <point x="341" y="507"/>
      <point x="343" y="502"/>
      <point x="345" y="499" type="curve" smooth="yes"/>
      <point x="397" y="419" type="line" smooth="yes"/>
      <point x="400" y="414"/>
      <point x="406" y="408"/>
      <point x="411" y="405" type="curve" smooth="yes"/>
      <point x="477" y="369" type="line" smooth="yes"/>
      <point x="482" y="366"/>
      <point x="490" y="364"/>
      <point x="496" y="364" type="curve" smooth="yes"/>
      <point x="650" y="364" type="line"/>
      <point x="667" y="293" type="line"/>
      <point x="697" y="191" type="line"/>
      <point x="717" y="133" type="line"/>
      <point x="654" y="77" type="line"/>
      <point x="517" y="44" type="line"/>
      <point x="364" y="44" type="line"/>
      <point x="212" y="76" type="line"/>
      <point x="177" y="130" type="line"/>
      <point x="187" y="199" type="line" smooth="yes"/>
      <point x="188" y="205"/>
      <point x="186" y="216"/>
      <point x="182" y="222" type="curve" smooth="yes"/>
      <point x="135" y="315" type="line"/>
      <point x="130" y="399" type="line"/>
      <point x="158" y="491" type="line"/>
      <point x="197" y="589" type="line" smooth="yes"/>
      <point x="199" y="593"/>
      <point x="200" y="599"/>
      <point x="200" y="603" type="curve" smooth="yes"/>
      <point x="202" y="682" type="line"/>
      <point x="214" y="735" type="line"/>
      <point x="336" y="764" type="line"/>
      <point x="531" y="764" type="line"/>
      <point x="610" y="732" type="line"/>
      <point x="715" y="662" type="line"/>
      <point x="739" y="591" type="line" smooth="yes"/>
      <point x="746" y="571"/>
      <point x="769" y="559"/>
      <point x="790" y="566" type="curve" smooth="yes"/>
      <point x="810" y="573"/>
      <point x="822" y="596"/>
      <point x="815" y="617" type="curve" smooth="yes"/>
      <point x="786" y="700" type="line" smooth="yes"/>
      <point x="784" y="707"/>
      <point x="777" y="716"/>
      <point x="771" y="721" type="curve" smooth="yes"/>
      <point x="652" y="801" type="line" smooth="yes"/>
      <point x="650" y="802"/>
      <point x="646" y="804"/>
      <point x="644" y="805" type="curve" smooth="yes"/>
      <point x="554" y="841" type="line" smooth="yes"/>
      <point x="550" y="843"/>
      <point x="543" y="844"/>
      <point x="539" y="844" type="curve" smooth="yes"/>
      <point x="331" y="844" type="line" smooth="yes"/>
      <point x="328" y="844"/>
      <point x="324" y="844"/>
      <point x="322" y="843" type="curve" smooth="yes"/>
      <point x="171" y="807" type="line" smooth="yes"/>
      <point x="158" y="803"/>
      <point x="144" y="790"/>
      <point x="141" y="777" type="curve" smooth="yes"/>
      <point x="123" y="696" type="line" smooth="yes"/>
      <point x="123" y="694"/>
      <point x="122" y="690"/>
      <point x="122" y="688" type="curve" smooth="yes"/>
      <point x="120" y="612" type="line"/>
      <point x="83" y="519" type="line" smooth="yes"/>
      <point x="82" y="518"/>
      <point x="82" y="516"/>
      <point x="82" y="515" type="curve" smooth="yes"/>
      <point x="52" y="415" type="line" smooth="yes"/>
      <point x="51" y="412"/>
      <point x="50" y="406"/>
      <point x="50" y="402" type="curve" smooth="yes"/>
      <point x="55" y="302" type="line" smooth="yes"/>
      <point x="55" y="297"/>
      <point x="57" y="290"/>
      <point x="60" y="286" type="curve" smooth="yes"/>
      <point x="106" y="197" type="line"/>
      <point x="96" y="126" type="line" smooth="yes"/>
      <point x="95" y="118"/>
      <point x="97" y="106"/>
      <point x="102" y="99" type="curve" smooth="yes"/>
      <point x="154" y="18" type="line" smooth="yes"/>
      <point x="159" y="11"/>
      <point x="171" y="3"/>
      <point x="180" y="1" type="curve" smooth="yes"/>
      <point x="352" y="-35" type="line" smooth="yes"/>
      <point x="354" y="-36"/>
      <point x="358" y="-36"/>
    </contour>
  </outline>
</glyph>
<glyph name="H" format="1">
  <advance width="855"/>
  <unicode hex="0048"/>
  <outline>
    <contour>
      <point x="763" y="-44" type="curve" smooth="yes"/>
      <point x="785" y="-43"/>
      <point x="802" y="-24"/>
      <point x="801" y="-2" type="curve" smooth="yes"/>
      <point x="796" y="95" type="line"/>
      <point x="805" y="192" type="line" smooth="yes"/>
      <point x="805" y="198"/>
      <point x="804" y="206"/>
      <point x="802" y="211" type="curve" smooth="yes"/>
      <point x="766" y="297" type="line"/>
      <point x="798" y="382" type="line" smooth="yes"/>
      <point x="800" y="390"/>
      <point x="800" y="402"/>
      <point x="797" y="410" type="curve" smooth="yes"/>
      <point x="759" y="510" type="line"/>
      <point x="731" y="597" type="line"/>
      <point x="740" y="628" type="line"/>
      <point x="766" y="677" type="line" smooth="yes"/>
      <point x="781" y="706"/>
      <point x="763" y="736"/>
      <point x="731" y="736" type="curve" smooth="yes"/>
      <point x="717" y="736" type="line" smooth="yes"/>
      <point x="700" y="736"/>
      <point x="683" y="723"/>
      <point x="678" y="707" type="curve" smooth="yes"/>
      <point x="665" y="658" type="line"/>
      <point x="642" y="615" type="line" smooth="yes"/>
      <point x="640" y="611"/>
      <point x="638" y="604"/>
      <point x="637" y="600" type="curve" smooth="yes"/>
      <point x="630" y="525" type="line"/>
      <point x="594" y="465" type="line"/>
      <point x="516" y="436" type="line"/>
      <point x="317" y="436" type="line" smooth="yes"/>
      <point x="313" y="436"/>
      <point x="308" y="435"/>
      <point x="304" y="434" type="curve" smooth="yes"/>
      <point x="195" y="398" type="line" smooth="yes"/>
      <point x="191" y="396"/>
      <point x="184" y="392"/>
      <point x="181" y="389" type="curve" smooth="yes"/>
      <point x="146" y="357" type="line"/>
      <point x="148" y="385" type="line"/>
      <point x="194" y="478" type="line" smooth="yes"/>
      <point x="200" y="490"/>
      <point x="198" y="508"/>
      <point x="191" y="518" type="curve" smooth="yes"/>
      <point x="134" y="603" type="line"/>
      <point x="159" y="684" type="line" smooth="yes"/>
      <point x="161" y="691"/>
      <point x="161" y="701"/>
      <point x="159" y="708" type="curve" smooth="yes"/>
      <point x="128" y="808" type="line" smooth="yes"/>
      <point x="122" y="828"/>
      <point x="99" y="841"/>
      <point x="78" y="834" type="curve" smooth="yes"/>
      <point x="58" y="828"/>
      <point x="45" y="805"/>
      <point x="52" y="784" type="curve" smooth="yes"/>
      <point x="79" y="696" type="line"/>
      <point x="52" y="608" type="line" smooth="yes"/>
      <point x="49" y="598"/>
      <point x="51" y="582"/>
      <point x="57" y="574" type="curve" smooth="yes"/>
      <point x="112" y="493" type="line"/>
      <point x="73" y="414" type="line" smooth="yes"/>
      <point x="71" y="410"/>
      <point x="70" y="404"/>
      <point x="69" y="400" type="curve" smooth="yes"/>
      <point x="60" y="300" type="line" smooth="yes"/>
      <point x="60" y="298"/>
      <point x="60" y="296"/>
      <point x="60" y="294" type="curve" smooth="yes"/>
      <point x="65" y="194" type="line" smooth="yes"/>
      <point x="65" y="191"/>
      <point x="66" y="185"/>
      <point x="67" y="182" type="curve" smooth="yes"/>
      <point x="88" y="128" type="line"/>
      <point x="81" y="112" type="line" smooth="yes"/>
      <point x="69" y="83"/>
      <point x="87" y="56"/>
      <point x="118" y="56" type="curve" smooth="yes"/>
      <point x="142" y="56" type="line" smooth="yes"/>
      <point x="172" y="56"/>
      <point x="190" y="82"/>
      <point x="180" y="110" type="curve" smooth="yes"/>
      <point x="174" y="126" type="line"/>
      <point x="197" y="180" type="line" smooth="yes"/>
      <point x="201" y="190"/>
      <point x="200" y="205"/>
      <point x="196" y="214" type="curve" smooth="yes"/>
      <point x="168" y="270" type="line"/>
      <point x="228" y="324" type="line"/>
      <point x="323" y="356" type="line"/>
      <point x="523" y="356" type="line" smooth="yes"/>
      <point x="527" y="356"/>
      <point x="533" y="357"/>
      <point x="537" y="358" type="curve" smooth="yes"/>
      <point x="635" y="395" type="line" smooth="yes"/>
      <point x="642" y="397"/>
      <point x="651" y="405"/>
      <point x="655" y="412" type="curve" smooth="yes"/>
      <point x="689" y="469" type="line"/>
      <point x="717" y="396" type="line"/>
      <point x="685" y="310" type="line" smooth="yes"/>
      <point x="682" y="302"/>
      <point x="683" y="289"/>
      <point x="686" y="281" type="curve" smooth="yes"/>
      <point x="724" y="190" type="line"/>
      <point x="716" y="100" type="line" smooth="yes"/>
      <point x="716" y="98"/>
      <point x="716" y="96"/>
      <point x="716" y="94" type="curve" smooth="yes"/>
      <point x="721" y="-6" type="line" smooth="yes"/>
      <point x="722" y="-28"/>
      <point x="741" y="-45"/>
    </contour>
  </outline>
</glyph>
<glyph name="I" format="1">
  <advance width="852"/>
  <unicode hex="0049"/>
  <outline>
    <contour>
      <point x="90" y="-41" type="curve" smooth="yes"/>
      <point x="664" y="-41" type="line" smooth="yes"/>
      <point x="715" y="-41"/>
      <point x="720" y="32"/>
      <point x="670" y="39" type="curve" smooth="yes"/>
      <point x="613" y="47" type="line"/>
      <point x="511" y="53" type="line"/>
      <point x="475" y="76" type="line"/>
      <point x="511" y="185" type="line" smooth="yes"/>
      <point x="512" y="189"/>
      <point x="513" y="196"/>
      <point x="513" y="200" type="curve" smooth="yes"/>
      <point x="509" y="300" type="line" smooth="yes"/>
      <point x="509" y="305"/>
      <point x="507" y="313"/>
      <point x="504" y="317" type="curve" smooth="yes"/>
      <point x="460" y="400" type="line"/>
      <point x="499" y="482" type="line" smooth="yes"/>
      <point x="504" y="492"/>
      <point x="504" y="508"/>
      <point x="499" y="517" type="curve" smooth="yes"/>
      <point x="450" y="616" type="line"/>
      <point x="397" y="753" type="line" smooth="yes"/>
      <point x="396" y="755"/>
      <point x="395" y="757"/>
      <point x="394" y="759" type="curve"/>
      <point x="762" y="759" type="line" smooth="yes"/>
      <point x="784" y="759"/>
      <point x="802" y="777"/>
      <point x="802" y="799" type="curve" smooth="yes"/>
      <point x="802" y="821"/>
      <point x="784" y="839"/>
      <point x="762" y="839" type="curve" smooth="yes"/>
      <point x="311" y="839" type="line" smooth="yes"/>
      <point x="310" y="839"/>
      <point x="308" y="839"/>
      <point x="307" y="839" type="curve" smooth="yes"/>
      <point x="240" y="832" type="line" smooth="yes"/>
      <point x="191" y="827"/>
      <point x="190" y="759"/>
      <point x="239" y="752" type="curve" smooth="yes"/>
      <point x="282" y="747" type="line"/>
      <point x="326" y="714" type="line"/>
      <point x="376" y="586" type="line" smooth="yes"/>
      <point x="376" y="585"/>
      <point x="377" y="583"/>
      <point x="377" y="582" type="curve" smooth="yes"/>
      <point x="419" y="499" type="line"/>
      <point x="379" y="416" type="line" smooth="yes"/>
      <point x="374" y="406"/>
      <point x="374" y="390"/>
      <point x="380" y="380" type="curve" smooth="yes"/>
      <point x="429" y="288" type="line"/>
      <point x="433" y="204" type="line"/>
      <point x="389" y="72" type="line" smooth="yes"/>
      <point x="386" y="61"/>
      <point x="388" y="49"/>
      <point x="393" y="39" type="curve"/>
      <point x="90" y="39" type="line" smooth="yes"/>
      <point x="68" y="39"/>
      <point x="50" y="21"/>
      <point x="50" y="-1" type="curve" smooth="yes"/>
      <point x="50" y="-23"/>
      <point x="68" y="-41"/>
    </contour>
  </outline>
</glyph>
<glyph name="J" format="1">
  <advance width="786"/>
  <unicode hex="004A"/>
  <outline>
    <contour>
      <point x="90" y="-41" type="curve" smooth="yes"/>
      <point x="151" y="-41" type="line" smooth="yes"/>
      <point x="153" y="-41"/>
      <point x="157" y="-41"/>
      <point x="159" y="-40" type="curve" smooth="yes"/>
      <point x="328" y="-4" type="line" smooth="yes"/>
      <point x="334" y="-3"/>
      <point x="342" y="1"/>
      <point x="346" y="5" type="curve" smooth="yes"/>
      <point x="436" y="85" type="line" smooth="yes"/>
      <point x="449" y="97"/>
      <point x="452" y="118"/>
      <point x="444" y="134" type="curve" smooth="yes"/>
      <point x="406" y="206" type="line"/>
      <point x="413" y="295" type="line" smooth="yes"/>
      <point x="413" y="299"/>
      <point x="413" y="304"/>
      <point x="412" y="307" type="curve" smooth="yes"/>
      <point x="391" y="402" type="line"/>
      <point x="398" y="494" type="line"/>
      <point x="416" y="593" type="line" smooth="yes"/>
      <point x="417" y="595"/>
      <point x="417" y="599"/>
      <point x="417" y="602" type="curve" smooth="yes"/>
      <point x="410" y="741" type="line" smooth="yes"/>
      <point x="409" y="747"/>
      <point x="407" y="754"/>
      <point x="404" y="759" type="curve"/>
      <point x="696" y="759" type="line" smooth="yes"/>
      <point x="718" y="759"/>
      <point x="736" y="777"/>
      <point x="736" y="799" type="curve" smooth="yes"/>
      <point x="736" y="821"/>
      <point x="718" y="839"/>
      <point x="696" y="839" type="curve" smooth="yes"/>
      <point x="199" y="839" type="line" smooth="yes"/>
      <point x="149" y="839"/>
      <point x="143" y="768"/>
      <point x="192" y="760" type="curve" smooth="yes"/>
      <point x="261" y="748" type="line"/>
      <point x="331" y="714" type="line"/>
      <point x="337" y="603" type="line"/>
      <point x="319" y="507" type="line" smooth="yes"/>
      <point x="318" y="506"/>
      <point x="318" y="504"/>
      <point x="318" y="502" type="curve" smooth="yes"/>
      <point x="311" y="402" type="line" smooth="yes"/>
      <point x="311" y="399"/>
      <point x="311" y="394"/>
      <point x="312" y="390" type="curve" smooth="yes"/>
      <point x="333" y="296" type="line"/>
      <point x="325" y="201" type="line" smooth="yes"/>
      <point x="325" y="195"/>
      <point x="327" y="185"/>
      <point x="330" y="179" type="curve" smooth="yes"/>
      <point x="359" y="124" type="line"/>
      <point x="301" y="72" type="line"/>
      <point x="147" y="39" type="line"/>
      <point x="90" y="39" type="line" smooth="yes"/>
      <point x="68" y="39"/>
      <point x="50" y="21"/>
      <point x="50" y="-1" type="curve" smooth="yes"/>
      <point x="50" y="-23"/>
      <point x="68" y="-41"/>
    </contour>
  </outline>
</glyph>
<glyph name="K" format="1">
  <advance width="848"/>
  <unicode hex="004B"/>
  <outline>
    <contour>
      <point x="740" y="-15" type="curve" smooth="yes"/>
      <point x="793" y="86" type="line" smooth="yes"/>
      <point x="797" y="94"/>
      <point x="799" y="106"/>
      <point x="797" y="114" type="curve" smooth="yes"/>
      <point x="775" y="215" type="line" smooth="yes"/>
      <point x="775" y="217"/>
      <point x="773" y="221"/>
      <point x="772" y="224" type="curve" smooth="yes"/>
      <point x="702" y="365" type="line" smooth="yes"/>
      <point x="699" y="370"/>
      <point x="695" y="376"/>
      <point x="691" y="379" type="curve" smooth="yes"/>
      <point x="662" y="402" type="line"/>
      <point x="668" y="403"/>
      <point x="677" y="409"/>
      <point x="682" y="415" type="curve" smooth="yes"/>
      <point x="746" y="495" type="line" smooth="yes"/>
      <point x="750" y="499"/>
      <point x="753" y="507"/>
      <point x="754" y="512" type="curve" smooth="yes"/>
      <point x="773" y="595" type="line"/>
      <point x="791" y="697" type="line" smooth="yes"/>
      <point x="792" y="705"/>
      <point x="790" y="717"/>
      <point x="786" y="724" type="curve" smooth="yes"/>
      <point x="726" y="824" type="line" smooth="yes"/>
      <point x="715" y="843"/>
      <point x="690" y="849"/>
      <point x="672" y="838" type="curve" smooth="yes"/>
      <point x="653" y="827"/>
      <point x="647" y="802"/>
      <point x="658" y="784" type="curve" smooth="yes"/>
      <point x="710" y="696" type="line"/>
      <point x="695" y="613" type="line"/>
      <point x="678" y="538" type="line"/>
      <point x="627" y="475" type="line"/>
      <point x="512" y="444" type="line"/>
      <point x="270" y="444" type="line" smooth="yes"/>
      <point x="266" y="444"/>
      <point x="260" y="443"/>
      <point x="256" y="441" type="curve" smooth="yes"/>
      <point x="159" y="405" type="line" smooth="yes"/>
      <point x="151" y="402"/>
      <point x="142" y="394"/>
      <point x="138" y="385" type="curve"/>
      <point x="133" y="398" type="line"/>
      <point x="191" y="481" type="line" smooth="yes"/>
      <point x="198" y="492"/>
      <point x="200" y="509"/>
      <point x="194" y="521" type="curve" smooth="yes"/>
      <point x="152" y="613" type="line"/>
      <point x="153" y="696" type="line"/>
      <point x="190" y="789" type="line" smooth="yes"/>
      <point x="198" y="809"/>
      <point x="188" y="833"/>
      <point x="168" y="841" type="curve" smooth="yes"/>
      <point x="148" y="849"/>
      <point x="124" y="839"/>
      <point x="116" y="819" type="curve" smooth="yes"/>
      <point x="76" y="719" type="line" smooth="yes"/>
      <point x="74" y="715"/>
      <point x="73" y="709"/>
      <point x="73" y="704" type="curve" smooth="yes"/>
      <point x="72" y="604" type="line" smooth="yes"/>
      <point x="72" y="599"/>
      <point x="74" y="592"/>
      <point x="76" y="587" type="curve" smooth="yes"/>
      <point x="112" y="508" type="line"/>
      <point x="56" y="427" type="line" smooth="yes"/>
      <point x="50" y="418"/>
      <point x="48" y="402"/>
      <point x="51" y="391" type="curve" smooth="yes"/>
      <point x="82" y="296" type="line"/>
      <point x="88" y="202" type="line" smooth="yes"/>
      <point x="88" y="200"/>
      <point x="89" y="197"/>
      <point x="89" y="195" type="curve" smooth="yes"/>
      <point x="95" y="169" type="line"/>
      <point x="71" y="122" type="line" smooth="yes"/>
      <point x="56" y="94"/>
      <point x="74" y="64"/>
      <point x="107" y="64" type="curve" smooth="yes"/>
      <point x="150" y="64" type="line" smooth="yes"/>
      <point x="177" y="64"/>
      <point x="195" y="86"/>
      <point x="189" y="113" type="curve" smooth="yes"/>
      <point x="179" y="158" type="line"/>
      <point x="194" y="186" type="line" smooth="yes"/>
      <point x="196" y="191"/>
      <point x="198" y="199"/>
      <point x="198" y="205" type="curve" smooth="yes"/>
      <point x="196" y="283" type="line"/>
      <point x="208" y="338" type="line"/>
      <point x="277" y="364" type="line"/>
      <point x="536" y="364" type="line"/>
      <point x="588" y="359" type="line"/>
      <point x="634" y="322" type="line"/>
      <point x="698" y="193" type="line"/>
      <point x="716" y="111" type="line"/>
      <point x="670" y="23" type="line" smooth="yes"/>
      <point x="660" y="3"/>
      <point x="667" y="-21"/>
      <point x="686" y="-31" type="curve" smooth="yes"/>
      <point x="706" y="-41"/>
      <point x="730" y="-34"/>
    </contour>
  </outline>
</glyph>
<glyph name="L" format="1">
  <advance width="852"/>
  <unicode hex="004C"/>
  <outline>
    <contour>
      <point x="375" y="-40" type="curve" smooth="yes"/>
      <point x="762" y="-40" type="line" smooth="yes"/>
      <point x="784" y="-40"/>
      <point x="802" y="-22"/>
      <point x="802" y="0" type="curve" smooth="yes"/>
      <point x="802" y="22"/>
      <point x="784" y="40"/>
      <point x="762" y="40" type="curve" smooth="yes"/>
      <point x="376" y="40" type="line"/>
      <point x="287" y="46" type="line"/>
      <point x="223" y="82" type="line"/>
      <point x="221" y="201" type="line" smooth="yes"/>
      <point x="221" y="206"/>
      <point x="219" y="215"/>
      <point x="216" y="220" type="curve" smooth="yes"/>
      <point x="164" y="313" type="line"/>
      <point x="152" y="404" type="line"/>
      <point x="143" y="504" type="line"/>
      <point x="132" y="599" type="line"/>
      <point x="147" y="694" type="line" smooth="yes"/>
      <point x="147" y="698"/>
      <point x="147" y="703"/>
      <point x="146" y="707" type="curve" smooth="yes"/>
      <point x="129" y="807" type="line" smooth="yes"/>
      <point x="126" y="828"/>
      <point x="105" y="843"/>
      <point x="83" y="839" type="curve" smooth="yes"/>
      <point x="62" y="836"/>
      <point x="47" y="815"/>
      <point x="51" y="793" type="curve" smooth="yes"/>
      <point x="66" y="700" type="line"/>
      <point x="52" y="606" type="line" smooth="yes"/>
      <point x="52" y="603"/>
      <point x="52" y="598"/>
      <point x="52" y="596" type="curve" smooth="yes"/>
      <point x="63" y="496" type="line"/>
      <point x="72" y="396" type="line"/>
      <point x="85" y="295" type="line" smooth="yes"/>
      <point x="86" y="291"/>
      <point x="88" y="284"/>
      <point x="90" y="280" type="curve" smooth="yes"/>
      <point x="141" y="189" type="line"/>
      <point x="143" y="58" type="line" smooth="yes"/>
      <point x="143" y="45"/>
      <point x="152" y="30"/>
      <point x="164" y="23" type="curve" smooth="yes"/>
      <point x="256" y="-28" type="line" smooth="yes"/>
      <point x="260" y="-30"/>
      <point x="268" y="-33"/>
      <point x="273" y="-33" type="curve" smooth="yes"/>
      <point x="372" y="-40" type="line" smooth="yes"/>
      <point x="373" y="-40"/>
      <point x="374" y="-40"/>
    </contour>
  </outline>
</glyph>
<glyph name="M" format="1">
  <advance width="839"/>
  <unicode hex="004D"/>
  <outline>
    <contour>
      <point x="154" y="-4" type="curve" smooth="yes"/>
      <point x="162" y="96" type="line" smooth="yes"/>
      <point x="162" y="99"/>
      <point x="162" y="104"/>
      <point x="161" y="107" type="curve" smooth="yes"/>
      <point x="143" y="196" type="line"/>
      <point x="175" y="286" type="line" smooth="yes"/>
      <point x="176" y="290"/>
      <point x="177" y="298"/>
      <point x="177" y="303" type="curve" smooth="yes"/>
      <point x="167" y="403" type="line" smooth="yes"/>
      <point x="167" y="404"/>
      <point x="166" y="407"/>
      <point x="166" y="408" type="curve" smooth="yes"/>
      <point x="143" y="506" type="line"/>
      <point x="131" y="594" type="line"/>
      <point x="169" y="684" type="line" smooth="yes"/>
      <point x="170" y="685"/>
      <point x="171" y="689"/>
      <point x="171" y="691" type="curve" smooth="yes"/>
      <point x="185" y="759" type="line"/>
      <point x="241" y="759" type="line"/>
      <point x="259" y="754" type="line"/>
      <point x="359" y="713" type="line"/>
      <point x="374" y="593" type="line"/>
      <point x="387" y="508" type="line"/>
      <point x="329" y="421" type="line" smooth="yes"/>
      <point x="310" y="392"/>
      <point x="328" y="359"/>
      <point x="363" y="359" type="curve" smooth="yes"/>
      <point x="366" y="359" type="line" smooth="yes"/>
      <point x="376" y="359"/>
      <point x="389" y="365"/>
      <point x="396" y="372" type="curve" smooth="yes"/>
      <point x="487" y="472" type="line" smooth="yes"/>
      <point x="493" y="478"/>
      <point x="498" y="490"/>
      <point x="498" y="499" type="curve" smooth="yes"/>
      <point x="498" y="599" type="line" smooth="yes"/>
      <point x="498" y="603"/>
      <point x="497" y="610"/>
      <point x="495" y="614" type="curve" smooth="yes"/>
      <point x="454" y="719" type="line"/>
      <point x="530" y="753" type="line"/>
      <point x="580" y="759" type="line"/>
      <point x="660" y="759" type="line"/>
      <point x="647" y="709" type="line" smooth="yes"/>
      <point x="645" y="700"/>
      <point x="647" y="686"/>
      <point x="652" y="677" type="curve" smooth="yes"/>
      <point x="701" y="602" type="line"/>
      <point x="638" y="524" type="line" smooth="yes"/>
      <point x="630" y="514"/>
      <point x="627" y="496"/>
      <point x="632" y="484" type="curve" smooth="yes"/>
      <point x="670" y="390" type="line"/>
      <point x="676" y="297" type="line" smooth="yes"/>
      <point x="676" y="295"/>
      <point x="676" y="293"/>
      <point x="677" y="291" type="curve" smooth="yes"/>
      <point x="694" y="203" type="line"/>
      <point x="658" y="114" type="line" smooth="yes"/>
      <point x="655" y="106"/>
      <point x="655" y="92"/>
      <point x="658" y="84" type="curve" smooth="yes"/>
      <point x="700" y="-16" type="line" smooth="yes"/>
      <point x="708" y="-36"/>
      <point x="733" y="-46"/>
      <point x="752" y="-38" type="curve" smooth="yes"/>
      <point x="772" y="-30"/>
      <point x="782" y="-5"/>
      <point x="774" y="14" type="curve" smooth="yes"/>
      <point x="738" y="99" type="line"/>
      <point x="773" y="184" type="line" smooth="yes"/>
      <point x="776" y="190"/>
      <point x="777" y="200"/>
      <point x="775" y="207" type="curve" smooth="yes"/>
      <point x="756" y="304" type="line"/>
      <point x="750" y="401" type="line" smooth="yes"/>
      <point x="750" y="405"/>
      <point x="748" y="411"/>
      <point x="747" y="414" type="curve" smooth="yes"/>
      <point x="715" y="492" type="line"/>
      <point x="781" y="574" type="line" smooth="yes"/>
      <point x="791" y="586"/>
      <point x="792" y="607"/>
      <point x="784" y="621" type="curve" smooth="yes"/>
      <point x="729" y="706" type="line"/>
      <point x="751" y="789" type="line" smooth="yes"/>
      <point x="758" y="816"/>
      <point x="740" y="839"/>
      <point x="712" y="839" type="curve" smooth="yes"/>
      <point x="578" y="839" type="line" smooth="yes"/>
      <point x="577" y="839"/>
      <point x="575" y="839"/>
      <point x="573" y="839" type="curve" smooth="yes"/>
      <point x="515" y="832" type="line" smooth="yes"/>
      <point x="512" y="831"/>
      <point x="506" y="830"/>
      <point x="503" y="829" type="curve" smooth="yes"/>
      <point x="399" y="783" type="line"/>
      <point x="287" y="829" type="line" smooth="yes"/>
      <point x="286" y="830"/>
      <point x="284" y="830"/>
      <point x="282" y="831" type="curve" smooth="yes"/>
      <point x="256" y="838" type="line" smooth="yes"/>
      <point x="254" y="838"/>
      <point x="249" y="839"/>
      <point x="246" y="839" type="curve" smooth="yes"/>
      <point x="153" y="839" type="line" smooth="yes"/>
      <point x="135" y="839"/>
      <point x="118" y="825"/>
      <point x="114" y="807" type="curve" smooth="yes"/>
      <point x="94" y="711" type="line"/>
      <point x="53" y="614" type="line" smooth="yes"/>
      <point x="51" y="609"/>
      <point x="50" y="599"/>
      <point x="50" y="593" type="curve" smooth="yes"/>
      <point x="64" y="493" type="line" smooth="yes"/>
      <point x="65" y="493"/>
      <point x="65" y="491"/>
      <point x="65" y="490" type="curve" smooth="yes"/>
      <point x="87" y="393" type="line"/>
      <point x="96" y="304" type="line"/>
      <point x="64" y="212" type="line" smooth="yes"/>
      <point x="62" y="207"/>
      <point x="62" y="197"/>
      <point x="63" y="191" type="curve" smooth="yes"/>
      <point x="82" y="97" type="line"/>
      <point x="74" y="2" type="line" smooth="yes"/>
      <point x="72" y="-19"/>
      <point x="89" y="-39"/>
      <point x="111" y="-41" type="curve" smooth="yes"/>
      <point x="132" y="-43"/>
      <point x="152" y="-26"/>
    </contour>
  </outline>
</glyph>
<glyph name="N" format="1">
  <advance width="867"/>
  <unicode hex="004E"/>
  <outline>
    <contour>
      <point x="601" y="-41" type="curve" smooth="yes"/>
      <point x="740" y="-41" type="line" smooth="yes"/>
      <point x="766" y="-41"/>
      <point x="784" y="-19"/>
      <point x="779" y="6" type="curve" smooth="yes"/>
      <point x="762" y="96" type="line"/>
      <point x="796" y="185" type="line" smooth="yes"/>
      <point x="796" y="187"/>
      <point x="797" y="190"/>
      <point x="797" y="192" type="curve" smooth="yes"/>
      <point x="816" y="292" type="line" smooth="yes"/>
      <point x="817" y="297"/>
      <point x="817" y="305"/>
      <point x="815" y="310" type="curve" smooth="yes"/>
      <point x="788" y="403" type="line"/>
      <point x="796" y="496" type="line" smooth="yes"/>
      <point x="796" y="500"/>
      <point x="795" y="508"/>
      <point x="794" y="512" type="curve" smooth="yes"/>
      <point x="758" y="614" type="line"/>
      <point x="725" y="696" type="line"/>
      <point x="771" y="780" type="line" smooth="yes"/>
      <point x="781" y="799"/>
      <point x="774" y="824"/>
      <point x="755" y="834" type="curve" smooth="yes"/>
      <point x="736" y="844"/>
      <point x="711" y="837"/>
      <point x="701" y="818" type="curve" smooth="yes"/>
      <point x="646" y="718" type="line" smooth="yes"/>
      <point x="641" y="709"/>
      <point x="640" y="694"/>
      <point x="644" y="684" type="curve" smooth="yes"/>
      <point x="684" y="584" type="line"/>
      <point x="715" y="494" type="line"/>
      <point x="708" y="402" type="line" smooth="yes"/>
      <point x="708" y="398"/>
      <point x="708" y="392"/>
      <point x="710" y="388" type="curve" smooth="yes"/>
      <point x="736" y="297" type="line"/>
      <point x="719" y="210" type="line"/>
      <point x="683" y="113" type="line" smooth="yes"/>
      <point x="681" y="107"/>
      <point x="681" y="98"/>
      <point x="682" y="92" type="curve" smooth="yes"/>
      <point x="692" y="39" type="line"/>
      <point x="603" y="39" type="line"/>
      <point x="534" y="45" type="line"/>
      <point x="467" y="78" type="line"/>
      <point x="497" y="188" type="line" smooth="yes"/>
      <point x="500" y="198"/>
      <point x="498" y="213"/>
      <point x="492" y="221" type="curve" smooth="yes"/>
      <point x="432" y="310" type="line"/>
      <point x="436" y="387" type="line"/>
      <point x="490" y="478" type="line" smooth="yes"/>
      <point x="495" y="486"/>
      <point x="497" y="500"/>
      <point x="495" y="509" type="curve" smooth="yes"/>
      <point x="469" y="605" type="line"/>
      <point x="465" y="742" type="line" smooth="yes"/>
      <point x="464" y="755"/>
      <point x="454" y="771"/>
      <point x="442" y="777" type="curve" smooth="yes"/>
      <point x="331" y="828" type="line" smooth="yes"/>
      <point x="327" y="830"/>
      <point x="322" y="831"/>
      <point x="318" y="832" type="curve" smooth="yes"/>
      <point x="249" y="839" type="line" smooth="yes"/>
      <point x="248" y="839"/>
      <point x="246" y="839"/>
      <point x="245" y="839" type="curve" smooth="yes"/>
      <point x="147" y="839" type="line" smooth="yes"/>
      <point x="129" y="839"/>
      <point x="111" y="824"/>
      <point x="108" y="806" type="curve" smooth="yes"/>
      <point x="89" y="706" type="line"/>
      <point x="77" y="603" type="line" smooth="yes"/>
      <point x="77" y="598"/>
      <point x="78" y="589"/>
      <point x="80" y="584" type="curve" smooth="yes"/>
      <point x="112" y="504" type="line"/>
      <point x="57" y="421" type="line" smooth="yes"/>
      <point x="52" y="415"/>
      <point x="49" y="403"/>
      <point x="50" y="395" type="curve" smooth="yes"/>
      <point x="59" y="295" type="line" smooth="yes"/>
      <point x="60" y="289"/>
      <point x="63" y="280"/>
      <point x="67" y="275" type="curve" smooth="yes"/>
      <point x="122" y="200" type="line"/>
      <point x="60" y="124" type="line" smooth="yes"/>
      <point x="49" y="111"/>
      <point x="49" y="88"/>
      <point x="60" y="74" type="curve" smooth="yes"/>
      <point x="139" y="-26" type="line" smooth="yes"/>
      <point x="152" y="-43"/>
      <point x="178" y="-46"/>
      <point x="195" y="-32" type="curve" smooth="yes"/>
      <point x="212" y="-19"/>
      <point x="215" y="7"/>
      <point x="201" y="24" type="curve" smooth="yes"/>
      <point x="142" y="99" type="line"/>
      <point x="204" y="174" type="line" smooth="yes"/>
      <point x="215" y="187"/>
      <point x="215" y="209"/>
      <point x="205" y="223" type="curve" smooth="yes"/>
      <point x="138" y="314" type="line"/>
      <point x="131" y="388" type="line"/>
      <point x="190" y="477" type="line" smooth="yes"/>
      <point x="197" y="486"/>
      <point x="198" y="503"/>
      <point x="194" y="514" type="curve" smooth="yes"/>
      <point x="158" y="605" type="line"/>
      <point x="167" y="692" type="line"/>
      <point x="180" y="759" type="line"/>
      <point x="243" y="759" type="line"/>
      <point x="303" y="753" type="line"/>
      <point x="385" y="715" type="line"/>
      <point x="389" y="598" type="line" smooth="yes"/>
      <point x="389" y="595"/>
      <point x="390" y="591"/>
      <point x="390" y="589" type="curve" smooth="yes"/>
      <point x="413" y="505" type="line"/>
      <point x="362" y="420" type="line" smooth="yes"/>
      <point x="359" y="415"/>
      <point x="356" y="406"/>
      <point x="356" y="401" type="curve" smooth="yes"/>
      <point x="352" y="301" type="line" smooth="yes"/>
      <point x="352" y="293"/>
      <point x="355" y="283"/>
      <point x="359" y="277" type="curve" smooth="yes"/>
      <point x="415" y="192" type="line"/>
      <point x="381" y="68" type="line" smooth="yes"/>
      <point x="376" y="51"/>
      <point x="385" y="30"/>
      <point x="401" y="22" type="curve" smooth="yes"/>
      <point x="505" y="-30" type="line" smooth="yes"/>
      <point x="509" y="-32"/>
      <point x="515" y="-34"/>
      <point x="519" y="-34" type="curve" smooth="yes"/>
      <point x="597" y="-41" type="line" smooth="yes"/>
      <point x="598" y="-41"/>
      <point x="600" y="-41"/>
    </contour>
  </outline>
</glyph>
<glyph name="O" format="1">
  <advance width="853"/>
  <unicode hex="004F"/>
  <outline>
    <contour>
      <point x="303" y="-41" type="curve" smooth="yes"/>
      <point x="453" y="-41" type="line" smooth="yes"/>
      <point x="475" y="-41"/>
      <point x="493" y="-23"/>
      <point x="493" y="-1" type="curve" smooth="yes"/>
      <point x="493" y="21"/>
      <point x="475" y="39"/>
      <point x="453" y="39" type="curve" smooth="yes"/>
      <point x="310" y="39" type="line"/>
      <point x="224" y="71" type="line"/>
      <point x="133" y="137" type="line"/>
      <point x="130" y="198" type="line"/>
      <point x="139" y="286" type="line"/>
      <point x="195" y="378" type="line" smooth="yes"/>
      <point x="203" y="391"/>
      <point x="202" y="410"/>
      <point x="194" y="422" type="curve" smooth="yes"/>
      <point x="139" y="500" type="line"/>
      <point x="188" y="578" type="line" smooth="yes"/>
      <point x="196" y="590"/>
      <point x="195" y="611"/>
      <point x="186" y="623" type="curve" smooth="yes"/>
      <point x="149" y="672" type="line"/>
      <point x="230" y="727" type="line"/>
      <point x="310" y="759" type="line"/>
      <point x="542" y="759" type="line"/>
      <point x="617" y="729" type="line"/>
      <point x="675" y="674" type="line"/>
      <point x="645" y="618" type="line" smooth="yes"/>
      <point x="639" y="607"/>
      <point x="639" y="590"/>
      <point x="645" y="579" type="curve" smooth="yes"/>
      <point x="691" y="498" type="line"/>
      <point x="651" y="417" type="line" smooth="yes"/>
      <point x="647" y="407"/>
      <point x="646" y="393"/>
      <point x="650" y="383" type="curve" smooth="yes"/>
      <point x="689" y="293" type="line"/>
      <point x="676" y="205" type="line" smooth="yes"/>
      <point x="675" y="197"/>
      <point x="678" y="186"/>
      <point x="681" y="179" type="curve" smooth="yes"/>
      <point x="717" y="117" type="line"/>
      <point x="687" y="71" type="line"/>
      <point x="529" y="38" type="line" smooth="yes"/>
      <point x="508" y="34"/>
      <point x="493" y="12"/>
      <point x="498" y="-9" type="curve" smooth="yes"/>
      <point x="502" y="-30"/>
      <point x="524" y="-45"/>
      <point x="545" y="-40" type="curve" smooth="yes"/>
      <point x="720" y="-4" type="line" smooth="yes"/>
      <point x="729" y="-2"/>
      <point x="740" y="6"/>
      <point x="745" y="13" type="curve" smooth="yes"/>
      <point x="797" y="94" type="line" smooth="yes"/>
      <point x="805" y="105"/>
      <point x="805" y="124"/>
      <point x="799" y="135" type="curve" smooth="yes"/>
      <point x="758" y="207" type="line"/>
      <point x="770" y="293" type="line" smooth="yes"/>
      <point x="770" y="300"/>
      <point x="769" y="309"/>
      <point x="767" y="315" type="curve" smooth="yes"/>
      <point x="731" y="398" type="line"/>
      <point x="772" y="481" type="line" smooth="yes"/>
      <point x="777" y="492"/>
      <point x="777" y="508"/>
      <point x="771" y="519" type="curve" smooth="yes"/>
      <point x="726" y="599" type="line"/>
      <point x="760" y="664" type="line" smooth="yes"/>
      <point x="768" y="678"/>
      <point x="764" y="700"/>
      <point x="752" y="712" type="curve" smooth="yes"/>
      <point x="667" y="792" type="line" smooth="yes"/>
      <point x="664" y="795"/>
      <point x="658" y="798"/>
      <point x="654" y="800" type="curve" smooth="yes"/>
      <point x="565" y="836" type="line" smooth="yes"/>
      <point x="561" y="838"/>
      <point x="554" y="839"/>
      <point x="550" y="839" type="curve" smooth="yes"/>
      <point x="302" y="839" type="line" smooth="yes"/>
      <point x="298" y="839"/>
      <point x="291" y="838"/>
      <point x="287" y="836" type="curve" smooth="yes"/>
      <point x="197" y="800" type="line" smooth="yes"/>
      <point x="194" y="799"/>
      <point x="191" y="797"/>
      <point x="189" y="796" type="curve" smooth="yes"/>
      <point x="70" y="715" type="line" smooth="yes"/>
      <point x="51" y="702"/>
      <point x="46" y="677"/>
      <point x="60" y="658" type="curve" smooth="yes"/>
      <point x="106" y="597" type="line"/>
      <point x="57" y="520" type="line" smooth="yes"/>
      <point x="49" y="508"/>
      <point x="50" y="488"/>
      <point x="58" y="476" type="curve" smooth="yes"/>
      <point x="113" y="397" type="line"/>
      <point x="66" y="320" type="line" smooth="yes"/>
      <point x="63" y="316"/>
      <point x="61" y="308"/>
      <point x="60" y="303" type="curve" smooth="yes"/>
      <point x="50" y="203" type="line" smooth="yes"/>
      <point x="50" y="201"/>
      <point x="50" y="199"/>
      <point x="50" y="197" type="curve" smooth="yes"/>
      <point x="54" y="114" type="line" smooth="yes"/>
      <point x="54" y="103"/>
      <point x="61" y="89"/>
      <point x="70" y="83" type="curve" smooth="yes"/>
      <point x="181" y="3" type="line" smooth="yes"/>
      <point x="184" y="1"/>
      <point x="188" y="-1"/>
      <point x="191" y="-2" type="curve" smooth="yes"/>
      <point x="289" y="-39" type="line" smooth="yes"/>
      <point x="293" y="-40"/>
      <point x="299" y="-41"/>
    </contour>
  </outline>
</glyph>
<glyph name="P" format="1">
  <advance width="864"/>
  <unicode hex="0050"/>
  <outline>
    <contour>
      <point x="147" y="-37" type="curve" smooth="yes"/>
      <point x="168" y="-34"/>
      <point x="184" y="-13"/>
      <point x="181" y="9" type="curve" smooth="yes"/>
      <point x="173" y="66" type="line"/>
      <point x="189" y="75"/>
      <point x="195" y="100"/>
      <point x="185" y="119" type="curve" smooth="yes"/>
      <point x="145" y="187" type="line"/>
      <point x="164" y="234" type="line"/>
      <point x="318" y="267" type="line"/>
      <point x="496" y="267" type="line" smooth="yes"/>
      <point x="498" y="267"/>
      <point x="502" y="267"/>
      <point x="504" y="268" type="curve" smooth="yes"/>
      <point x="683" y="304" type="line" smooth="yes"/>
      <point x="696" y="307"/>
      <point x="710" y="319"/>
      <point x="714" y="332" type="curve" smooth="yes"/>
      <point x="734" y="405" type="line"/>
      <point x="795" y="482" type="line" smooth="yes"/>
      <point x="799" y="487"/>
      <point x="803" y="496"/>
      <point x="804" y="503" type="curve" smooth="yes"/>
      <point x="814" y="599" type="line" smooth="yes"/>
      <point x="815" y="608"/>
      <point x="810" y="622"/>
      <point x="804" y="629" type="curve" smooth="yes"/>
      <point x="736" y="708" type="line"/>
      <point x="702" y="783" type="line" smooth="yes"/>
      <point x="697" y="793"/>
      <point x="685" y="804"/>
      <point x="674" y="806" type="curve" smooth="yes"/>
      <point x="514" y="842" type="line" smooth="yes"/>
      <point x="511" y="843"/>
      <point x="507" y="843"/>
      <point x="505" y="843" type="curve" smooth="yes"/>
      <point x="329" y="843" type="line" smooth="yes"/>
      <point x="327" y="843"/>
      <point x="323" y="843"/>
      <point x="321" y="842" type="curve" smooth="yes"/>
      <point x="136" y="806" type="line" smooth="yes"/>
      <point x="122" y="803"/>
      <point x="108" y="790"/>
      <point x="104" y="776" type="curve" smooth="yes"/>
      <point x="86" y="695" type="line" smooth="yes"/>
      <point x="84" y="686"/>
      <point x="86" y="673"/>
      <point x="91" y="665" type="curve" smooth="yes"/>
      <point x="135" y="592" type="line"/>
      <point x="135" y="518" type="line"/>
      <point x="59" y="429" type="line" smooth="yes"/>
      <point x="49" y="418"/>
      <point x="47" y="397"/>
      <point x="54" y="384" type="curve" smooth="yes"/>
      <point x="98" y="302" type="line"/>
      <point x="56" y="221" type="line" smooth="yes"/>
      <point x="52" y="213"/>
      <point x="51" y="199"/>
      <point x="54" y="190" type="curve" smooth="yes"/>
      <point x="88" y="94" type="line"/>
      <point x="101" y="-3" type="line" smooth="yes"/>
      <point x="104" y="-24"/>
      <point x="125" y="-40"/>
    </contour>
    <contour>
      <point x="306" y="346" type="curve" smooth="yes"/>
      <point x="179" y="319" type="line"/>
      <point x="178" y="322" type="line" smooth="yes"/>
      <point x="137" y="398" type="line"/>
      <point x="205" y="477" type="line" smooth="yes"/>
      <point x="211" y="483"/>
      <point x="215" y="495"/>
      <point x="215" y="503" type="curve" smooth="yes"/>
      <point x="215" y="603" type="line" smooth="yes"/>
      <point x="215" y="609"/>
      <point x="212" y="618"/>
      <point x="209" y="624" type="curve" smooth="yes"/>
      <point x="168" y="693" type="line"/>
      <point x="177" y="732" type="line"/>
      <point x="333" y="763" type="line"/>
      <point x="501" y="763" type="line"/>
      <point x="637" y="732" type="line"/>
      <point x="665" y="670" type="line" smooth="yes"/>
      <point x="666" y="667"/>
      <point x="669" y="663"/>
      <point x="671" y="660" type="curve" smooth="yes"/>
      <point x="732" y="590" type="line"/>
      <point x="725" y="523" type="line"/>
      <point x="666" y="449" type="line" smooth="yes"/>
      <point x="663" y="445"/>
      <point x="660" y="439"/>
      <point x="659" y="434" type="curve" smooth="yes"/>
      <point x="643" y="377" type="line"/>
      <point x="492" y="347" type="line"/>
      <point x="314" y="347" type="line" smooth="yes"/>
      <point x="312" y="347"/>
      <point x="308" y="347"/>
    </contour>
  </outline>
</glyph>
<glyph name="Q" format="1">
  <advance width="833"/>
  <unicode hex="0051"/>
  <outline>
    <contour>
      <point x="387" y="39" type="curve" smooth="yes"/>
      <point x="347" y="39" type="line"/>
      <point x="210" y="46" type="line"/>
      <point x="138" y="82" type="line"/>
      <point x="134" y="191" type="line"/>
      <point x="177" y="282" type="line" smooth="yes"/>
      <point x="181" y="290"/>
      <point x="182" y="303"/>
      <point x="179" y="312" type="curve" smooth="yes"/>
      <point x="149" y="401" type="line"/>
      <point x="169" y="490" type="line" smooth="yes"/>
      <point x="171" y="497"/>
      <point x="170" y="508"/>
      <point x="167" y="514" type="curve" smooth="yes"/>
      <point x="134" y="595" type="line"/>
      <point x="175" y="661" type="line" smooth="yes"/>
      <point x="176" y="662"/>
      <point x="177" y="663"/>
      <point x="177" y="664" type="curve" smooth="yes"/>
      <point x="211" y="731" type="line"/>
      <point x="278" y="759" type="line"/>
      <point x="512" y="759" type="line"/>
      <point x="599" y="728" type="line"/>
      <point x="663" y="663" type="line"/>
      <point x="679" y="589" type="line"/>
      <point x="700" y="507" type="line"/>
      <point x="640" y="422" type="line" smooth="yes"/>
      <point x="636" y="415"/>
      <point x="632" y="403"/>
      <point x="633" y="395" type="curve" smooth="yes"/>
      <point x="642" y="295" type="line" smooth="yes"/>
      <point x="642" y="292"/>
      <point x="644" y="286"/>
      <point x="645" y="283" type="curve" smooth="yes"/>
      <point x="666" y="236" type="line"/>
      <point x="591" y="232" type="line" smooth="yes"/>
      <point x="574" y="231"/>
      <point x="557" y="216"/>
      <point x="554" y="199" type="curve" smooth="yes"/>
      <point x="547" y="158" type="line"/>
      <point x="430" y="25" type="line" smooth="yes"/>
      <point x="427" y="22"/>
      <point x="425" y="18"/>
      <point x="423" y="14" type="curve"/>
      <point x="417" y="29"/>
      <point x="403" y="39"/>
    </contour>
    <contour>
      <point x="387" y="-41" type="line" smooth="yes"/>
      <point x="403" y="-41"/>
      <point x="417" y="-31"/>
      <point x="423" y="-16" type="curve"/>
      <point x="426" y="-22"/>
      <point x="429" y="-27"/>
      <point x="434" y="-31" type="curve" smooth="yes"/>
      <point x="450" y="-45"/>
      <point x="476" y="-44"/>
      <point x="490" y="-27" type="curve" smooth="yes"/>
      <point x="615" y="114" type="line" smooth="yes"/>
      <point x="619" y="119"/>
      <point x="623" y="128"/>
      <point x="625" y="134" type="curve" smooth="yes"/>
      <point x="628" y="154" type="line"/>
      <point x="727" y="159" type="line" smooth="yes"/>
      <point x="757" y="161"/>
      <point x="774" y="187"/>
      <point x="762" y="215" type="curve" smooth="yes"/>
      <point x="721" y="309" type="line"/>
      <point x="714" y="388" type="line"/>
      <point x="776" y="476" type="line" smooth="yes"/>
      <point x="782" y="484"/>
      <point x="784" y="499"/>
      <point x="782" y="509" type="curve" smooth="yes"/>
      <point x="757" y="609" type="line"/>
      <point x="739" y="691" type="line" smooth="yes"/>
      <point x="737" y="697"/>
      <point x="733" y="706"/>
      <point x="728" y="710" type="curve" smooth="yes"/>
      <point x="650" y="791" type="line" smooth="yes"/>
      <point x="646" y="795"/>
      <point x="639" y="799"/>
      <point x="634" y="801" type="curve" smooth="yes"/>
      <point x="532" y="837" type="line" smooth="yes"/>
      <point x="529" y="838"/>
      <point x="523" y="839"/>
      <point x="519" y="839" type="curve" smooth="yes"/>
      <point x="270" y="839" type="line" smooth="yes"/>
      <point x="266" y="839"/>
      <point x="259" y="838"/>
      <point x="255" y="836" type="curve" smooth="yes"/>
      <point x="166" y="800" type="line" smooth="yes"/>
      <point x="159" y="797"/>
      <point x="149" y="788"/>
      <point x="146" y="781" type="curve" smooth="yes"/>
      <point x="106" y="702" type="line"/>
      <point x="55" y="620" type="line" smooth="yes"/>
      <point x="49" y="611"/>
      <point x="48" y="594"/>
      <point x="52" y="584" type="curve" smooth="yes"/>
      <point x="88" y="495" type="line"/>
      <point x="69" y="408" type="line" smooth="yes"/>
      <point x="68" y="402"/>
      <point x="68" y="392"/>
      <point x="70" y="386" type="curve" smooth="yes"/>
      <point x="98" y="302" type="line"/>
      <point x="58" y="216" type="line" smooth="yes"/>
      <point x="56" y="211"/>
      <point x="54" y="203"/>
      <point x="54" y="198" type="curve" smooth="yes"/>
      <point x="59" y="56" type="line" smooth="yes"/>
      <point x="60" y="43"/>
      <point x="69" y="28"/>
      <point x="81" y="22" type="curve" smooth="yes"/>
      <point x="181" y="-30" type="line" smooth="yes"/>
      <point x="186" y="-32"/>
      <point x="193" y="-34"/>
      <point x="198" y="-34" type="curve" smooth="yes"/>
      <point x="344" y="-41" type="line" smooth="yes"/>
      <point x="345" y="-41"/>
      <point x="345" y="-41"/>
      <point x="346" y="-41" type="curve" smooth="yes"/>
    </contour>
  </outline>
</glyph>
<glyph name="R" format="1">
  <advance width="868"/>
  <unicode hex="0052"/>
  <outline>
    <contour>
      <point x="764" y="-42" type="curve" smooth="yes"/>
      <point x="784" y="-36"/>
      <point x="797" y="-13"/>
      <point x="790" y="8" type="curve" smooth="yes"/>
      <point x="759" y="110" type="line" smooth="yes"/>
      <point x="759" y="111"/>
      <point x="758" y="114"/>
      <point x="757" y="116" type="curve" smooth="yes"/>
      <point x="685" y="258" type="line" smooth="yes"/>
      <point x="682" y="262"/>
      <point x="677" y="269"/>
      <point x="672" y="272" type="curve" smooth="yes"/>
      <point x="659" y="282" type="line"/>
      <point x="714" y="293" type="line" smooth="yes"/>
      <point x="722" y="295"/>
      <point x="733" y="302"/>
      <point x="738" y="308" type="curve" smooth="yes"/>
      <point x="797" y="389" type="line" smooth="yes"/>
      <point x="801" y="393"/>
      <point x="804" y="402"/>
      <point x="805" y="407" type="curve" smooth="yes"/>
      <point x="817" y="490" type="line" smooth="yes"/>
      <point x="818" y="497"/>
      <point x="816" y="507"/>
      <point x="813" y="513" type="curve" smooth="yes"/>
      <point x="771" y="603" type="line"/>
      <point x="779" y="675" type="line" smooth="yes"/>
      <point x="780" y="685"/>
      <point x="776" y="699"/>
      <point x="769" y="707" type="curve" smooth="yes"/>
      <point x="693" y="787" type="line" smooth="yes"/>
      <point x="690" y="791"/>
      <point x="683" y="795"/>
      <point x="679" y="797" type="curve" smooth="yes"/>
      <point x="585" y="833" type="line" smooth="yes"/>
      <point x="582" y="835"/>
      <point x="575" y="836"/>
      <point x="571" y="836" type="curve" smooth="yes"/>
      <point x="371" y="836" type="line" smooth="yes"/>
      <point x="369" y="836"/>
      <point x="365" y="836"/>
      <point x="362" y="835" type="curve" smooth="yes"/>
      <point x="199" y="799" type="line" smooth="yes"/>
      <point x="192" y="797"/>
      <point x="183" y="792"/>
      <point x="178" y="787" type="curve" smooth="yes"/>
      <point x="103" y="706" type="line" smooth="yes"/>
      <point x="95" y="698"/>
      <point x="91" y="682"/>
      <point x="93" y="671" type="curve" smooth="yes"/>
      <point x="108" y="600" type="line"/>
      <point x="71" y="511" type="line" smooth="yes"/>
      <point x="68" y="505"/>
      <point x="67" y="493"/>
      <point x="69" y="486" type="curve" smooth="yes"/>
      <point x="94" y="386" type="line"/>
      <point x="119" y="304" type="line"/>
      <point x="57" y="220" type="line" smooth="yes"/>
      <point x="49" y="209"/>
      <point x="47" y="190"/>
      <point x="54" y="177" type="curve" smooth="yes"/>
      <point x="98" y="93" type="line"/>
      <point x="67" y="10" type="line" smooth="yes"/>
      <point x="59" y="-10"/>
      <point x="70" y="-34"/>
      <point x="90" y="-41" type="curve" smooth="yes"/>
      <point x="110" y="-49"/>
      <point x="134" y="-38"/>
      <point x="141" y="-18" type="curve" smooth="yes"/>
      <point x="179" y="82" type="line" smooth="yes"/>
      <point x="183" y="91"/>
      <point x="182" y="106"/>
      <point x="177" y="115" type="curve" smooth="yes"/>
      <point x="136" y="192" type="line"/>
      <point x="195" y="272" type="line" smooth="yes"/>
      <point x="202" y="281"/>
      <point x="204" y="297"/>
      <point x="201" y="307" type="curve" smooth="yes"/>
      <point x="172" y="406" type="line"/>
      <point x="150" y="493" type="line"/>
      <point x="187" y="581" type="line" smooth="yes"/>
      <point x="190" y="587"/>
      <point x="191" y="598"/>
      <point x="189" y="604" type="curve" smooth="yes"/>
      <point x="176" y="667" type="line"/>
      <point x="228" y="723" type="line"/>
      <point x="375" y="756" type="line"/>
      <point x="564" y="756" type="line"/>
      <point x="641" y="726" type="line"/>
      <point x="698" y="666" type="line"/>
      <point x="690" y="601" type="line" smooth="yes"/>
      <point x="690" y="594"/>
      <point x="691" y="585"/>
      <point x="694" y="579" type="curve" smooth="yes"/>
      <point x="736" y="490" type="line"/>
      <point x="727" y="428" type="line"/>
      <point x="683" y="368" type="line"/>
      <point x="525" y="336" type="line"/>
      <point x="252" y="336" type="line"/>
      <point x="252" y="256" type="line"/>
      <point x="558" y="256" type="line"/>
      <point x="618" y="213" type="line"/>
      <point x="684" y="83" type="line"/>
      <point x="714" y="-16" type="line" smooth="yes"/>
      <point x="720" y="-36"/>
      <point x="743" y="-49"/>
    </contour>
  </outline>
</glyph>
<glyph name="S" format="1">
  <advance width="812"/>
  <unicode hex="0053"/>
  <outline>
    <contour>
      <point x="251" y="-36" type="curve" smooth="yes"/>
      <point x="479" y="-36" type="line" smooth="yes"/>
      <point x="482" y="-36"/>
      <point x="486" y="-35"/>
      <point x="489" y="-35" type="curve" smooth="yes"/>
      <point x="634" y="2" type="line" smooth="yes"/>
      <point x="645" y="5"/>
      <point x="657" y="16"/>
      <point x="661" y="26" type="curve" smooth="yes"/>
      <point x="693" y="108" type="line" smooth="yes"/>
      <point x="695" y="112"/>
      <point x="696" y="118"/>
      <point x="696" y="123" type="curve" smooth="yes"/>
      <point x="696" y="204" type="line"/>
      <point x="712" y="343" type="line" smooth="yes"/>
      <point x="713" y="353"/>
      <point x="708" y="368"/>
      <point x="701" y="375" type="curve" smooth="yes"/>
      <point x="652" y="426" type="line" smooth="yes"/>
      <point x="646" y="432"/>
      <point x="634" y="437"/>
      <point x="626" y="438" type="curve" smooth="yes"/>
      <point x="519" y="444" type="line" smooth="yes"/>
      <point x="519" y="444"/>
      <point x="518" y="444"/>
      <point x="517" y="444" type="curve" smooth="yes"/>
      <point x="340" y="444" type="line"/>
      <point x="241" y="451" type="line"/>
      <point x="141" y="486" type="line"/>
      <point x="180" y="590" type="line" smooth="yes"/>
      <point x="181" y="594"/>
      <point x="182" y="599"/>
      <point x="182" y="603" type="curve" smooth="yes"/>
      <point x="184" y="684" type="line"/>
      <point x="191" y="735" type="line"/>
      <point x="319" y="764" type="line"/>
      <point x="474" y="764" type="line"/>
      <point x="640" y="733" type="line"/>
      <point x="665" y="675" type="line"/>
      <point x="683" y="595" type="line" smooth="yes"/>
      <point x="688" y="574"/>
      <point x="710" y="560"/>
      <point x="731" y="565" type="curve" smooth="yes"/>
      <point x="752" y="570"/>
      <point x="766" y="592"/>
      <point x="761" y="613" type="curve" smooth="yes"/>
      <point x="743" y="696" type="line" smooth="yes"/>
      <point x="742" y="698"/>
      <point x="741" y="702"/>
      <point x="740" y="703" type="curve" smooth="yes"/>
      <point x="705" y="784" type="line" smooth="yes"/>
      <point x="700" y="795"/>
      <point x="687" y="805"/>
      <point x="676" y="807" type="curve" smooth="yes"/>
      <point x="485" y="843" type="line" smooth="yes"/>
      <point x="483" y="844"/>
      <point x="480" y="844"/>
      <point x="478" y="844" type="curve" smooth="yes"/>
      <point x="315" y="844" type="line" smooth="yes"/>
      <point x="313" y="844"/>
      <point x="309" y="844"/>
      <point x="306" y="843" type="curve" smooth="yes"/>
      <point x="147" y="807" type="line" smooth="yes"/>
      <point x="132" y="803"/>
      <point x="118" y="788"/>
      <point x="116" y="773" type="curve" smooth="yes"/>
      <point x="105" y="692" type="line" smooth="yes"/>
      <point x="104" y="691"/>
      <point x="104" y="689"/>
      <point x="104" y="688" type="curve" smooth="yes"/>
      <point x="102" y="612" type="line"/>
      <point x="53" y="476" type="line" smooth="yes"/>
      <point x="45" y="455"/>
      <point x="56" y="432"/>
      <point x="77" y="425" type="curve" smooth="yes"/>
      <point x="219" y="373" type="line" smooth="yes"/>
      <point x="222" y="372"/>
      <point x="227" y="371"/>
      <point x="230" y="371" type="curve" smooth="yes"/>
      <point x="336" y="364" type="line" smooth="yes"/>
      <point x="337" y="364"/>
      <point x="338" y="364"/>
      <point x="339" y="364" type="curve" smooth="yes"/>
      <point x="516" y="364" type="line"/>
      <point x="605" y="359" type="line"/>
      <point x="630" y="333" type="line"/>
      <point x="616" y="210" type="line" smooth="yes"/>
      <point x="616" y="209"/>
      <point x="616" y="207"/>
      <point x="616" y="206" type="curve" smooth="yes"/>
      <point x="616" y="130" type="line"/>
      <point x="594" y="75" type="line"/>
      <point x="474" y="44" type="line"/>
      <point x="254" y="44" type="line"/>
      <point x="223" y="49" type="line"/>
      <point x="187" y="81" type="line"/>
      <point x="177" y="207" type="line" smooth="yes"/>
      <point x="175" y="229"/>
      <point x="155" y="246"/>
      <point x="134" y="244" type="curve" smooth="yes"/>
      <point x="112" y="242"/>
      <point x="95" y="222"/>
      <point x="97" y="201" type="curve" smooth="yes"/>
      <point x="108" y="59" type="line" smooth="yes"/>
      <point x="109" y="51"/>
      <point x="115" y="39"/>
      <point x="121" y="33" type="curve" smooth="yes"/>
      <point x="178" y="-19" type="line" smooth="yes"/>
      <point x="183" y="-23"/>
      <point x="192" y="-28"/>
      <point x="199" y="-29" type="curve" smooth="yes"/>
      <point x="245" y="-36" type="line" smooth="yes"/>
      <point x="247" y="-36"/>
      <point x="249" y="-36"/>
    </contour>
  </outline>
</glyph>
<glyph name="T" format="1">
  <advance width="692"/>
  <unicode hex="0054"/>
  <outline>
    <contour>
      <point x="424" y="-40" type="curve" smooth="yes"/>
      <point x="446" y="-37"/>
      <point x="462" y="-17"/>
      <point x="460" y="4" type="curve" smooth="yes"/>
      <point x="449" y="103" type="line"/>
      <point x="446" y="193" type="line"/>
      <point x="481" y="286" type="line" smooth="yes"/>
      <point x="484" y="293"/>
      <point x="484" y="305"/>
      <point x="482" y="313" type="curve" smooth="yes"/>
      <point x="448" y="413" type="line"/>
      <point x="425" y="498" type="line"/>
      <point x="456" y="581" type="line"/>
      <point x="509" y="658" type="line" smooth="yes"/>
      <point x="516" y="667"/>
      <point x="518" y="683"/>
      <point x="515" y="693" type="curve" smooth="yes"/>
      <point x="503" y="729" type="line"/>
      <point x="609" y="754" type="line" smooth="yes"/>
      <point x="656" y="765"/>
      <point x="651" y="829"/>
      <point x="604" y="833" type="curve" smooth="yes"/>
      <point x="526" y="840" type="line" smooth="yes"/>
      <point x="525" y="840"/>
      <point x="523" y="840"/>
      <point x="522" y="840" type="curve" smooth="yes"/>
      <point x="90" y="840" type="line" smooth="yes"/>
      <point x="68" y="840"/>
      <point x="50" y="822"/>
      <point x="50" y="800" type="curve" smooth="yes"/>
      <point x="50" y="778"/>
      <point x="68" y="760"/>
      <point x="90" y="760" type="curve" smooth="yes"/>
      <point x="412" y="760" type="line"/>
      <point x="411" y="757"/>
      <point x="412" y="752"/>
      <point x="414" y="746" type="curve" smooth="yes"/>
      <point x="432" y="688" type="line"/>
      <point x="387" y="623" type="line" smooth="yes"/>
      <point x="386" y="621"/>
      <point x="383" y="617"/>
      <point x="382" y="614" type="curve" smooth="yes"/>
      <point x="345" y="514" type="line" smooth="yes"/>
      <point x="343" y="507"/>
      <point x="343" y="496"/>
      <point x="344" y="490" type="curve" smooth="yes"/>
      <point x="372" y="387" type="line"/>
      <point x="401" y="301" type="line"/>
      <point x="369" y="214" type="line" smooth="yes"/>
      <point x="367" y="210"/>
      <point x="366" y="203"/>
      <point x="366" y="199" type="curve" smooth="yes"/>
      <point x="369" y="99" type="line" smooth="yes"/>
      <point x="369" y="98"/>
      <point x="369" y="97"/>
      <point x="369" y="96" type="curve" smooth="yes"/>
      <point x="380" y="-4" type="line" smooth="yes"/>
      <point x="383" y="-26"/>
      <point x="403" y="-42"/>
    </contour>
  </outline>
</glyph>
<glyph name="U" format="1">
  <advance width="873"/>
  <unicode hex="0055"/>
  <outline>
    <contour>
      <point x="351" y="-41" type="curve" smooth="yes"/>
      <point x="560" y="-41" type="line" smooth="yes"/>
      <point x="563" y="-41"/>
      <point x="567" y="-41"/>
      <point x="569" y="-40" type="curve" smooth="yes"/>
      <point x="720" y="-4" type="line" smooth="yes"/>
      <point x="730" y="-1"/>
      <point x="742" y="8"/>
      <point x="747" y="18" type="curve" smooth="yes"/>
      <point x="787" y="100" type="line"/>
      <point x="821" y="184" type="line" smooth="yes"/>
      <point x="824" y="192"/>
      <point x="824" y="206"/>
      <point x="821" y="214" type="curve" smooth="yes"/>
      <point x="780" y="313" type="line"/>
      <point x="750" y="407" type="line"/>
      <point x="739" y="500" type="line"/>
      <point x="748" y="597" type="line"/>
      <point x="753" y="697" type="line" smooth="yes"/>
      <point x="753" y="699"/>
      <point x="753" y="703"/>
      <point x="752" y="706" type="curve" smooth="yes"/>
      <point x="735" y="806" type="line" smooth="yes"/>
      <point x="732" y="827"/>
      <point x="711" y="842"/>
      <point x="689" y="838" type="curve" smooth="yes"/>
      <point x="668" y="835"/>
      <point x="653" y="814"/>
      <point x="657" y="792" type="curve" smooth="yes"/>
      <point x="673" y="697" type="line"/>
      <point x="668" y="601" type="line"/>
      <point x="659" y="503" type="line" smooth="yes"/>
      <point x="659" y="500"/>
      <point x="659" y="497"/>
      <point x="659" y="494" type="curve" smooth="yes"/>
      <point x="671" y="394" type="line" smooth="yes"/>
      <point x="672" y="392"/>
      <point x="672" y="389"/>
      <point x="673" y="387" type="curve" smooth="yes"/>
      <point x="704" y="287" type="line" smooth="yes"/>
      <point x="704" y="286"/>
      <point x="705" y="284"/>
      <point x="705" y="284" type="curve" smooth="yes"/>
      <point x="741" y="199" type="line"/>
      <point x="713" y="131" type="line"/>
      <point x="683" y="70" type="line"/>
      <point x="555" y="39" type="line"/>
      <point x="355" y="39" type="line"/>
      <point x="208" y="70" type="line"/>
      <point x="182" y="131" type="line"/>
      <point x="142" y="211" type="line"/>
      <point x="132" y="286" type="line"/>
      <point x="210" y="372" type="line" smooth="yes"/>
      <point x="221" y="385"/>
      <point x="223" y="407"/>
      <point x="213" y="421" type="curve" smooth="yes"/>
      <point x="151" y="512" type="line"/>
      <point x="146" y="592" type="line"/>
      <point x="185" y="684" type="line" smooth="yes"/>
      <point x="188" y="692"/>
      <point x="189" y="705"/>
      <point x="185" y="714" type="curve" smooth="yes"/>
      <point x="146" y="814" type="line" smooth="yes"/>
      <point x="138" y="834"/>
      <point x="115" y="844"/>
      <point x="94" y="836" type="curve" smooth="yes"/>
      <point x="74" y="828"/>
      <point x="64" y="805"/>
      <point x="72" y="784" type="curve" smooth="yes"/>
      <point x="105" y="700" type="line"/>
      <point x="69" y="614" type="line" smooth="yes"/>
      <point x="67" y="610"/>
      <point x="66" y="602"/>
      <point x="66" y="597" type="curve" smooth="yes"/>
      <point x="72" y="497" type="line" smooth="yes"/>
      <point x="72" y="491"/>
      <point x="76" y="482"/>
      <point x="79" y="477" type="curve" smooth="yes"/>
      <point x="129" y="402" type="line"/>
      <point x="60" y="326" type="line" smooth="yes"/>
      <point x="53" y="318"/>
      <point x="49" y="304"/>
      <point x="50" y="294" type="curve" smooth="yes"/>
      <point x="63" y="194" type="line" smooth="yes"/>
      <point x="64" y="190"/>
      <point x="66" y="184"/>
      <point x="67" y="181" type="curve" smooth="yes"/>
      <point x="109" y="100" type="line"/>
      <point x="143" y="19" type="line" smooth="yes"/>
      <point x="148" y="9"/>
      <point x="160" y="-2"/>
      <point x="172" y="-4" type="curve" smooth="yes"/>
      <point x="343" y="-40" type="line" smooth="yes"/>
      <point x="345" y="-41"/>
      <point x="349" y="-41"/>
    </contour>
  </outline>
</glyph>
<glyph name="V" format="1">
  <advance width="863"/>
  <unicode hex="0056"/>
  <outline>
    <contour>
      <point x="562" y="-40" type="line"/>
      <point x="562" y="-34" type="line"/>
      <point x="715" y="-3" type="line" smooth="yes"/>
      <point x="724" y="-1"/>
      <point x="736" y="8"/>
      <point x="741" y="16" type="curve" smooth="yes"/>
      <point x="788" y="97" type="line" smooth="yes"/>
      <point x="795" y="109"/>
      <point x="794" y="128"/>
      <point x="786" y="140" type="curve" smooth="yes"/>
      <point x="735" y="211" type="line"/>
      <point x="742" y="289" type="line"/>
      <point x="790" y="382" type="line" smooth="yes"/>
      <point x="791" y="385"/>
      <point x="793" y="391"/>
      <point x="794" y="395" type="curve" smooth="yes"/>
      <point x="807" y="495" type="line"/>
      <point x="813" y="598" type="line" smooth="yes"/>
      <point x="813" y="602"/>
      <point x="812" y="610"/>
      <point x="811" y="614" type="curve" smooth="yes"/>
      <point x="778" y="702" type="line"/>
      <point x="801" y="790" type="line" smooth="yes"/>
      <point x="806" y="811"/>
      <point x="793" y="833"/>
      <point x="772" y="839" type="curve" smooth="yes"/>
      <point x="751" y="844"/>
      <point x="729" y="831"/>
      <point x="723" y="810" type="curve" smooth="yes"/>
      <point x="697" y="710" type="line" smooth="yes"/>
      <point x="696" y="703"/>
      <point x="696" y="693"/>
      <point x="698" y="686" type="curve" smooth="yes"/>
      <point x="733" y="594" type="line"/>
      <point x="727" y="505" type="line"/>
      <point x="715" y="412" type="line"/>
      <point x="667" y="318" type="line" smooth="yes"/>
      <point x="665" y="314"/>
      <point x="664" y="308"/>
      <point x="663" y="304" type="curve" smooth="yes"/>
      <point x="654" y="204" type="line" smooth="yes"/>
      <point x="653" y="195"/>
      <point x="657" y="183"/>
      <point x="661" y="177" type="curve" smooth="yes"/>
      <point x="706" y="115" type="line"/>
      <point x="681" y="72" type="line"/>
      <point x="526" y="40" type="line"/>
      <point x="379" y="40" type="line"/>
      <point x="346" y="152" type="line" smooth="yes"/>
      <point x="344" y="161"/>
      <point x="334" y="172"/>
      <point x="326" y="177" type="curve" smooth="yes"/>
      <point x="220" y="228" type="line" smooth="yes"/>
      <point x="216" y="230"/>
      <point x="209" y="232"/>
      <point x="205" y="233" type="curve" smooth="yes"/>
      <point x="158" y="236" type="line"/>
      <point x="184" y="280" type="line" smooth="yes"/>
      <point x="187" y="286"/>
      <point x="190" y="297"/>
      <point x="189" y="304" type="curve" smooth="yes"/>
      <point x="180" y="394" type="line"/>
      <point x="217" y="485" type="line" smooth="yes"/>
      <point x="220" y="492"/>
      <point x="221" y="504"/>
      <point x="218" y="511" type="curve" smooth="yes"/>
      <point x="191" y="605" type="line"/>
      <point x="193" y="696" type="line"/>
      <point x="209" y="793" type="line" smooth="yes"/>
      <point x="213" y="815"/>
      <point x="198" y="836"/>
      <point x="177" y="839" type="curve" smooth="yes"/>
      <point x="155" y="843"/>
      <point x="134" y="828"/>
      <point x="131" y="807" type="curve" smooth="yes"/>
      <point x="114" y="707" type="line" smooth="yes"/>
      <point x="113" y="705"/>
      <point x="113" y="702"/>
      <point x="113" y="701" type="curve" smooth="yes"/>
      <point x="111" y="601" type="line" smooth="yes"/>
      <point x="111" y="597"/>
      <point x="112" y="592"/>
      <point x="113" y="589" type="curve" smooth="yes"/>
      <point x="138" y="502" type="line"/>
      <point x="102" y="415" type="line" smooth="yes"/>
      <point x="100" y="410"/>
      <point x="99" y="402"/>
      <point x="99" y="396" type="curve" smooth="yes"/>
      <point x="108" y="309" type="line"/>
      <point x="56" y="220" type="line" smooth="yes"/>
      <point x="40" y="192"/>
      <point x="56" y="162"/>
      <point x="88" y="160" type="curve" smooth="yes"/>
      <point x="192" y="153" type="line"/>
      <point x="274" y="113" type="line"/>
      <point x="311" y="-11" type="line" smooth="yes"/>
      <point x="315" y="-27"/>
      <point x="332" y="-40"/>
      <point x="349" y="-40" type="curve" smooth="yes"/>
    </contour>
  </outline>
</glyph>
